<?xml version="1.0" encoding="iso-8859-1"?>
<!-- Generator: Adobe Illustrator 19.0.0, SVG Export Plug-In . SVG Version: 6.00 Build 0)  -->
<svg version="1.1" id="Capa_1" xmlns="http://www.w3.org/2000/svg" xmlns:xlink="http://www.w3.org/1999/xlink" x="0px" y="0px"
	 viewBox="0 0 511.999 511.999" style="enable-background:new 0 0 511.999 511.999;" xml:space="preserve">
<path style="fill:#AD7B64;" d="M337.308,104.911c-2.929,16.967-10.88,32.209-22.283,44.14c-15.249,0-107.533,0-122.835,0
	c-11.026-11.537-18.82-26.174-21.971-42.47L58.947,154.972l196.736,89.81l196.736-89.81L337.308,104.911z"/>
<g>
	<path style="fill:#966653;" d="M174.848,122.194c-2.016-4.988-3.583-10.207-4.628-15.612L58.948,154.972l19.773,9.027
		L174.848,122.194z"/>
	<path style="fill:#966653;" d="M255.684,241.771l-196.736-86.8v256.334c0,3.686,2.176,7.024,5.549,8.513l191.187,84.351
		l191.188-84.351c3.372-1.488,5.549-4.826,5.549-8.513V154.971L255.684,241.771z"/>
</g>
<path style="fill:#875848;" d="M79.02,423.364V163.827l-20.073-8.856v256.334c0,3.686,2.176,7.024,5.549,8.513l14.971,6.606
	C79.176,425.446,79.02,424.418,79.02,423.364z"/>
<path style="fill:#E4EAF8;" d="M217.231,449.158L95.324,395.373c-2.252-0.994-3.705-3.224-3.705-5.686V221.561
	c0-1.446,1.486-2.415,2.809-1.832l123.171,54.342c3.29,1.451,5.413,4.708,5.413,8.305v163.012
	C223.013,448.365,219.954,450.359,217.231,449.158z"/>
<path style="fill:#D8DCE5;" d="M111.691,227.346l-17.371-7.664c-1.273-0.561-2.702,0.37-2.702,1.761v168.244
	c0,2.462,1.453,4.692,3.705,5.686l16.367,7.221V227.346z"/>
<path style="fill:#00C3FF;" d="M91.619,264.148l131.394,57.971v-43.18c0-2.116-1.25-4.033-3.186-4.887L94.321,218.679
	c-1.273-0.561-2.702,0.37-2.702,1.761V264.148z"/>
<path style="fill:#06B0F2;" d="M111.691,226.342l-17.744-7.828c-1.097-0.484-2.328,0.319-2.328,1.517v44.116l20.073,8.856V226.342z"
	/>
<path style="fill:#F9B938;" d="M191.172,151.436h124.873c21.344-22.334,28.418-53.291,21.227-81.244
	c-9.587-37.261-43.41-64.794-83.663-64.794h-0.001C177.795,5.398,138.793,96.63,191.172,151.436z"/>
<path style="fill:#E59F23;" d="M263.621,5.988c-3.286-0.379-6.624-0.591-10.011-0.591l0,0c-75.812,0-114.815,91.233-62.437,146.038
	h20.023C161.957,99.915,193.05,14.137,263.621,5.988z"/>
<path style="fill:#FCD592;" d="M253.608,32.125L253.608,32.125L253.608,32.125c-34.894,0-62.824,29.968-59.358,65.618l0,0
	c1.456,14.672,8.237,27.769,18.372,37.36l0,0c1.06,0.883,5.593,5.553,13.783,9.762c15.237,7.824,33.165,8.703,49.122,2.394
	c10.703-4.24,18.263-11.152,19.066-12.156l0,0c10.135-9.592,16.916-22.688,18.372-37.36l0,0
	C316.51,62.88,289.112,32.125,253.608,32.125z"/>
<path style="fill:#FFC850;" d="M232.696,135.104L232.696,135.104c-10.135-9.592-16.915-22.688-18.372-37.36l0,0
	c-3.125-32.141,19.276-59.683,49.321-64.774c-3.263-0.553-6.616-0.845-10.036-0.845l0,0c-34.977,0-62.815,30.054-59.358,65.618l0,0
	c1.456,14.672,8.238,27.769,18.372,37.36l0,0c1.058,0.881,5.592,5.553,13.783,9.762c11.691,6.004,25.24,7.871,37.239,5.709
	C249.112,147.957,241.872,142.751,232.696,135.104z"/>
<polygon style="fill:#875848;" points="275.757,495.314 275.757,232.915 255.684,241.771 255.684,504.17 "/>
<path d="M94.973,211.912c-4.969-2.19-10.565,1.453-10.565,6.887c0,4.95,0,167.089,0,171.197c0,5.441,3.217,10.376,8.195,12.572
	l127.689,56.336c0.972,0.429,2.007,0.64,3.038,0.64c1.438,0,2.869-0.411,4.111-1.221c2.132-1.39,3.417-3.762,3.417-6.306
	c0-4.368,0-170.31,0-175.248c0-2.983-1.76-5.683-4.489-6.887L94.973,211.912z M99.461,230.348l116.34,51.329v30.207l-116.34-51.33
	V230.348z M99.461,389.141V277.01l116.34,51.329v112.13L99.461,389.141z"/>
<path d="M258.072,79.639V62.855c6.389,0.478,8.583,3.529,11.253,3.529c3.529,0,5.054-4.387,5.054-6.58
	c0-5.532-10.109-7.343-16.307-7.534v-2.48c0-1.238-1.621-2.384-3.242-2.384c-1.813,0-3.242,1.145-3.242,2.384v2.671
	c-9.536,1.239-18.501,6.484-18.501,18.595c0,12.206,9.823,15.925,18.501,19.167V109.2c-8.391-0.953-11.253-7.152-14.877-7.152
	c-2.956,0-5.339,4.005-5.339,6.675c0,5.34,8.677,11.539,20.217,11.825v2.67c0,1.239,1.43,2.384,3.242,2.384
	c1.621,0,3.242-1.144,3.242-2.384v-2.956c10.681-1.717,18.023-8.488,18.023-20.217C276.095,87.077,266.558,82.786,258.072,79.639z
	 M252.35,77.541c-4.387-1.717-7.63-3.529-7.63-7.724c0-3.624,2.861-5.913,7.63-6.675V77.541z M257.309,109.106V92.513
	c4.101,1.813,7.153,4.101,7.153,8.774C264.462,105.769,261.505,108.247,257.309,109.106z"/>
<path d="M455.738,148.378L345.944,100.63c5.206-48.647-28.152-91.047-72.89-100.459c-4.069-0.863-8.059,1.747-8.915,5.816
	c-0.857,4.068,1.747,8.059,5.816,8.915c57.266,12.051,81.593,82.111,42.081,126.932h-15.874
	c47.163-38.462,20.511-117.362-42.237-117.362c-62.067,0-89.831,77.768-42.007,117.362h-16.104
	c-39.238-44.521-15.478-114.845,42.111-126.938c4.069-0.854,6.674-4.845,5.82-8.913c-0.855-4.07-4.849-6.676-8.913-5.82
	c-46.04,9.667-78.858,53.633-72.733,102.188L56.262,148.378c-2.647,1.15-4.473,3.799-4.518,6.791c0,0.031-0.007,0.061-0.007,0.092
	c0,0.003,0.001,0.006,0.001,0.009s-0.001,0.007-0.001,0.01v256.334c0,6.666,3.94,12.71,10.037,15.4l191.187,84.352
	c1.872,0.824,4.108,0.867,6.078,0l191.188-84.351c6.096-2.692,10.035-8.736,10.035-15.4v-93.42c0-4.158-3.369-7.527-7.527-7.527
	c-4.158,0-7.527,3.369-7.527,7.527v93.42c0,0.704-0.417,1.343-1.06,1.627l-180.622,79.688V246.986l47.118-20.788l134.563-59.369
	v116.238c0,4.158,3.369,7.527,7.527,7.527c4.158,0,7.527-3.369,7.527-7.527c0-4.347-0.001-129.424-0.001-127.798
	C460.263,152.272,458.45,149.557,455.738,148.378z M230.607,136.205c-47.811-24.575-29.994-96.68,23.317-96.68
	c22.535,0,42.169,14.443,48.855,35.94C316.488,119.536,269.764,156.307,230.607,136.205z M176.866,141.834h-4.337
	c-4.157,0-7.527,3.369-7.527,7.527s3.37,7.527,7.527,7.527c5.649,0,152.255,0,162.823,0c4.158,0,7.527-3.369,7.527-7.527
	s-3.369-7.527-7.527-7.527h-4.371c5.399-8.081,9.437-16.871,12.034-26.06l90.96,39.557l-177.975,78.522L78.025,155.33l87.273-37.953
	C167.901,125.986,171.782,134.222,176.866,141.834z M248.472,492.93L67.85,413.24c-0.644-0.283-1.06-0.922-1.06-1.626V166.829
	c5.127,2.261,177.523,78.322,181.681,80.157V492.93H248.472z"/>
<path d="M196.681,349.946l-72.653-32.054c-3.805-1.675-8.247,0.046-9.925,3.849c-1.678,3.804,0.045,8.247,3.848,9.926l72.653,32.054
	c3.823,1.683,8.254-0.061,9.925-3.849C202.207,356.067,200.484,351.625,196.681,349.946z"/>
<path d="M196.681,383.826l-72.653-32.055c-3.804-1.675-8.247,0.046-9.925,3.849c-1.678,3.804,0.045,8.247,3.848,9.925l72.653,32.054
	c3.806,1.68,8.248-0.046,9.925-3.848C202.207,389.946,200.484,385.504,196.681,383.826z"/>
<g>
</g>
<g>
</g>
<g>
</g>
<g>
</g>
<g>
</g>
<g>
</g>
<g>
</g>
<g>
</g>
<g>
</g>
<g>
</g>
<g>
</g>
<g>
</g>
<g>
</g>
<g>
</g>
<g>
</g>
</svg>
