<svg height="512" viewBox="0 0 512 512" width="512" xmlns="http://www.w3.org/2000/svg"><g id="filled_outline" data-name="filled outline"><path d="m261.1 280h-32v-80h-38a36 36 0 0 0 -28.8 14.4l-27.1 36.137a36 36 0 0 0 -6.243 29.845l28.143 119.618v88h104v-72l13.058-16.323a86.445 86.445 0 0 0 18.942-54 73.208 73.208 0 0 0 -16.041-45.729z" fill="#fdc9a6"/><path d="m292.1 280 7.045 17.614a20.055 20.055 0 0 1 -14.687 27.114 20.056 20.056 0 0 1 -22.554-12.217l-9.804-24.511z" fill="#f6bb92"/><path d="m292.25 321.35a19.849 19.849 0 0 1 -7.79 3.38 20.32 20.32 0 0 1 -3.94.39 20.057 20.057 0 0 1 -18.61-12.61l-9.81-24.51 15.86-3.17 13.15 16.43a68.464 68.464 0 0 1 11.14 20.09z" fill="#f6bb92"/><path d="m272 224 23.766 45.157a17.711 17.711 0 0 1 -3.921 19.1 17.711 17.711 0 0 1 -27.542-3.137l-28.203-45.12z" fill="#fdc9a6"/><path d="m274.14 292.67a17.58 17.58 0 0 1 -9.84-7.55l-28.2-45.12 25.38-11.31 2.52 51.31z" fill="#fdc9a6"/><g fill="#e6af89"><path d="m205.1 248h-16a8 8 0 0 1 0-16h16a8 8 0 0 1 0 16z"/><path d="m181.11 288a8 8 0 0 1 -4.445-14.657l30-20a8 8 0 1 1 8.875 13.312l-30 20a7.964 7.964 0 0 1 -4.43 1.345z"/><path d="m288 344-80-48h-8l2.48-95.62c0-.13.01-.25.02-.38h26.6v80h26.9l17.01 21.26a68.433 68.433 0 0 1 14.99 42.74z"/><path d="m274.14 292.67a17.58 17.58 0 0 1 -9.84-7.55l-28.2-45.12 25.38-11.31 2.52 51.31z"/><path d="m292.25 321.35a19.849 19.849 0 0 1 -7.79 3.38 20.32 20.32 0 0 1 -3.94.39 20.057 20.057 0 0 1 -18.61-12.61l-9.81-24.51 15.86-3.17 13.15 16.43a68.464 68.464 0 0 1 11.14 20.09z"/></g><path d="m405.757 130.328-128.565 128.564-128.564-128.564a62.286 62.286 0 0 1 -18.243-44.043 62.285 62.285 0 0 1 62.285-62.285 62.284 62.284 0 0 1 44.042 18.243l40.48 40.48 40.48-40.48a62.286 62.286 0 0 1 44.043-18.243 62.285 62.285 0 0 1 62.285 62.285 62.286 62.286 0 0 1 -18.243 44.043z" fill="#e82f3e"/><path d="m288.557 219.292a8 8 0 0 1 -5.657-13.656l8-8a8 8 0 1 1 11.313 11.313l-8 8a7.974 7.974 0 0 1 -5.656 2.343z" fill="#961b20"/><path d="m316.557 191.292a8 8 0 0 1 -5.657-13.656l20-20a8 8 0 1 1 11.313 11.313l-20 20a7.974 7.974 0 0 1 -5.656 2.343z" fill="#961b20"/><path d="m293.1 344a68.422 68.422 0 0 0 -14.993-42.741l-17.007-21.259-3.946-80.41a24.805 24.805 0 0 0 -24.772-23.59 24.806 24.806 0 0 0 -24.8 24.378l-2.482 143.622z" fill="#fdc9a6"/><path d="m155.9 209.6-27.1 36.136a43.893 43.893 0 0 0 -7.63 36.478l27.93 118.715v87.071a8 8 0 0 0 8 8h104a8 8 0 0 0 8-8v-69.194l11.305-14.131a94.786 94.786 0 0 0 20.695-59c0-.38-.008-.758-.019-1.137.013-.179.019-.359.019-.541a76.2 76.2 0 0 0 -2.126-17.772 27.984 27.984 0 0 0 7.6-31.585l-3.213-8.032a7.8 7.8 0 0 0 -.387-.82 25.666 25.666 0 0 0 .217-19.6 7.935 7.935 0 0 0 -.348-.755l-7.2-13.68 115.771-115.769a70.285 70.285 0 1 0 -99.4-99.4l-34.822 34.825-34.823-34.823a70.285 70.285 0 1 0 -99.4 99.4l56.017 56.014h-7.886a44.211 44.211 0 0 0 -35.2 17.6zm112.014 185.08-13.059 16.32a8.007 8.007 0 0 0 -1.752 5v64h-88v-80a8.026 8.026 0 0 0 -.213-1.833l-28.145-119.617a27.929 27.929 0 0 1 4.855-23.214l27.1-36.136a28.132 28.132 0 0 1 22.4-11.2h8.344l-.414 24h-9.93a8 8 0 0 0 0 16h9.654l-.185 10.739-21.907 14.605a8 8 0 1 0 8.875 13.312l12.7-8.464-.247 14.334a8 8 0 0 0 7.861 8.137h.141a8 8 0 0 0 8-7.862l1.592-92.286c0-.025 0-.049 0-.073 0-.062.013-.123.015-.185a16.8 16.8 0 0 1 33.576-.276l3.945 80.41a8.013 8.013 0 0 0 1.735 4.609l17.008 21.259a60.639 60.639 0 0 1 13.237 37.033 8.1 8.1 0 0 0 -.029.9l.014.53c.009.32.02.639.02.96a78.729 78.729 0 0 1 -17.191 48.998zm19.35-94.5a25.788 25.788 0 0 0 3.685-1.519l.772 1.929a12.06 12.06 0 0 1 .458 7.637 76.084 76.084 0 0 0 -4.915-8.052zm1.2-27.715a9.717 9.717 0 0 1 -13.4 12.011c-.069-.034-.141-.058-.211-.09l-5.887-7.358-.776-15.82 3.346 3.346a8 8 0 0 0 11.313 0l.951-.951zm-150.079-186.18a54.285 54.285 0 0 1 92.67-38.385l40.481 40.48a8 8 0 0 0 11.313 0l40.48-40.48a54.286 54.286 0 0 1 76.771 76.771l-119.906 119.906c-.023.022-.045.045-.068.068l-2.934 2.934-10.17-10.17-1.875-38.209a32.85 32.85 0 0 0 -56.956-20.62l-53.907-53.907a53.929 53.929 0 0 1 -15.899-38.388z"/><path d="m288.557 219.292a7.974 7.974 0 0 0 5.656-2.343l8-8a8 8 0 1 0 -11.313-11.313l-8 8a8 8 0 0 0 5.657 13.656z"/><path d="m316.557 191.292a7.974 7.974 0 0 0 5.656-2.343l20-20a8 8 0 1 0 -11.313-11.313l-20 20a8 8 0 0 0 5.657 13.656z"/></g></svg>