<svg height="511pt" viewBox="-93 0 511 511.99393" width="511pt" xmlns="http://www.w3.org/2000/svg"><g fill="#939baa"><path d="m307.75 392.472656c-.765625-1.59375-1.660156-3.289062-2.804688-5.339844l-3.730468-6.65625 7.597656.71875c2.429688.230469 4.660156.503907 6.816406.828126l6.734375 1.015624-11.804687 15.269532zm0 0"/><path d="m290.425781 367.207031c-2.933593-3.25-6.199219-6.527343-9.703125-9.738281l-4.511718-4.136719 5.597656-2.472656c6.015625-2.65625 12.367187-4.289063 18.875-4.847656l7.28125-.625-13.695313 26.082031zm0 0"/><path d="m265.898438 345.234375c-.109376-.078125-.398438-.300781-.398438-.300781-3.488281-2.59375-7.0625-5.097656-10.515625-7.519532l-4.121094-2.902343-4.996093-3.535157 31.941406-19.210937-.992188 8.136719c-.957031 7.859375-2.558594 15.664062-4.75 23.195312l-1.578125 5.414063zm0 0"/><path d="m243.214844 232.257812c-3.636719 0-7.078125-1.730468-9.035156-4.535156l-1.40625-1.566406.476562-2.035156c.707031-3.011719 1.367188-6.246094 2.015625-9.882813l.808594-4.539062 4.378906 1.4375c.777344-.15625 1.550781-.246094 2.335937-.246094 4.472657 0 8.796876 2.941406 10.289063 6.996094 1.824219 4.933593-.511719 10.898437-5.210937 13.289062-1.386719.707031-2.996094 1.082031-4.652344 1.082031zm0 0"/><path d="m228.984375 471.898438c-.429687 0-.859375-.019532-1.292969-.054688-9.074218-.761719-16.605468-9.105469-16.445312-18.226562.078125-4.953126 2.863281-10.429688 7.273437-14.289063 3.347657-2.921875 7.070313-4.464844 10.773438-4.464844.484375 0 .972656.027344 1.449219.082031 4.191406.496094 8.417968 3.136719 11.613281 7.25 3.421875 4.425782 5.089843 9.777344 4.472656 14.320313-1.132813 8.335937-9.304687 15.382813-17.84375 15.382813zm0 0"/><path d="m89.136719 452.640625c-1.265625 0-2.503907-.164063-3.683594-.480469-3.441406-.917968-6.386719-3.246094-8.511719-6.726562-1.800781-2.953125-2.800781-6.449219-2.816406-9.839844-.023438-6.335938 3.328125-11.039062 8.964844-12.582031 1.371094-.378907 2.816406-.574219 4.285156-.574219 5.511719 0 10.785156 2.625 14.101562 7.019531 3.710938 4.871094 4.035157 10.6875.878907 15.941407-2.652344 4.402343-7.839844 7.242187-13.21875 7.242187zm0 0"/><path d="m82.171875 232.257812c-1.652344 0-3.261719-.375-4.65625-1.082031-4.6875-2.394531-7.023437-8.351562-5.214844-13.285156 1.503907-4.0625 5.828125-7.003906 10.289063-7.003906.789062 0 1.566406.09375 2.3125.273437l3.460937-.183594.65625 3.386719c.6875 3.476563 1.53125 6.929688 2.503907 10.261719l.585937 2.003906-1.308594 1.625c-2.015625 2.507813-5.242187 4.003906-8.628906 4.003906zm0 0"/><path d="m44.808594 314.992188 31.089844 14.550781-6.175782 3.90625c-4.050781 2.5625-7.269531 4.742187-10.125 6.863281l-4.289062 3.179688zm0 0"/><path d="m16.4375 346.863281 7.300781-.195312c.515625-.011719 1.035157-.019531 1.554688-.019531 5.464843 0 10.921875.765624 16.226562 2.273437l6.011719 1.707031-4.074219 4.742188c-2.699219 3.148437-5.308593 6.566406-7.753906 10.164062l-3.3125 4.875zm0 0"/><path d="m4.46875 383.199219 6.714844-1.070313c2.824218-.449218 5.761718-.800781 8.980468-1.066406l6.691407-.554688-2.699219 6.148438c-1.089844 2.488281-2.148438 5.101562-3.144531 7.765625l-2.496094 6.667969zm0 0"/></g><path d="m166.585938 314.578125c-7.847657-3.679687-16.71875-8.226563-22.605469-15.65625-5.269531-6.640625-7.128907-15.496094-4.734375-22.558594.742187-2.144531 1.839844-4.039062 3.277344-5.660156 2.886718-3.21875 6.273437-5.890625 9.554687-8.476563 3.035156-2.398437 6.113281-4.832031 8.773437-7.621093l.050782-.058594c1.457031-1.535156 2.65625-2.695313 4.214844-3.121094.582031-.148437 1.023437-.148437 1.1875-.148437 3.214843 0 5.484374 3.09375 8.101562 8.09375l.085938.15625c1.613281 3.070312 4.074218 5.4375 6.453124 7.726562 2.027344 1.941406 4.128907 3.957032 5.738282 6.425782.671875 1.035156 1.207031 2.078124 1.59375 3.105468 2.28125 5.925782-.191406 11.40625-2.6875 16.074219-3.972656 7.417969-8.78125 14.386719-14.285156 20.71875l-1.984376 2.28125zm0 0" fill="#d34242"/><path d="m162.144531 106.828125c-1.960937-.023437-3.996093-1.023437-5.875-2.890625-1.640625-1.609375-3.128906-3.8125-4.417969-6.535156-5.367187-11.242188-7.207031-25.492188-5.179687-40.125 2.082031-15.003906 7.46875-29.03125 14.917969-45.480469l3.207031-7.074219 5.207031 8.96875c2.054688 3.464844 2.285156 3.980469 2.398438 4.222656l.046875.105469c2.105469 4.984375 3.800781 10.226563 5.050781 15.578125 2.535156 10.859375 3.253906 22.035156 2.144531 33.226563-1.144531 11.671875-4.234375 22.953125-8.933593 32.613281-2.980469 6.109375-6.277344 7.390625-8.519532 7.390625zm0 0" fill="#d34242"/><path d="m164.765625 470.789062 71.074219-61.015624c-6.316406-4.015626-12.242188-8.664063-17.636719-13.878907l-4.3125-4.171875 39.089844-16.867187c-4.839844-15.359375-11.542969-30.074219-19.894531-43.777344l5.886718-5.226563c4.925782 3.863282 10.117188 7.503907 15.144532 11.023438l.839843.59375c3.449219 2.421875 7.015625 4.921875 10.441407 7.46875 23.148437 17.199219 38 35.125 45.398437 54.8125 10.027344 26.683594 6.105469 56.410156 2.648437 82.636719-.996093 7.5-2.429687 15.128906-8.003906 19.414062-4.328125 3.316407-9.902344 3.761719-16.210937 3.976563-6.578125.21875-13.164063.421875-19.75.609375l-4.757813.136719.683594-4.707032c3.910156-27.003906 6.882812-54.363281 8.835938-81.316406-2.054688 27.53125-5.097657 55.355469-9.101563 82.6875l-.488281 3.332031-3.363282.085938c-30.742187.8125-61.867187 1.253906-92.519531 1.3125l-4.007812.007812v-37.136719zm64.503906-35.996093c-3.691406 0-7.425781 1.554687-10.796875 4.488281-4.34375 3.808594-7.207031 9.433594-7.289062 14.332031v.273438c0 9.023437 7.5625 17.273437 16.507812 18.015625.4375.039062.867188.054687 1.34375.054687 8.6875 0 16.695313-6.921875 17.855469-15.429687.621094-4.574219-1.058594-9.949219-4.488281-14.371094-3.191406-4.121094-7.441406-6.773438-11.652344-7.277344-.484375-.054687-.984375-.085937-1.480469-.085937zm0 0" fill="#5b5d6d"/><path d="m221.148438 313.480469 4.453124 6.308593c11.164063 15.808594 19.972657 33.140626 26.183594 51.519532l1.179688 3.492187-38.976563 16.8125c5.226563 5.71875 11.097657 10.839844 17.445313 15.265625l4.230468 2.953125-70.035156 60.140625zm0 0" fill="#5b5d6d"/><path d="m165.226562 328.570312 3.714844-.1875c16.074219-.816406 32-6.605468 44.84375-16.296874l10.628906-8.019532-13.402343 37.804688-2.035157.542968c-11.863281 6.535157-25.710937 10.316407-40.023437 10.914063l-4.257813.175781zm0 0" fill="#5b5d6d"/><path d="m164.894531 448.640625-.761719-95.125 3.902344-.125c12.011719-.386719 23.925782-3.058594 34.460938-7.71875l8.496094-3.761719-38.328126 108.035156zm0 0" fill="#5b5d6d"/><path d="m160.535156 353.304688c-16.214844-.730469-31.660156-5.4375-44.664062-13.621094l-1.457032-.730469-.488281-1.671875c-2.28125-7.8125-4.011719-15.128906-5.28125-22.371094l-1.808593-10.296875 8.222656 6.460938c13.207031 10.382812 29.617187 16.53125 46.207031 17.316406l3.890625.183594-.53125 24.914062zm0 0" fill="#5b5d6d"/><path d="m134.261719 391.046875c-5.785157-13.660156-11.765625-27.785156-16.722657-42.382813l-3.132812-9.214843 8.707031 4.351562c11.226563 5.605469 24.082031 8.898438 37.179688 9.519531l3.78125.179688.710937 89.925781-7.683594 1.589844zm0 0" fill="#5b5d6d"/><path d="m160.703125 507.929688c-32.921875 0-66.234375-.4375-99.011719-1.292969l-4.042968-.105469.148437-4.039062c.820313-22.476563.699219-45.078126-.367187-67.179688 1.003906 22.289062 1.125 44.921875.300781 67.261719l-.144531 3.960937-3.964844-.109375c-10.769532-.296875-21.671875-.652343-32.40625-1.050781-4.910156-.175781-9.8125-.8125-12.402344-4.269531-2.011719-2.683594-2.042969-6.292969-1.894531-10.066407 1.078125-26.652343 2.195312-54.121093 9.023437-80.332031 5.332032-20.492187 16.765625-48.972656 40.9375-68.238281 5.988282-4.769531 12.636719-8.855469 19.0625-12.8125l.175782-.105469c5.09375-3.125 10.863281-6.664062 16.1875-10.601562l5.839843 5.226562c-8.777343 15.125-19.234375 29.316407-31.089843 42.183594l40.300781 11.820313 6.5625 1.917968-14.847657 14.519532c-1.1875 1.164062-2.664062 2.609374-2.964843 4.496093-.488281 3.035157 2.292969 5.59375 4.773437 7.488281 23.050782 17.53125 44.300782 37.601563 63.175782 59.65625l1.597656 1.871094-.945313 2.269532-.003906 37.53125zm-73.289063-85.5625c-1.476562 0-2.941406.195312-4.347656.578124-5.660156 1.546876-9.027344 6.273438-9 12.636719.015625 8.9375 5.730469 15.136719 11.371094 16.640625 1.210938.332032 2.476562.496094 3.777344.496094 5.351562 0 10.53125-2.859375 13.191406-7.289062 3.164062-5.265626 2.84375-11.101563-.878906-16.015626-3.34375-4.414062-8.621094-7.046874-14.113282-7.046874zm0 0" fill="#5b5d6d"/><path d="m151.746094 452.421875c-15.605469-16.652344-32.707032-32.085937-50.824219-45.871094-2.632813-2.003906-5.253906-4.457031-4.753906-7.460937.277343-1.679688 1.480469-2.980469 2.914062-4.386719l14.914063-14.601563-40.761719-11.953124-6.011719-1.753907 4.117188-4.71875c11.75-13.445312 22.019531-28.246093 30.523437-43.996093l5.292969-9.796876 2.152344 10.921876c4.960937 25.164062 15.097656 49.113281 24.898437 72.273437l24.140625 57.050781zm0 0" fill="#5b5d6d"/><path d="m248.414062 212.410156c-1.753906-1.023437-3.710937-1.566406-5.65625-1.566406-.535156 0-1.070312.039062-1.589843.125l-5.4375.871094.851562-5.441406c1.519531-9.71875 2.523438-18.933594 2.980469-27.386719l.242188-4.488281 4.425781.761718c4.101562.703125 8.070312 2.824219 11.179687 5.972656l4.207032 4.257813-8.832032 3.597656 4.476563-1.753906 4.101562-1.664063 1.242188 4.246094c.148437.503906.269531 1.007813.382812 1.523438 1.496094 7.601562-1.878906 16.09375-8.1875 20.71875l-2.117187 1.550781zm0 0" fill="#ffdac4"/><path d="m186.757812 273.691406c-1.644531-2.53125-3.738281-4.535156-5.761718-6.476562-2.386719-2.304688-4.824219-4.652344-6.414063-7.648438l-.125-.226562c-1.269531-2.4375-4.253906-8.144532-8.078125-8.144532-.398437 0-.800781.050782-1.234375.164063-1.710937.445313-2.984375 1.78125-4.222656 3.074219l-.152344.15625c-2.6875 2.820312-5.765625 5.246094-8.738281 7.589844-3.285156 2.59375-6.683594 5.28125-9.53125 8.472656-.734375.8125-1.390625 1.71875-1.960938 2.707031l-1.6875 2.917969-3.164062-1.167969c-8.285156-3.0625-15.601562-7.402344-21.75-12.902344-9.867188-8.851562-17.5-21.519531-22.070312-36.640625-4.472657-14.746094-5.636719-29.890625-6.1875-42.757812-.828126-19.527344-.570313-44.84375 8.832031-67.492188 9.136719-22.007812 26.980469-38.730468 46.570312-43.648437l4.578125-1.148438.378906 4.707031c.65625 8.113282 2.59375 15.585938 5.753907 22.210938 2.8125 5.90625 6.691406 9.4375 10.386719 9.453125 4.117187 0 6.941406-4.035156 8.589843-7.421875 4.179688-8.617188 7.125-18.683594 8.519531-29.101562l.464844-3.46875h5.183594l.625.640624c23.183594 10.054688 41.632812 33.101563 49.449219 61.820313 6.179687 22.675781 6.398437 48.738281.695312 82.027344-2.84375 16.652343-7.003906 33.859375-18.109375 46.894531-6.464844 7.578125-15.433594 13.566406-25.9375 17.324219l-3.050781 1.089843zm0 0" fill="#ffdac4"/><path d="m164.910156 328.425781c-1.042968 0-2.082031-.019531-3.125-.0625-18.992187-.769531-37.890625-8.699219-51.851562-21.742187l-2.425782-2.269532 1.78125-2.800781c5.355469-8.410156 8.054688-18.121093 8.027344-28.863281l-.019531-7.117188 6.089844 3.683594c3.914062 2.371094 8.105469 4.382813 12.453125 5.976563l3.070312 1.128906-.492187 3.230469c-.992188 6.527344 1.066406 13.769531 5.511719 19.371094 6.527343 8.230468 16.523437 12.859374 25.347656 16.945312 6.421875-6.957031 11.914062-14.695312 16.359375-23.003906l.488281-.914063c1.953125-3.796875 3.558594-7.867187 3.011719-12.078125l-.410157-3.195312 3.035157-1.085938c3.703125-1.320312 7.257812-2.941406 10.554687-4.820312l6.148438-3.496094-.171875 7.074219c-.238281 9.730469 3.0625 20.003906 9.539062 29.707031l1.984375 2.972656-2.730468 2.304688c-14.34375 12.109375-33.359376 19.054687-52.175782 19.054687zm0 0" fill="#ffdac4"/><path d="m72.585938 212.179688c-2.085938-1.53125-3.871094-3.476563-5.300782-5.78125l-2.53125-4.078126 4.980469-1.957031-.125-.011719-4.996094 2.003907-.480469-5.359375c-.171874-1.890625-.085937-3.726563.257813-5.460938.25-1.246094.636719-2.488281 1.152344-3.703125l2.722656-6.390625 6.070313 8.109375-3.234376-4.417969-2.316406-3.074218 2.984375-2.433594c2.648438-2.15625 5.742188-3.628906 8.949219-4.253906l4.613281-.902344.152344 4.699219c.039063 1.226562.078125 2.445312.128906 3.644531.265625 6.25.738281 14.578125 2.03125 23.5l.71875 4.957031-4.992187-.394531c-.261719-.019531-.523438-.03125-.789063-.03125-1.925781 0-3.859375.539062-5.597656 1.5625l-2.273437 1.335938zm0 0" fill="#ffdac4"/><path d="m326.082031 381.789062c-.480469-1.304687-1.601562-2.269531-2.960937-2.550781-6.558594-1.367187-13.269532-2.1875-19.964844-2.480469-1.34375-1.933593-2.777344-3.851562-4.28125-5.753906.296875-.289062.554688-.621094.757812-1.007812l11.722657-22.324219c.644531-1.230469.613281-2.703125-.082031-3.902344-.699219-1.199219-1.960938-1.957031-3.347657-2.003906-10.101562-.351563-20.25 1.761719-29.371093 6.101563-.578126.277343-1.046876.679687-1.417969 1.148437-.691407-.574219-1.398438-1.152344-2.105469-1.726563 3.589844-11.40625 5.808594-23.238281 6.582031-35.175781.097657-1.496093-.648437-2.925781-1.925781-3.703125-1.28125-.78125-2.890625-.785156-4.175781-.011718l-29.457031 17.730468c-6.160157-4.554687-12.125-9.394531-17.3125-14.863281-12.46875-13.148437-18.257813-28.4375-15.886719-41.949219.050781-.292968.066406-.582031.054687-.867187 2.851563-2.296875 5.457032-4.808594 7.78125-7.527344 6.789063-7.96875 11.097656-17.3125 14.097656-27.105469 2.5 1.617188 5.472657 2.5 8.445313 2.496094 2.226563 0 4.453125-.488281 6.476563-1.515625 6.472656-3.289063 9.691406-11.503906 7.179687-18.316406-.21875-.59375-.492187-1.164063-.789063-1.714844 6.953126-5.632813 10.625-15.195313 8.878907-24.019531-.183594-.921875-.441407-1.820313-.734375-2.707032l2.492187-1.011718c2.066407-.835938 3.058594-3.1875 2.222657-5.25-.835938-2.0625-3.183594-3.058594-5.25-2.222656l-3.261719 1.324218c-3.945313-5.164062-9.847657-8.855468-16.3125-9.722656-.097657-.011719-.1875-.003906-.28125-.011719.257812-15.78125-1.378907-29.84375-4.917969-42.855469-8.230469-30.226562-27.871094-54.453124-52.542969-64.8125-.785156-.332031-1.617187-.386718-2.394531-.222656.640625-10.320312-.210938-20.585937-2.542969-30.574218-1.308593-5.601563-3.082031-11.058594-5.261719-16.230469-.355468-.835938-1.167968-2.230469-2.699218-4.835938-1.339844-2.285156-3.757813-6.402343-4.371094-7.894531-.109375-1.40625-.960938-2.714844-2.332031-3.347656-2.023438-.933594-4.417969-.046875-5.347657 1.976562-7.917968 17.183594-16.101562 34.953125-18.796874 54.378906-.4375 3.136719-.757813 6.730469-.835938 10.605469-21.578125 4.699219-41.089844 22.410157-51.054688 46.425781-7.878906 18.988282-9.542968 39.628907-9.441406 57.394532-.023437.003906-.042968 0-.066406.003906-4.324219.578125-8.398438 2.425781-11.804688 5.125l-1.382812-1.839844c-1.339844-1.78125-3.867188-2.136718-5.644531-.800781-1.78125 1.339844-2.140625 3.867187-.800781 5.644531l2.285156 3.042969c-1.679688 2.554687-2.902344 5.402344-3.496094 8.414063-.585938 2.960937-.550781 6.003906 0 8.953124l-3.910156 1.554688c-2.070313.820312-3.082032 3.164062-2.257813 5.234375.628907 1.582031 2.144531 2.542969 3.746094 2.542969.496094 0 1-.089844 1.488281-.285156l3.632813-1.441407c1.554687 2.859375 3.652343 5.417969 6.175781 7.460938-.292969.554687-.570312 1.121093-.789062 1.71875-2.507813 6.808593.710937 15.027343 7.179687 18.316406 2.027344 1.027344 4.25 1.515625 6.476563 1.515625 2.917968 0 5.824218-.855469 8.289062-2.410156 4.878906 12.691406 11.976562 23.425781 20.785156 31.328125.558594.5 1.144532.972656 1.722656 1.457031 1.691407 17.742188-3.585937 31.949219-16.15625 43.394531-6.296874 5.734375-13.449218 10.257813-21.015624 14.914063l-27.144532-12.703125c-3.207031-1.5-5.285156.171875-5.839844.714843-.675781.65625-2.121093 2.515626-1 5.546876l8.808594 23.890624c-1.417968 1.253907-2.792968 2.535157-4.121094 3.84375-.175781-.089843-.347656-.183593-.539062-.25-9.546875-3.292968-19.878906-4.253906-29.871094-2.78125-1.371094.203126-2.542968 1.09375-3.101562 2.363282-.558594 1.269531-.425782 2.738281.351562 3.886718l14.144532 20.878907c.082031.121093.175781.230469.265624.339843-1.152343 1.992188-2.246093 3.988282-3.277343 5.984376-6.96875.308593-13.953125 1.210937-20.769531 2.679687-1.359376.292969-2.472657 1.265625-2.945313 2.574219-.46875 1.304687-.234375 2.765625.625 3.855468l11.722656 14.914063c.335938.429687.75.753906 1.199219 1.003906-.855469 2.746094-1.613281 5.40625-2.273438 7.949219-6.945312 26.660156-8.066406 54.375-9.152343 81.175781-.140625 3.425781-.351563 8.605469 2.714843 12.683594 4.105469 5.472656 11.515626 5.742187 15.496094 5.890625 11.785156.433594 23.59375.808594 35.417969 1.132812.308594.089844.625.152344.957031.167969.058594 0 .113282.003907.171875.003907.320313 0 .628907-.050782.929688-.121094 34.039062.910156 68.207031 1.371094 102.375 1.371094 42.914062 0 85.828125-.71875 128.445312-2.160157 5.421875-.179687 12.847657-.433593 18.558594-4.820312 6.808594-5.230469 8.445313-13.761719 9.542969-22.054688 3.488281-26.40625 7.425781-56.292969-2.523438-83.6875l10.546875-13.621093c.847657-1.09375 1.074219-2.554688.59375-3.859376zm-25.054687-31.792968-7.632813 14.53125c-3.054687-3.375-6.371093-6.710938-9.96875-10.011719 5.570313-2.457031 11.539063-3.992187 17.601563-4.519531zm-28.1875-30.582032c-.921875 7.632813-2.46875 15.183594-4.617188 22.566407-.136718-.101563-.261718-.203125-.398437-.300781-3.707031-2.757813-7.542969-5.445313-11.253907-8.046876-1.128906-.789062-2.261718-1.582031-3.394531-2.382812zm-61.796875 74.957032c5.449219 5.902344 11.523437 11.195312 18.101562 15.789062l-54.722656 46.984375 47.910156-135.050781c10.960938 15.527344 19.578125 32.46875 25.660157 50.492188l-35.585938 15.347656c-1.199219.519531-2.074219 1.589844-2.347656 2.867187-.269532 1.277344.09375 2.609375.984375 3.570313zm-93.15625-15.269532c-.347657-1.386718-1.40625-2.488281-2.78125-2.890624l-40.753907-11.90625c11.984376-13.710938 22.382813-28.710938 31.03125-44.730469 5.035157 25.511719 15.21875 49.625 25.136719 73.058593l24.148438 57.050782c-15.777344-16.832032-32.972657-32.359375-51.324219-46.316406-3.148438-2.394532-3.265625-3.375-3.226562-3.621094.089843-.550782 1.242187-1.683594 1.796874-2.222656l14.878907-14.5625c1.023437-1 1.441406-2.46875 1.09375-3.859376zm42.21875-21.785156.683593 86.144532-22.84375-53.96875c-5.828124-13.773438-11.753906-27.785157-16.625-42.109376 11.972657 5.972657 25.308594 9.292969 38.785157 9.933594zm8.789062 91.292969-.726562-91.21875c12.398437-.398437 24.699219-3.082031 35.949219-8.0625zm39.046875-110.066406c-.296875.082031-.589844.191406-.871094.347656-11.644531 6.417969-24.890624 9.875-38.285156 10.433594l.355469-16.949219c16.921875-.859375 33.523437-6.886719 47.054687-17.09375zm-47.222656 10.765625c-15.152344-.683594-30.136719-5.058594-42.847656-13.09375-.03125-.023438-.066406-.03125-.101563-.054688-2.117187-7.226562-3.886719-14.535156-5.183593-21.941406 13.792968 10.835938 30.941406 17.335938 48.488281 18.167969zm85.339844-121.699219c-2.847656 1.445313-6.894532.382813-8.664063-2.273437-.074219-.109376-.164062-.199219-.246093-.300782.785156-3.355468 1.453124-6.730468 2.0625-10.097656.691406.234375 1.453124.292969 2.21875.109375 3.101562-.75 6.792968 1.226563 7.898437 4.222656 1.105469 2.996094-.421875 6.890625-3.269531 8.339844zm6.507812-43.539063-3.292968 1.335938c-2.0625.835938-3.058594 3.1875-2.21875 5.25.632812 1.566406 2.144531 2.519531 3.738281 2.519531.503906 0 1.015625-.097656 1.511719-.296875l4.464843-1.8125c.117188.410156.21875.824219.304688 1.242188 1.207031 6.097656-1.613281 12.972656-6.640625 16.644531-2.960938-1.726563-6.480469-2.488281-9.898438-1.933594 1.542969-9.851562 2.546875-19.078125 3.023438-27.785156 3.375.570313 6.554687 2.347656 9.007812 4.835937zm-101.929687-126.238281c2.140625-15.433593 8.148437-30.140625 14.59375-44.386719.40625.695313.84375 1.445313 1.316406 2.25.894531 1.523438 2.011719 3.421876 2.21875 3.886719 2.007813 4.753907 3.636719 9.777344 4.839844 14.929688 2.433593 10.40625 3.125 21.148437 2.0625 31.921875-1.109375 11.210937-4.066407 22.019531-8.558594 31.257812-1.566406 3.214844-3.398437 5.136719-4.910156 5.136719-.003907 0-.003907 0-.007813 0-1.660156-.007813-4.386718-2.214844-6.730468-7.136719-5.03125-10.558594-6.746094-24.003906-4.824219-37.859375zm-77.1875 141.023438c-.824219-2.070313-3.164063-3.082031-5.234375-2.257813l-.101563.039063c-.128906-1.453125-.078125-2.910157.203125-4.328125.195313-.996094.511719-1.964844.910156-2.90625l1.914063 2.542968c.789063 1.054688 2 1.609376 3.222656 1.609376.84375 0 1.695313-.261719 2.421875-.808594 1.777344-1.335938 2.136719-3.863282.796875-5.644532l-3.289062-4.378906c2.101562-1.707031 4.582031-2.917968 7.1875-3.425781.042969 1.242187.089843 2.472656.140625 3.675781.296875 7.027344.816406 15.28125 2.0625 23.910156-3.046875-.230468-6.105469.539063-8.726563 2.070313-1.699219-1.242187-3.144531-2.847656-4.265625-4.667969l.5-.195312c2.070313-.824219 3.082032-3.167969 2.257813-5.234375zm5.878906 28.753906c-2.84375-1.449219-4.375-5.34375-3.269531-8.339844 1.105468-2.996093 4.796875-4.96875 7.902344-4.222656.378906.089844.757812.105469 1.128906.089844.707031 3.539062 1.566406 7.09375 2.597656 10.609375-1.898438 2.351562-5.664062 3.230468-8.359375 1.863281zm16.363281-3.203125c-4.347656-14.351562-5.480468-29.171875-6.015625-41.773438-.808593-19.113281-.566406-43.867187 8.53125-65.789062 8.734375-21.046875 25.398438-36.671875 43.851563-41.296875.601562 7.535156 2.347656 15.6875 6.125 23.613281 3.542968 7.433594 8.640625 11.710938 13.980468 11.730469h.039063c3.410156 0 8.277344-1.6875 12.160156-9.675781 4.40625-9.0625 7.445313-19.480469 8.890625-30.320313.007813.003907.015625.011719.023438.015625 22.398437 9.40625 40.300781 31.648438 47.882812 59.496094 6.015625 22.105469 6.207032 47.625.609375 80.308594-2.753906 16.101562-6.75 32.695312-17.210937 44.972656-6.0625 7.097656-14.398438 12.636719-24.242188 16.152344-.078125-.125-.152344-.25-.230468-.375-1.847657-2.832032-4.121094-5.019532-6.316407-7.136719-2.253906-2.171875-4.382812-4.222656-5.675781-6.675781l-.085938-.164063c-1.875-3.578125-6.269531-11.960937-13.859374-10-2.820313.730469-4.652344 2.652344-6.121094 4.191407l-.121094.125c-2.480469 2.605468-5.332031 4.855468-8.347656 7.238281-3.429688 2.707031-6.976563 5.511719-10.046875 8.941406-.929688 1.039063-1.742188 2.167969-2.4375 3.375-7.816407-2.882813-14.691407-6.957031-20.46875-12.128906-9.324219-8.363281-16.554688-20.40625-20.914063-34.824219zm47.347656 53.242188c.550782-1.625 1.382813-3.066407 2.480469-4.289063 2.605469-2.914063 5.730469-5.378906 9.035157-7.992187 3.105468-2.449219 6.316406-4.984376 9.1875-8l.117187-.121094c.765625-.804688 1.71875-1.800782 2.308594-1.953125.039062-.011719.085937-.015625.132812-.015625.597657 0 1.910157.890625 4.566407 5.953125l.085937.167969c1.902344 3.613281 4.609375 6.21875 7.222656 8.738281 1.960938 1.882812 3.808594 3.664062 5.160157 5.734375.503906.773437.910156 1.554687 1.203124 2.324218 1.515626 3.953126.175782 7.824219-2.476562 12.785157-3.832031 7.15625-8.460938 13.867187-13.78125 19.984375-7.695312-3.617188-15.882812-7.863282-21.167969-14.527344-4.378906-5.523438-6.015625-13.074219-4.074219-18.789062zm-21.722656-4.972657c4.078125 2.476563 8.460938 4.589844 13.148438 6.308594-1.144532 7.496094 1.152344 15.933594 6.332031 22.460937 7.09375 8.953126 17.5625 13.808594 26.796875 18.09375.542969.25 1.121094.371094 1.695312.371094 1.105469 0 2.1875-.453125 2.972657-1.300781 6.601562-7.191406 12.292969-15.207031 16.90625-23.824219h.003906c2.527344-4.726562 4.648437-9.816406 3.933594-15.386718 3.949219-1.414063 7.691406-3.125 11.1875-5.109376-.257813 10.601563 3.308593 21.683594 10.210937 32.03125-14.503906 12.242188-33.605468 18.808594-52.5625 18.042969-18.203125-.742187-35.976562-8.234375-49.273437-20.664062 5.773437-9.082031 8.679687-19.453125 8.648437-31.023438zm-53.730468 57.394531c-3.507813 2.214844-7 4.523438-10.367188 7.023438l-5.292969-14.355469zm-43.742188 20.597657c5.585938-.144531 11.199219.570312 16.582031 2.101562-2.925781 3.402344-5.59375 6.925781-8.03125 10.519531zm-12.03125 35.40625c2.878906-.453125 5.777344-.789063 8.679688-1.027344-1.171876 2.6875-2.246094 5.351563-3.222657 7.96875zm49.980469 116.566406c.824219-22.433594.710937-45.128906-.367188-67.527344-.105469-2.222656-2-3.929687-4.21875-3.832031-2.226562.105469-3.941406 1.996094-3.835937 4.21875 1.066406 22.199219 1.179687 44.691406.363281 66.929688-10.804687-.304688-21.597656-.652344-32.371094-1.046876-3.917969-.144531-7.761719-.570312-9.34375-2.675781-1.234375-1.644531-1.230469-4.492187-1.105469-7.515625 1.066407-26.375 2.171876-53.648437 8.898438-79.46875 5.1875-19.914062 16.261719-47.550781 39.5625-66.121094 5.847656-4.664062 12.453125-8.71875 18.84375-12.640624 5.507812-3.382813 11.136719-6.851563 16.472656-10.792969-8.644531 14.886719-18.886718 28.792969-30.582031 41.476562-.945313 1.027344-1.292969 2.46875-.917969 3.8125.371094 1.34375 1.414063 2.398438 2.753906 2.789063l40.285157 11.773437-9.957031 9.742188c-1.4375 1.40625-3.609376 3.535156-4.117188 6.714843-.925781 5.804688 4.328125 9.800782 6.308594 11.308594 22.855468 17.382813 43.882812 37.25 62.550781 59.074219-.199219.476563-.3125 1.003906-.3125 1.550781v33.515625c-33.007813 0-66.015625-.429687-98.910156-1.285156zm247.679687-20.738281c-.875 6.621094-2.097656 13.363281-6.464844 16.71875-3.382812 2.601562-8.304687 2.96875-13.917968 3.160156-6.566406.21875-13.144532.417969-19.726563.609375 3.914063-26.992187 6.902344-54.421875 8.871094-81.601563.160156-2.21875-1.507813-4.148437-3.730469-4.3125-2.222656-.15625-4.148437 1.511719-4.3125 3.730469-1.988281 27.449219-5.023437 55.160157-9.003906 82.402344-30.726562.808594-61.566406 1.246094-92.421875 1.3125v-31.296875l69.675781-59.820312c.972656-.832032 1.488282-2.082032 1.394532-3.359376-.097657-1.273437-.792969-2.433593-1.878907-3.113281-6.105469-3.835937-11.796875-8.300781-16.972656-13.316406l33.578125-14.484375c1.902344-.820312 2.871094-2.945312 2.246094-4.917969-4.976563-15.699219-11.789063-30.636719-20.304688-44.617187 5.054688 3.957031 10.289063 7.636718 15.4375 11.242187 3.664063 2.566407 7.453125 5.222657 11.074219 7.910157 22.515625 16.734374 36.917969 34.070312 44.035156 53.003906 9.683594 25.765625 5.824219 54.976562 2.421875 80.75zm1.882813-91.167969c-.898438-1.867187-1.886719-3.714844-2.921875-5.554687 2.207031.203124 4.410156.46875 6.601562.800781zm0 0"/><path d="m231.226562 430.914062c-5.25-.625-10.714843 1.28125-15.378906 5.355469-5.242187 4.582031-8.566406 11.203125-8.667968 17.277344-.1875 11.1875 9.054687 21.417969 20.183593 22.34375.558594.042969 1.113281.066406 1.667969.066406 10.597656 0 20.386719-8.308593 21.824219-18.890625.765625-5.605468-1.214844-12.097656-5.289063-17.359375-3.847656-4.964843-9.074218-8.171875-14.339844-8.792969zm11.640626 25.066407c-.921876 6.78125-7.984376 12.445312-14.835938 11.875-6.929688-.578125-12.90625-7.199219-12.789062-14.171875.066406-3.808594 2.386718-8.257813 5.914062-11.34375 2.921875-2.554688 6.164062-3.765625 9.125-3.417969 3.128906.367187 6.378906 2.453125 8.910156 5.726563 2.738282 3.53125 4.144532 7.875 3.675782 11.332031zm0 0"/><path d="m82.015625 419.089844c-7.394531 2.023437-11.976563 8.347656-11.957031 16.507812.027344 10.9375 7.238281 18.585938 14.34375 20.492188 1.582031.421875 3.203125.628906 4.8125.628906 6.644531 0 13.15625-3.472656 16.617187-9.234375 3.988281-6.640625 3.570313-14.300781-1.121093-20.492187-5.292969-6.988282-14.414063-10.167969-22.695313-7.902344zm16.90625 24.242187c-2.40625 4.011719-7.867187 6.191407-12.429687 4.96875-5.222657-1.398437-8.355469-7.566406-8.367188-12.722656-.007812-2.636719.765625-7.273437 6.015625-8.710937 1.054687-.285157 2.140625-.425782 3.230469-.425782 4.140625 0 8.324218 2 10.914062 5.421875 1.570313 2.070313 3.738282 6.3125.636719 11.46875zm0 0"/></svg>