<?xml version="1.0" encoding="iso-8859-1"?>
<!-- Generator: Adobe Illustrator 19.0.0, SVG Export Plug-In . SVG Version: 6.00 Build 0)  -->
<svg version="1.1" id="Capa_1" xmlns="http://www.w3.org/2000/svg" xmlns:xlink="http://www.w3.org/1999/xlink" x="0px" y="0px"
	 viewBox="0 0 512 512" style="enable-background:new 0 0 512 512;" xml:space="preserve">
<g>
	<rect x="420.571" y="297.796" style="fill:#9A4C00;" width="41.796" height="104.49"/>
	<rect x="49.633" y="297.796" style="fill:#9A4C00;" width="41.796" height="104.49"/>
	<polyline style="fill:#9A4C00;" points="451.918,130.612 451.918,109.714 431.02,109.714 431.02,130.612 	"/>
	<polyline style="fill:#9A4C00;" points="80.98,256 80.98,224.653 60.082,224.653 60.082,256 	"/>
	<polyline style="fill:#9A4C00;" points="80.98,130.612 80.98,109.714 60.082,109.714 60.082,130.612 	"/>
	<polyline style="fill:#9A4C00;" points="80.98,193.306 80.98,161.959 60.082,161.959 60.082,193.306 	"/>
	<polyline style="fill:#9A4C00;" points="451.918,256 451.918,224.653 431.02,224.653 431.02,256 	"/>
	<polyline style="fill:#9A4C00;" points="451.918,193.306 451.918,161.959 431.02,161.959 431.02,193.306 	"/>
</g>
<g>
	<rect x="36.571" y="130.612" style="fill:#CC7400;" width="438.857" height="31.347"/>
	<rect x="36.571" y="193.306" style="fill:#CC7400;" width="438.857" height="31.347"/>
	<rect x="7.837" y="256" style="fill:#CC7400;" width="496.327" height="41.796"/>
</g>
<g>
	<rect x="47.02" y="269.061" style="fill:#FFFFFF;" width="15.673" height="15.673"/>
	<rect x="78.367" y="269.061" style="fill:#FFFFFF;" width="15.673" height="15.673"/>
</g>
<rect x="373.551" y="269.061" width="73.143" height="15.673"/>
<rect x="462.367" y="269.061" width="15.673" height="15.673"/>
<path d="M512,248.163h-52.245V232.49h23.51v-47.02h-23.51v-15.673h23.51v-47.02h-23.51v-20.898h-36.571v20.898H88.816v-20.898
	H52.245v20.898h-23.51v47.02h23.51v15.673h-23.51v47.02h23.51v15.673H0v57.469h41.796v104.49h57.469v-104.49h313.469v104.49h57.469
	v-104.49H512V248.163z M444.082,248.163h-5.224V232.49h5.224V248.163z M423.184,232.49v15.673H88.816V232.49H423.184z
	 M444.082,185.469h-5.224v-15.673h5.224V185.469z M423.184,169.796v15.673H88.816v-15.673H423.184z M438.857,117.551h5.224v5.224
	h-5.224V117.551z M67.918,117.551h5.224v5.224h-5.224V117.551z M44.408,138.449h423.184v15.673H44.408V138.449z M67.918,169.796
	h5.224v15.673h-5.224V169.796z M44.408,201.143h423.184v15.673H44.408V201.143z M67.918,232.49h5.224v15.673h-5.224V232.49z
	 M83.592,394.449H57.469v-88.816h26.122V394.449z M454.531,394.449h-26.122v-88.816h26.122V394.449z M496.327,289.959H15.673
	v-26.122h480.653V289.959z"/>
<g>
</g>
<g>
</g>
<g>
</g>
<g>
</g>
<g>
</g>
<g>
</g>
<g>
</g>
<g>
</g>
<g>
</g>
<g>
</g>
<g>
</g>
<g>
</g>
<g>
</g>
<g>
</g>
<g>
</g>
</svg>
