<?xml version="1.0" encoding="iso-8859-1"?>
<!-- Generator: Adobe Illustrator 19.0.0, SVG Export Plug-In . SVG Version: 6.00 Build 0)  -->
<svg version="1.1" id="Capa_1" xmlns="http://www.w3.org/2000/svg" xmlns:xlink="http://www.w3.org/1999/xlink" x="0px" y="0px"
	 viewBox="0 0 512.001 512.001" style="enable-background:new 0 0 512.001 512.001;" xml:space="preserve">
<rect id="SVGCleanerId_0" x="178.765" y="173.905" style="fill:#B5D3E3;" width="153.335" height="49.198"/>
<polygon style="fill:#B5D3E3;" points="395.184,295.781 332.262,174.008 283.162,199.379 346.084,321.152 358.206,284.415 
	394.828,296.807 "/>
<path style="fill:#FFCEBF;" d="M255.433,333.449L255.433,333.449c-36.558,0-69.45-28.645-73.478-67.349l-10.27-98.666
	c-5.929-56.96,31.393-109.932,83.747-109.932l0,0c52.354,0,89.676,52.971,83.747,109.932l-10.27,98.666
	C324.883,304.803,291.99,333.449,255.433,333.449z"/>
<g>
	<rect id="SVGCleanerId_0_1_" x="178.765" y="173.905" style="fill:#B5D3E3;" width="153.335" height="49.198"/>
</g>
<path style="fill:#FFBEAA;" d="M212.502,266.101l-10.194-98.666c-5.301-51.307,24.233-99.371,68.125-108.407
	c-4.836-0.996-9.844-1.525-15.001-1.525l0,0c-51.965,0-89.01,52.971-83.125,109.932l10.194,98.666
	c3.999,38.704,36.647,67.349,72.933,67.349l0,0c5.097,0,10.117-0.584,15.001-1.663C240.547,325.185,215.938,299.368,212.502,266.101
	z"/>
<polygon style="fill:#8ABBD5;" points="202.977,173.91 178.768,173.91 178.768,223.108 208.06,223.108 "/>
<path style="fill:#FFCD6B;" d="M339.172,155.529c0,3.94-0.2,7.92-0.61,11.91l-0.08,0.78l-1.37,13.2l-21.809-39.259
	c-30.939,3.52-63.128-3.81-89.257-20.829c3.35,11.75,7.77,23.199,13.17,34.159c-15.339,0.4-30.749-2.77-44.749-9.04l-20.829,33.879
	l-1.25-12.11l-0.08-0.78c-5.88-56.968,31.159-109.936,83.127-109.936C303.764,57.503,339.172,103.301,339.172,155.529z"/>
<path style="fill:#FFB64C;" d="M270.444,59.026c-4.839-0.997-9.851-1.523-15.01-1.523c-51.968,0-89.007,52.968-83.127,109.936
	l0.08,0.78l1.25,12.11l20.829-33.879c2.424,1.086,4.894,2.072,7.395,2.969C204.204,105.292,231.739,66.987,270.444,59.026z"/>
<path style="fill:#EC5569;" d="M127.012,21.99L127.012,21.99c-16.542-9.551-37.696-3.883-47.246,12.66l-5.395,9.345
	c-1.286,2.228-4.136,2.992-6.364,1.705l-9.195-5.309C42.27,30.84,21.117,36.507,11.566,53.05l0,0
	c-9.551,16.542-3.883,37.696,12.66,47.246l69.107,39.899c2.228,1.286,5.077,0.523,6.364-1.705l39.976-69.254
	C149.223,52.693,143.555,31.541,127.012,21.99z"/>
<path style="fill:#E63950;" d="M109.696,108.489c-1.286,2.228-4.136,2.992-6.364,1.705L34.225,70.295
	c-9.444-5.452-15.335-14.687-16.883-24.684c-2.204,2.156-4.16,4.637-5.777,7.438l0,0c-9.551,16.542-3.883,37.696,12.66,47.246
	l69.107,39.899c2.228,1.286,5.078,0.523,6.364-1.705l39.976-69.254c3.715-6.436,5.118-13.567,4.483-20.443L109.696,108.489z"/>
<path style="fill:#FFCD6B;" d="M72.975,232.796c0,17.189,25.784,42.974,42.974,42.974c-17.189,0-42.974,25.784-42.974,42.974
	c0-17.189-25.784-42.974-42.974-42.974C47.192,275.769,72.975,249.985,72.975,232.796z"/>
<path style="fill:#FFB64C;" d="M56.296,289.298c12.037-5.281,24.928-18.172,30.209-30.208c-9.807-8.92-13.529-16.888-13.529-26.293
	c0,17.189-25.784,42.974-42.974,42.974C39.407,275.769,47.376,279.491,56.296,289.298z"/>
<path style="fill:#3F7196;" d="M469.646,481.749v14.299H341.9V342.023v-0.04c46.058,4.09,85.727,30.439,108.156,68.218l11.15,23.519
	C466.666,448.71,469.646,464.879,469.646,481.749z"/>
<path style="fill:#FFCD6B;" d="M341.9,342.023v154.025h-61.248V389.332c21.129-6.87,37.719-22.839,37.719-47.908h10.95
	c4.24,0,8.43,0.19,12.58,0.56V342.023z"/>
<path style="fill:#3F7196;" d="M280.652,389.332v106.716H41.22v-14.299c0-77.497,62.828-140.325,140.315-140.325h10.96
	C192.495,385.412,243.574,401.381,280.652,389.332z"/>
<path style="fill:#005F80;" d="M192.518,342.711c-0.01-0.428-0.023-0.854-0.023-1.288h-10.96
	c-77.487,0-140.315,62.828-140.315,140.325v14.299h30.001v-14.299C71.221,410.704,124.026,351.996,192.518,342.711z"/>
<path d="M280.652,393.081v-3.749c-3.309,1.076-6.731,1.923-10.217,2.553"/>
<path style="fill:#FFDFCF;" d="M338.48,168.219c16.729,1.53,22.899,22.599,17.619,41.169c-4.69,16.539-14.31,27.039-24.669,27.429
	h-0.04l1.41-13.64l4.31-41.759L338.48,168.219z"/>
<path style="fill:#FFBEAA;" d="M318.371,296.615v44.809c0,25.069-16.589,41.039-37.719,47.908
	c-37.079,12.05-88.157-3.92-88.157-47.908v-44.798l0.01-0.01c13.12,22.329,37.099,36.839,62.928,36.839s49.818-14.52,62.928-36.849
	L318.371,296.615z"/>
<path style="fill:#FFA78F;" d="M222.496,341.423v-16.191c-12.28-6.438-22.778-16.341-29.991-28.617l-0.01,0.01v44.798
	c0,40.063,42.368,56.88,77.94,50.461C244.688,387.236,222.496,370.418,222.496,341.423z"/>
<path style="fill:#F5E0BC;" d="M178.066,223.177l1.41,13.64c-10.37-0.39-19.979-10.89-24.679-27.429
	c-5.27-18.569,0.86-39.639,17.589-41.169l1.25,12.11L178.066,223.177z"/>
<path style="fill:#FFBEAA;" d="M178.066,223.177l1.41,13.64c-10.37-0.39-19.979-10.89-24.679-27.429
	c-5.27-18.569,0.86-39.639,17.589-41.169l1.25,12.11L178.066,223.177z"/>
<path style="fill:#FFCD6B;" d="M469.548,24.022c0,13.758,20.636,34.393,34.393,34.393c-13.758,0-34.393,20.636-34.393,34.393
	c0-13.758-20.636-34.393-34.393-34.393C448.912,58.416,469.548,37.779,469.548,24.022z"/>
<path style="fill:#EC5569;" d="M480.327,187.422L480.327,187.422c-5.172-8.958-16.626-12.027-25.584-6.855l-5.06,2.921
	c-1.207,0.697-2.749,0.283-3.446-0.923l-2.875-4.979c-5.172-8.958-16.626-12.027-25.584-6.855l0,0
	c-8.958,5.172-12.027,16.626-6.855,25.584l21.605,37.421c0.697,1.207,2.239,1.62,3.446,0.923l37.497-21.653
	C482.429,207.835,485.499,196.38,480.327,187.422z"/>
<path d="M228.444,267.385c9.012,5.51,18.28,8.265,27.548,8.265c9.269,0,18.537-2.755,27.549-8.265
	c3.534-2.161,4.647-6.777,2.486-10.311c-2.16-3.533-6.776-4.647-10.311-2.486c-13.272,8.116-26.175,8.116-39.448,0
	c-3.534-2.161-8.15-1.047-10.311,2.486C223.797,260.608,224.91,265.224,228.444,267.385z"/>
<path d="M459.205,425.965c-3.892,1.417-5.898,5.722-4.481,9.614c5.295,14.539,7.98,29.832,7.98,45.456v6.798h-62.953V420.53
	c0-4.142-3.358-7.5-7.5-7.5c-4.142,0-7.5,3.358-7.5,7.5v67.303h-34.788V349.754c16.406,2.501,32.246,8.034,46.609,16.39
	c19.575,11.389,36.035,27.702,47.599,47.176c1.402,2.361,3.896,3.672,6.456,3.672c1.302,0,2.621-0.339,3.822-1.052
	c3.562-2.115,4.734-6.717,2.619-10.278c-12.866-21.665-31.176-39.814-52.953-52.483c-22.449-13.061-48.118-19.964-74.232-19.964
	h-3.458v-35.512c0.005-0.008,0.009-0.017,0.013-0.025l13.54,26.203c1.294,2.505,3.874,4.057,6.661,4.057
	c0.197,0,0.396-0.008,0.595-0.023c3.01-0.239,5.583-2.259,6.529-5.126l9.755-29.561l29.463,9.97
	c3.902,1.321,8.137-0.752,9.488-4.643l0.356-1.026c0.675-1.943,0.522-4.077-0.421-5.904l-39.769-76.964
	c0.442-1.28,0.858-2.591,1.241-3.939c4.008-14.108,2.269-29.035-4.54-38.959c-3.239-4.721-7.421-8.104-12.31-10.018
	c1.718-31.057-8.543-61.899-27.998-83.467C302.168,59.585,279.78,49.29,255.99,49.29s-46.176,10.295-63.039,28.989
	c-19.455,21.568-29.717,52.41-27.998,83.468c-4.88,1.911-9.054,5.288-12.285,9.999c-6.804,9.918-8.538,24.853-4.524,38.978
	c4.701,16.547,13.96,28.067,24.999,31.683l2.454,23.753c1.173,11.35,4.674,22.018,9.958,31.544v35.513h-3.457
	c-81.508,0-147.819,66.312-147.819,147.819v14.298c0,4.142,3.358,7.5,7.5,7.5h239.106c0.108,0.005,0.215,0.016,0.324,0.016
	c0.109,0,0.216-0.012,0.324-0.016h60.605c0.108,0.005,0.215,0.016,0.324,0.016s0.216-0.012,0.324-0.016h49.139
	c0.108,0.005,0.215,0.016,0.324,0.016c0.109,0,0.216-0.012,0.324-0.016h77.628c4.142,0,7.5-3.358,7.5-7.5v-14.298
	c0-17.379-2.99-34.4-8.886-50.589C467.401,426.554,463.095,424.547,459.205,425.965z M329.886,348.215
	c1.696,0,3.389,0.042,5.08,0.106v139.511h-46.254v-93.97c5.432-2.201,10.476-4.958,14.978-8.251
	c12.816-9.375,20.411-22.202,22.273-37.397H329.886z M200.557,317.28c14.642,14.203,34.297,22.957,55.435,22.957
	s40.794-8.754,55.435-22.957v23.435c0,30.431-28.736,44.292-55.436,44.292c-26.699,0-55.435-13.861-55.435-44.292L200.557,317.28
	L200.557,317.28z M198.139,154.987c13.345,4.937,27.259,7.527,41.639,7.286c5.983-0.1,8.947-6.218,6.476-11.285
	c-2.328-4.773-4.438-9.625-6.362-14.548c22.342,10.312,47.258,14.798,71.847,12.879c3.133,5.46,6.265,10.919,9.397,16.378h-9.032
	c-1.463-3.335-5.173-5.199-8.799-4.227l-15.774,4.227h-95.974C193.75,162.128,195.945,158.558,198.139,154.987z M181.922,181.378
	c0.139-0.227,0.278-0.453,0.418-0.68h106.15c0.008,0,0.016,0.002,0.024,0.002c0.01,0,0.02-0.002,0.03-0.002h41.198
	c0.112,0.194,0.223,0.389,0.335,0.583l-3.473,33.616H185.384L181.922,181.378z M242.684,229.897v2.031c0,4.142,3.358,7.5,7.5,7.5
	c4.142,0,7.5-3.358,7.5-7.5v-2.031h67.37l-3.587,34.722c-3.512,33.993-32.27,60.62-65.472,60.62s-61.96-26.627-65.472-60.62
	l-3.587-34.722L242.684,229.897L242.684,229.897z M381.273,283.402l-20.103-6.803c-1.893-0.641-3.963-0.5-5.753,0.394
	c-1.789,0.893-3.147,2.462-3.773,4.361l-6.53,19.789l-11.232-21.736c1.175-4.291,2.034-8.711,2.503-13.247l2.453-23.738
	c5.706-1.858,10.939-5.825,15.312-11.51L381.273,283.402z M349.45,206.625c-2.029,7.142-5.125,13.031-8.662,16.914l0.038-0.365
	c0.001-0.007,0.001-0.013,0.002-0.02l4.393-42.524c0.041-0.25,0.068-0.504,0.079-0.762l0.152-1.474
	c0.533,0.555,1.042,1.165,1.518,1.857C351.189,186.398,352.185,196.998,349.45,206.625z M204.093,88.327
	c13.981-15.499,32.413-24.036,51.9-24.036s37.92,8.536,51.9,24.036c15.567,17.258,24.312,41.525,24.328,66.552
	c-3.293-5.74-6.586-11.48-9.88-17.218c-1.204-2.099-3.945-3.987-6.476-3.715c-30.013,3.227-60.025-3.464-85.473-19.797
	c-5.538-3.554-12.799,2.329-11.018,8.47c2.388,8.231,5.273,16.288,8.593,24.173c-10.027-0.987-19.857-3.463-29.162-7.529
	c-3.781-1.652-7.937-1.091-10.261,2.691c-2.923,4.756-5.846,9.512-8.769,14.269C179.476,130.721,188.247,105.893,204.093,88.327z
	 M162.576,206.625c-2.74-9.644-1.75-20.25,2.465-26.393c0.468-0.682,0.969-1.282,1.494-1.83l0.07,0.677
	c-0.075,0.84,0.017,1.647,0.248,2.404l4.305,41.672c0.001,0.007,0.001,0.013,0.002,0.02l0.032,0.312
	C167.674,219.601,164.596,213.735,162.576,206.625z M49.281,481.036c0-73.238,59.582-132.82,132.82-132.82h3.922
	c1.862,15.194,9.458,28.022,22.273,37.397c12.69,9.283,29.628,14.395,47.695,14.395c6.076,0,12.018-0.591,17.719-1.712v89.538
	H127.256v-67.319c0-4.142-3.358-7.5-7.5-7.5s-7.5,3.358-7.5,7.5v67.319H49.281V481.036z"/>
<path d="M255.993,287.522c-4.142,0-7.5,3.358-7.5,7.5v10.311c0,4.142,3.358,7.5,7.5,7.5c4.142,0,7.5-3.358,7.5-7.5v-10.311
	C263.493,290.88,260.135,287.522,255.993,287.522z"/>
<path d="M487.381,182.96c-7.231-12.525-23.305-16.832-35.829-9.6l-0.75,0.433l-0.386-0.668c-3.503-6.067-9.159-10.408-15.925-12.221
	c-6.766-1.813-13.835-0.883-19.902,2.62c-12.525,7.231-16.831,23.303-9.601,35.829l21.605,37.422c1.338,2.318,3.5,3.976,6.085,4.669
	c0.863,0.231,1.74,0.346,2.61,0.346c1.737,0,3.451-0.456,4.996-1.347l37.497-21.653C490.306,211.559,494.612,195.486,487.381,182.96
	L487.381,182.96z M470.281,205.8l-33.187,19.163l-19.116-33.11c-3.096-5.362-1.252-12.244,4.11-15.339
	c1.73-0.999,3.65-1.509,5.596-1.509c0.976,0,1.958,0.128,2.925,0.387c2.897,0.776,5.318,2.635,6.818,5.233l2.874,4.977
	c1.338,2.319,3.5,3.978,6.086,4.671c2.584,0.693,5.288,0.338,7.605-1.001l5.06-2.921c5.362-3.095,12.243-1.252,15.339,4.111l0,0
	C477.487,195.823,475.644,202.704,470.281,205.8z"/>
<path d="M44.024,110.692c2.071-3.587,0.842-8.174-2.745-10.245l-12.744-7.358c-12.935-7.468-17.382-24.067-9.915-37.002
	c7.467-12.936,24.066-17.382,37.002-9.915l9.195,5.309c5.806,3.352,13.257,1.356,16.608-4.45l5.395-9.345
	c7.468-12.936,24.065-17.382,37.002-9.915c6.266,3.618,10.748,9.459,12.621,16.447c1.873,6.989,0.912,14.289-2.707,20.554
	L95.18,131.567l-32.284-18.638c-3.587-2.072-8.174-0.842-10.245,2.745c-2.071,3.587-0.842,8.174,2.745,10.245l34.745,20.059
	c1.874,1.082,3.953,1.634,6.06,1.634c1.056,0,2.119-0.139,3.167-0.42c3.138-0.841,5.76-2.853,7.383-5.666l39.976-69.253
	c5.621-9.736,7.114-21.077,4.205-31.936c-2.91-10.859-9.874-19.934-19.609-25.555c-20.098-11.604-45.888-4.693-57.491,15.404
	l-3.975,6.884l-6.734-3.888C43.024,21.58,17.233,28.491,5.63,48.588c-11.604,20.097-4.693,45.887,15.404,57.491l12.744,7.357
	C37.365,115.508,41.952,114.279,44.024,110.692z"/>
<path d="M66.036,318.031c0,4.142,3.358,7.5,7.5,7.5s7.5-3.358,7.5-7.5c0-12.93,22.543-35.474,35.474-35.474
	c4.142,0,7.5-3.358,7.5-7.5c0-4.142-3.358-7.5-7.5-7.5c-12.93,0-35.474-22.544-35.474-35.474c0-4.142-3.358-7.5-7.5-7.5
	s-7.5,3.358-7.5,7.5c0,12.93-22.544,35.474-35.474,35.474c-4.142,0-7.5,3.358-7.5,7.5c0,4.142,3.358,7.5,7.5,7.5
	C43.492,282.557,66.036,305.101,66.036,318.031z M73.536,253.302c5.464,8.399,13.356,16.29,21.754,21.755
	c-8.399,5.464-16.29,13.357-21.754,21.755c-5.464-8.399-13.356-16.29-21.755-21.755C60.18,269.594,68.071,261.701,73.536,253.302z"
	/>
<path d="M504.501,50.204c-9.551,0-26.894-17.342-26.894-26.893c0-4.142-3.358-7.5-7.5-7.5c-4.142,0-7.5,3.358-7.5,7.5
	c0,9.551-17.342,26.893-26.893,26.893c-4.142,0-7.5,3.358-7.5,7.5s3.358,7.5,7.5,7.5c9.551,0,26.893,17.342,26.893,26.893
	c0,4.142,3.358,7.5,7.5,7.5c4.142,0,7.5-3.358,7.5-7.5c0-9.551,17.342-26.893,26.894-26.893c4.142,0,7.5-3.358,7.5-7.5
	S508.643,50.204,504.501,50.204z M470.108,72.306c-3.922-5.544-9.059-10.68-14.603-14.603c5.544-3.922,10.68-9.059,14.603-14.603
	c3.922,5.544,9.059,10.68,14.603,14.603C479.166,61.626,474.03,66.762,470.108,72.306z"/>
<path d="M318.761,454.663c-0.19-0.46-0.42-0.89-0.69-1.3c-0.27-0.41-0.58-0.79-0.93-1.14c-0.35-0.34-0.73-0.66-1.14-0.93
	c-0.41-0.27-0.84-0.5-1.3-0.69c-0.45-0.19-0.92-0.33-1.4-0.43c-2.43-0.49-5.03,0.31-6.77,2.05c-0.34,0.35-0.66,0.73-0.93,1.14
	c-0.27,0.41-0.5,0.84-0.69,1.3c-0.19,0.45-0.33,0.92-0.43,1.4c-0.09,0.48-0.14,0.98-0.14,1.46c0,1.98,0.8,3.91,2.19,5.31
	c1.4,1.39,3.33,2.19,5.31,2.19c0.48,0,0.98-0.04,1.46-0.14c0.48-0.1,0.95-0.24,1.4-0.43c0.46-0.19,0.89-0.42,1.3-0.69
	c0.41-0.27,0.79-0.59,1.14-0.93c1.4-1.4,2.2-3.33,2.2-5.31c0-0.48-0.05-0.98-0.15-1.46S318.951,455.113,318.761,454.663z"/>
<path d="M318.761,419.915c-0.19-0.46-0.42-0.89-0.69-1.3c-0.27-0.41-0.58-0.79-0.93-1.14c-0.35-0.34-0.73-0.66-1.14-0.93
	c-0.41-0.27-0.84-0.5-1.3-0.69c-0.45-0.19-0.92-0.33-1.4-0.43c-2.43-0.49-5.03,0.31-6.77,2.05c-0.34,0.35-0.66,0.73-0.93,1.14
	c-0.27,0.41-0.5,0.84-0.69,1.3c-0.19,0.45-0.33,0.92-0.43,1.4c-0.09,0.48-0.14,0.98-0.14,1.46c0,1.98,0.8,3.91,2.19,5.31
	c1.4,1.39,3.33,2.19,5.31,2.19c0.48,0,0.98-0.05,1.46-0.14c0.48-0.1,0.95-0.24,1.4-0.43c0.46-0.19,0.89-0.42,1.3-0.69
	c0.41-0.27,0.79-0.59,1.14-0.93c0.35-0.35,0.66-0.73,0.93-1.14c0.27-0.41,0.5-0.84,0.69-1.3c0.19-0.45,0.33-0.92,0.43-1.4
	c0.1-0.48,0.15-0.98,0.15-1.47c0-0.48-0.05-0.98-0.15-1.46C319.091,420.835,318.951,420.365,318.761,419.915z"/>
<g>
</g>
<g>
</g>
<g>
</g>
<g>
</g>
<g>
</g>
<g>
</g>
<g>
</g>
<g>
</g>
<g>
</g>
<g>
</g>
<g>
</g>
<g>
</g>
<g>
</g>
<g>
</g>
<g>
</g>
</svg>
