<?xml version="1.0" encoding="iso-8859-1"?>
<!-- Generator: Adobe Illustrator 19.0.0, SVG Export Plug-In . SVG Version: 6.00 Build 0)  -->
<svg version="1.1" id="Capa_1" xmlns="http://www.w3.org/2000/svg" xmlns:xlink="http://www.w3.org/1999/xlink" x="0px" y="0px"
	 viewBox="0 0 512 512" style="enable-background:new 0 0 512 512;" xml:space="preserve">
<path id="SVGCleanerId_0" d="M106.67,512h256c4.71,0,8.533-3.823,8.533-8.533c0-1.126-0.222-2.244-0.657-3.285l-42.01-100.821V358.4
	c0-2.944-1.519-5.675-4.011-7.236l-64.256-40.166V25.6c0-14.14-11.46-25.6-25.6-25.6c-14.14,0-25.6,11.46-25.6,25.6v285.397
	l-64.256,40.166c-2.492,1.562-4.011,4.292-4.011,7.236v42.667c0.051,0.555,0.162,1.101,0.333,1.638l-42.291,97.348
	c-1.886,4.318,0.085,9.353,4.412,11.238C104.332,511.761,105.501,512,106.67,512z M226.137,25.6c0-4.71,3.823-8.533,8.533-8.533
	c4.71,0,8.533,3.823,8.533,8.533v247.467h-17.067V25.6z M226.137,290.133h17.067V307.2h-17.067V290.133z M157.87,363.128
	l62.182-38.861h29.235l62.182,38.861v29.406h-153.6V363.128z M156.744,409.6h157.568l35.558,85.333h-23.723l-15.121-45.363
	c-1.493-4.48-6.323-6.903-10.803-5.41c-4.48,1.493-6.903,6.323-5.41,10.803l0,0l13.355,39.97h-24.687L268.36,449.57
	c-1.493-4.48-6.323-6.903-10.803-5.41c-4.48,1.493-6.903,6.323-5.41,10.803l0,0l13.355,39.97h-61.662l13.321-39.97
	c1.493-4.48-0.93-9.31-5.41-10.803c-4.48-1.493-9.31,0.93-10.803,5.41l0,0l-15.087,45.363h-24.687l13.321-39.97
	c1.493-4.48-0.93-9.31-5.41-10.803c-4.48-1.493-9.31,0.93-10.803,5.41l0,0l-15.087,45.363h-23.518L156.744,409.6z"/>
<path id="SVGCleanerId_1" d="M311.47,298.667h8.533v8.533c0,4.71,3.823,8.533,8.533,8.533s8.533-3.823,8.533-8.533v-8.533h8.533
	c4.71,0,8.533-3.823,8.533-8.533c0-4.71-3.823-8.533-8.533-8.533h-8.533v-8.533c0-4.71-3.823-8.533-8.533-8.533
	s-8.533,3.823-8.533,8.533v8.533h-8.533c-4.71,0-8.533,3.823-8.533,8.533C302.937,294.844,306.76,298.667,311.47,298.667z"/>
<path id="SVGCleanerId_2" d="M371.204,341.333h8.533v8.533c0,4.71,3.823,8.533,8.533,8.533s8.533-3.823,8.533-8.533v-8.533h8.533
	c4.71,0,8.533-3.823,8.533-8.533s-3.823-8.533-8.533-8.533h-8.533v-8.533c0-4.71-3.823-8.533-8.533-8.533s-8.533,3.823-8.533,8.533
	v8.533h-8.533c-4.71,0-8.533,3.823-8.533,8.533S366.493,341.333,371.204,341.333z"/>
<path id="SVGCleanerId_3" d="M260.27,358.4h-51.2c-4.71,0-8.533,3.823-8.533,8.533s3.823,8.533,8.533,8.533h51.2
	c4.71,0,8.533-3.823,8.533-8.533S264.989,358.4,260.27,358.4z"/>
<path style="fill:#F3AF3E;" d="M362.67,512h-256c-4.71,0-8.533-3.814-8.533-8.533c0-1.178,0.239-2.338,0.708-3.413l44.476-102.4
	c1.357-3.115,4.429-5.12,7.825-5.12h168.858c3.447,0,6.554,2.074,7.876,5.248l42.667,102.4c1.818,4.352-0.239,9.344-4.591,11.162
	C364.914,511.778,363.805,512,362.67,512z"/>
<g>
	<path style="fill:#EA9D2D;" d="M149.337,512c-4.71,0-8.533-3.823-8.525-8.542c0-0.913,0.145-1.826,0.435-2.688l17.067-51.2
		c1.493-4.48,6.323-6.903,10.803-5.41c4.48,1.493,6.903,6.323,5.41,10.803l-17.067,51.2C156.3,509.662,153.023,512.009,149.337,512z
		"/>
	<path style="fill:#EA9D2D;" d="M192.004,512c-4.71,0-8.533-3.823-8.525-8.542c0-0.913,0.145-1.826,0.435-2.688l17.067-51.2
		c1.493-4.48,6.323-6.903,10.803-5.41c4.48,1.493,6.903,6.323,5.41,10.803l-17.067,51.2C198.967,509.662,195.69,512.009,192.004,512
		z"/>
	<path style="fill:#EA9D2D;" d="M320.004,512c-3.669,0-6.929-2.355-8.09-5.837l-17.067-51.2c-1.493-4.48,0.93-9.31,5.41-10.803
		c4.48-1.493,9.31,0.93,10.803,5.41l17.067,51.2c1.493,4.471-0.93,9.301-5.402,10.795C321.855,511.855,320.934,512,320.004,512z"/>
	<path style="fill:#EA9D2D;" d="M277.337,512c-3.669,0-6.929-2.355-8.09-5.837l-17.067-51.2c-1.493-4.48,0.93-9.31,5.41-10.803
		c4.48-1.493,9.31,0.93,10.803,5.41l17.067,51.2c1.493,4.471-0.93,9.301-5.402,10.795C279.189,511.855,278.267,512,277.337,512z"/>
</g>
<path style="fill:#8F563B;" d="M234.67,8.533L234.67,8.533c9.429,0,17.067,7.637,17.067,17.067v290.133l0,0h-34.133l0,0V25.6
	C217.604,16.171,225.249,8.533,234.67,8.533z"/>
<path style="fill:#EA9D2D;" d="M320.004,409.6H149.337c-4.71,0-8.533-3.823-8.533-8.533V358.4c0-2.944,1.519-5.675,4.011-7.236
	l68.267-42.667c1.357-0.845,2.927-1.297,4.523-1.297h34.133c1.596,0,3.166,0.452,4.523,1.297l68.267,42.667
	c2.492,1.562,4.011,4.292,4.011,7.236v42.667C328.537,405.777,324.722,409.6,320.004,409.6z"/>
<g>
	<path style="fill:#FBB540;" d="M328.537,315.733c-4.71,0-8.533-3.823-8.533-8.533v-34.133c0-4.71,3.823-8.533,8.533-8.533
		s8.533,3.823,8.533,8.533V307.2C337.07,311.91,333.256,315.733,328.537,315.733z"/>
	<path style="fill:#FBB540;" d="M345.604,298.667H311.47c-4.71,0-8.533-3.823-8.533-8.533c0-4.71,3.823-8.533,8.533-8.533h34.133
		c4.71,0,8.533,3.823,8.533,8.533C354.137,294.844,350.322,298.667,345.604,298.667z"/>
</g>
<g>
	<path style="fill:#EA9D2D;" d="M388.27,358.4c-4.71,0-8.533-3.823-8.533-8.533v-34.133c0-4.71,3.823-8.533,8.533-8.533
		s8.533,3.823,8.533,8.533v34.133C396.804,354.577,392.989,358.4,388.27,358.4z"/>
	<path style="fill:#EA9D2D;" d="M405.337,341.333h-34.133c-4.71,0-8.533-3.823-8.533-8.533s3.823-8.533,8.533-8.533h34.133
		c4.71,0,8.533,3.823,8.533,8.533S410.056,341.333,405.337,341.333z"/>
</g>
<path style="fill:#D18D28;" d="M260.27,375.467h-51.2c-4.71,0-8.533-3.823-8.533-8.533s3.823-8.533,8.533-8.533h51.2
	c4.71,0,8.533,3.823,8.533,8.533S264.989,375.467,260.27,375.467z"/>
<path style="fill:#DA922A;" d="M256.26,308.497c-1.357-0.845-2.918-1.297-4.523-1.297v-25.6h-34.133v25.6
	c-1.596,0-3.166,0.452-4.523,1.297l-38.144,23.834v0.469h119.467v-0.469L256.26,308.497z"/>
<g>
	<path id="SVGCleanerId_0_1_" d="M106.67,512h256c4.71,0,8.533-3.823,8.533-8.533c0-1.126-0.222-2.244-0.657-3.285l-42.01-100.821
		V358.4c0-2.944-1.519-5.675-4.011-7.236l-64.256-40.166V25.6c0-14.14-11.46-25.6-25.6-25.6c-14.14,0-25.6,11.46-25.6,25.6v285.397
		l-64.256,40.166c-2.492,1.562-4.011,4.292-4.011,7.236v42.667c0.051,0.555,0.162,1.101,0.333,1.638l-42.291,97.348
		c-1.886,4.318,0.085,9.353,4.412,11.238C104.332,511.761,105.501,512,106.67,512z M226.137,25.6c0-4.71,3.823-8.533,8.533-8.533
		c4.71,0,8.533,3.823,8.533,8.533v247.467h-17.067V25.6z M226.137,290.133h17.067V307.2h-17.067V290.133z M157.87,363.128
		l62.182-38.861h29.235l62.182,38.861v29.406h-153.6V363.128z M156.744,409.6h157.568l35.558,85.333h-23.723l-15.121-45.363
		c-1.493-4.48-6.323-6.903-10.803-5.41c-4.48,1.493-6.903,6.323-5.41,10.803l0,0l13.355,39.97h-24.687L268.36,449.57
		c-1.493-4.48-6.323-6.903-10.803-5.41c-4.48,1.493-6.903,6.323-5.41,10.803l0,0l13.355,39.97h-61.662l13.321-39.97
		c1.493-4.48-0.93-9.31-5.41-10.803c-4.48-1.493-9.31,0.93-10.803,5.41l0,0l-15.087,45.363h-24.687l13.321-39.97
		c1.493-4.48-0.93-9.31-5.41-10.803c-4.48-1.493-9.31,0.93-10.803,5.41l0,0l-15.087,45.363h-23.518L156.744,409.6z"/>
</g>
<g>
	<path id="SVGCleanerId_1_1_" d="M311.47,298.667h8.533v8.533c0,4.71,3.823,8.533,8.533,8.533s8.533-3.823,8.533-8.533v-8.533h8.533
		c4.71,0,8.533-3.823,8.533-8.533c0-4.71-3.823-8.533-8.533-8.533h-8.533v-8.533c0-4.71-3.823-8.533-8.533-8.533
		s-8.533,3.823-8.533,8.533v8.533h-8.533c-4.71,0-8.533,3.823-8.533,8.533C302.937,294.844,306.76,298.667,311.47,298.667z"/>
</g>
<g>
	<path id="SVGCleanerId_2_1_" d="M371.204,341.333h8.533v8.533c0,4.71,3.823,8.533,8.533,8.533s8.533-3.823,8.533-8.533v-8.533
		h8.533c4.71,0,8.533-3.823,8.533-8.533s-3.823-8.533-8.533-8.533h-8.533v-8.533c0-4.71-3.823-8.533-8.533-8.533
		s-8.533,3.823-8.533,8.533v8.533h-8.533c-4.71,0-8.533,3.823-8.533,8.533S366.493,341.333,371.204,341.333z"/>
</g>
<g>
	<path id="SVGCleanerId_3_1_" d="M260.27,358.4h-51.2c-4.71,0-8.533,3.823-8.533,8.533s3.823,8.533,8.533,8.533h51.2
		c4.71,0,8.533-3.823,8.533-8.533S264.989,358.4,260.27,358.4z"/>
</g>
<g>
</g>
<g>
</g>
<g>
</g>
<g>
</g>
<g>
</g>
<g>
</g>
<g>
</g>
<g>
</g>
<g>
</g>
<g>
</g>
<g>
</g>
<g>
</g>
<g>
</g>
<g>
</g>
<g>
</g>
</svg>
