<?xml version="1.0" encoding="iso-8859-1"?>
<!-- Generator: Adobe Illustrator 19.0.0, SVG Export Plug-In . SVG Version: 6.00 Build 0)  -->
<svg version="1.1" id="Capa_1" xmlns="http://www.w3.org/2000/svg" xmlns:xlink="http://www.w3.org/1999/xlink" x="0px" y="0px"
	 viewBox="0 0 512 512" style="enable-background:new 0 0 512 512;" xml:space="preserve">
<path style="fill:#168C80;" d="M342.485,160.867c0,0,92.511-67.977,123.419-91.074c19.364-14.47,10.45-39.529-1.56-51.537
	c-15.344-15.344-40.221-15.344-55.565,0L304.326,122.709L342.485,160.867z"/>
<path style="fill:#13776B;" d="M422.415,32.581c13.229-13.229,33.54-15.042,48.723-5.458c-1.99-3.369-4.322-6.396-6.792-8.867
	c-15.344-15.344-40.222-15.344-55.565,0L304.327,122.709l13.979,13.979L422.415,32.581z"/>
<path style="fill:#F7CF69;" d="M354.452,223.577l17.269-17.269c4.476-4.476,4.476-11.733,0-16.21l-67.391-67.391l-25.374,25.374
	L354.452,223.577z"/>
<polygon style="fill:#FFB64C;" points="317.957,137.178 304.328,122.707 278.956,148.081 293.005,162.13 "/>
<path style="fill:#DCE6EB;" d="M399.897,269.022L187.107,481.81c-17.592,17.592-46.114,17.592-63.705,0l-89.088-89.088
	l244.641-244.641L399.897,269.022z"/>
<polygon style="fill:#B5D3E3;" points="49.456,407.578 293.955,163.08 278.956,148.081 34.314,392.722 49.456,407.578 "/>
<path style="fill:#EC5569;" d="M334.996,333.921c0,0-56.735-50.953-82.956-76.233c-6.022-5.806-15.582-5.713-21.497,0.202l0,0
	c-4.509,4.509-11.82,4.509-16.33,0l-17.846-17.847c-33.424-33.424-87.863-34.394-121.534-1.22
	c-33.938,33.438-34.092,88.061-0.461,121.692l139.853,139.853c4.509,4.509,11.82,4.509,16.329,0l140.132-140.156
	c22.444-22.444,29.841-55.567,22.19-84.173L334.996,333.921z"/>
<path style="fill:#E63950;" d="M104.37,360.515c-33.63-33.63-33.477-88.253,0.461-121.692c12.707-12.52,28.374-20.17,44.752-23.055
	c-26.347-4.583-54.357,2.962-74.75,23.055c-33.938,33.438-34.092,88.061-0.461,121.692l139.853,139.853
	c4.509,4.509,11.82,4.509,16.33,0l6.833-6.835L104.37,360.515z"/>
<ellipse style="fill:#FFF5F5;" cx="433.804" cy="47.211" rx="12.321" ry="12.321"/>
<path d="M469.888,13.705C461.05,4.867,449.301,0,436.803,0s-24.248,4.867-33.086,13.705L299.264,118.158
	c-0.003,0.003-0.006,0.007-0.009,0.01l-25.362,25.361l-82.739,82.739c-31.125-22.938-73.989-24.999-106.783-3.738
	c-3.476,2.253-4.466,6.896-2.213,10.372c0.065,0.1,0.138,0.19,0.207,0.286c2.32,3.237,6.79,4.115,10.166,1.927
	c30.861-20.008,72.403-15.391,98.774,10.982l17.847,17.847c3.598,3.598,8.381,5.578,13.468,5.578s9.871-1.981,13.468-5.578
	c3.004-3.006,7.935-3.052,10.989-0.106c26.015,25.082,82.583,75.904,83.151,76.414c2.967,2.663,7.494,2.542,10.314-0.277
	l47.697-47.698c1.983,23.237-6.255,47.027-22.612,63.384L225.493,495.816c-0.765,0.765-1.781,1.186-2.862,1.186
	c-1.081,0-2.097-0.421-2.861-1.186L79.917,355.964c-13.334-13.334-21.402-31.023-22.72-49.807
	c-1.305-18.604,4.051-37.058,15.079-51.961c2.394-3.234,1.793-7.75-1.295-10.265c-0.091-0.074-0.177-0.153-0.273-0.224
	c-3.329-2.464-8.024-1.762-10.488,1.567c-13.152,17.772-19.539,39.766-17.986,61.931c1.263,18.017,7.744,35.181,18.503,49.479
	L29.251,388.17c-2.929,2.929-2.929,7.677,0,10.605l89.088,89.088c10.245,10.244,23.7,15.366,37.156,15.366
	c13.006,0,26.002-4.799,36.108-14.369l17.561,17.561c3.597,3.599,8.379,5.58,13.467,5.58c5.087,0,9.871-1.981,13.468-5.579
	l140.132-140.155c22.259-22.26,31.883-56.031,25.153-87.135l4.055-4.055c2.929-2.929,2.929-7.677,0-10.605l-40.142-40.142
	l11.965-11.965c3.583-3.582,5.555-8.343,5.555-13.408c0-5.064-1.973-9.827-5.554-13.407l-23.059-23.059
	c7.552-5.552,20.47-15.053,35.248-25.935c3.335-2.456,4.047-7.15,1.592-10.485l0,0c-2.456-3.336-7.151-4.049-10.485-1.593
	c-16.053,11.821-29.92,22.017-37.084,27.283l-28.301-28.301l99.149-99.148c6.003-6.006,13.986-9.314,22.478-9.314
	c8.492,0,16.476,3.308,22.479,9.312c5.783,5.783,11.305,15.975,10.605,25.706c-0.428,5.953-3.121,10.704-8.231,14.522
	c-10.59,7.913-29.628,22.003-56.587,41.881c-3.333,2.458-4.043,7.152-1.586,10.485c0,0,0,0,0.001,0.001
	c2.457,3.335,7.152,4.043,10.486,1.586c26.984-19.896,46.05-34.007,56.663-41.938c8.561-6.396,13.476-15.201,14.214-25.461
	C485.958,35.648,477.483,21.3,469.888,13.705z M367.819,198.954c0,1.059-0.413,2.054-1.162,2.803l-11.965,11.965l-64.89-64.891
	l14.766-14.765l32.855,32.855c0.017,0.017,0.036,0.031,0.053,0.048l29.183,29.183C367.406,196.9,367.819,197.896,367.819,198.954z
	 M387.815,271.487l-0.586,0.586l-52.263,52.263c-14.694-13.247-56.33-50.905-77.482-71.297c-8.9-8.582-23.259-8.448-32.005,0.298
	c-1.577,1.577-4.145,1.579-5.724,0l-17.231-17.232l76.67-76.67l70.193,70.194c0.001,0.001,0.002,0.002,0.004,0.003l40.139,40.139
	L387.815,271.487L387.815,271.487z M70.687,367.945l110.311,110.309c-14.707,13.626-37.756,13.3-52.053-0.997l-83.786-83.786
	L70.687,367.945z"/>
<path d="M71.483,394.432c0.1,0.48,0.24,0.95,0.43,1.4c0.19,0.46,0.42,0.89,0.69,1.3c0.27,0.41,0.58,0.79,0.93,1.14
	c0.34,0.34,0.73,0.66,1.141,0.93c0.409,0.27,0.84,0.5,1.289,0.69c0.461,0.19,0.931,0.33,1.41,0.43c0.48,0.1,0.971,0.14,1.46,0.14
	c0.49,0,0.99-0.04,1.471-0.14c0.479-0.1,0.949-0.24,1.399-0.43c0.45-0.19,0.891-0.42,1.3-0.69c0.41-0.27,0.79-0.59,1.141-0.93
	c1.39-1.4,2.189-3.33,2.189-5.309c0-0.48-0.04-0.98-0.14-1.46c-0.1-0.48-0.24-0.95-0.43-1.4c-0.19-0.46-0.42-0.89-0.69-1.3
	c-0.27-0.41-0.59-0.79-0.93-1.14c-0.351-0.34-0.73-0.66-1.141-0.93c-0.409-0.27-0.85-0.5-1.3-0.69c-0.45-0.19-0.92-0.33-1.399-0.43
	c-0.971-0.19-1.971-0.19-2.931,0c-0.479,0.1-0.949,0.24-1.41,0.43c-0.449,0.19-0.88,0.42-1.289,0.69
	c-0.41,0.27-0.801,0.59-1.141,0.93c-0.35,0.35-0.66,0.73-0.93,1.14c-0.271,0.41-0.5,0.84-0.69,1.3c-0.189,0.45-0.33,0.92-0.43,1.4
	s-0.15,0.98-0.15,1.46C71.333,393.452,71.384,393.952,71.483,394.432z"/>
<path d="M434.038,67.783c5.294,0,10.272-2.062,14.016-5.805c3.745-3.743,5.805-8.721,5.805-14.015s-2.062-10.272-5.805-14.015
	c-3.743-3.743-8.722-5.805-14.016-5.805s-10.272,2.062-14.016,5.805l0,0c-7.727,7.728-7.727,20.301,0,28.029
	C423.765,65.721,428.744,67.783,434.038,67.783z M430.628,44.553c0.911-0.911,2.122-1.413,3.41-1.413s2.5,0.501,3.41,1.413
	c0.911,0.911,1.413,2.122,1.413,3.411c0,1.288-0.502,2.499-1.413,3.41c-0.91,0.911-2.122,1.413-3.41,1.413s-2.5-0.501-3.41-1.412
	C428.749,49.492,428.749,46.433,430.628,44.553z"/>
<path d="M347.219,264.431l-23.265,23.238c-2.931,2.927-2.934,7.675-0.007,10.605c1.465,1.466,3.386,2.2,5.306,2.2
	c1.918,0,3.835-0.731,5.299-2.194l23.265-23.238c2.931-2.927,2.934-7.675,0.007-10.605
	C354.897,261.508,350.147,261.505,347.219,264.431z"/>
<g>
</g>
<g>
</g>
<g>
</g>
<g>
</g>
<g>
</g>
<g>
</g>
<g>
</g>
<g>
</g>
<g>
</g>
<g>
</g>
<g>
</g>
<g>
</g>
<g>
</g>
<g>
</g>
<g>
</g>
</svg>
