<?xml version="1.0" encoding="iso-8859-1"?>
<!-- Generator: Adobe Illustrator 19.0.0, SVG Export Plug-In . SVG Version: 6.00 Build 0)  -->
<svg version="1.1" id="Capa_1" xmlns="http://www.w3.org/2000/svg" xmlns:xlink="http://www.w3.org/1999/xlink" x="0px" y="0px"
	 viewBox="0 0 512 512" style="enable-background:new 0 0 512 512;" xml:space="preserve">
<g>
	<g>
		<path d="M477.892,68.267H34.116C15.3,68.267,0,83.567,0,102.383v307.234c0,18.816,15.3,34.116,34.116,34.116h443.767
			c18.816,0,34.116-15.3,34.116-34.108V102.383C512,83.567,496.7,68.267,477.892,68.267z M494.933,409.617
			c0,9.404-7.646,17.05-17.041,17.05H34.116c-9.404,0-17.05-7.646-17.05-17.041V102.383c0-9.404,7.646-17.05,17.05-17.05h443.767
			c9.404,0,17.05,7.646,17.05,17.05V409.617z"/>
	</g>
</g>
<g>
	<g>
		<path d="M443.759,102.4H68.25c-18.816,0-34.116,15.3-34.116,34.116v213.35c0,4.71,3.823,8.533,8.533,8.533h426.667
			c4.71,0,8.533-3.823,8.533-8.533v-213.35C477.867,117.7,462.566,102.4,443.759,102.4z M460.8,341.333H51.2V136.516
			c0-9.404,7.646-17.05,17.05-17.05H443.75c9.404,0,17.05,7.646,17.05,17.05V341.333z"/>
	</g>
</g>
<g>
	<g>
		<path d="M341.333,145.067H170.667c-47.053,0-85.333,38.281-85.333,85.333s38.281,85.333,85.333,85.333h170.667
			c47.053,0,85.333-38.281,85.333-85.333S388.386,145.067,341.333,145.067z M341.333,298.667H170.667
			c-37.641,0-68.267-30.626-68.267-68.267c0-37.641,30.626-68.267,68.267-68.267h170.667c37.641,0,68.267,30.626,68.267,68.267
			C409.6,268.041,378.974,298.667,341.333,298.667z"/>
	</g>
</g>
<g>
	<g>
		<path d="M170.667,179.2c-28.228,0-51.2,22.963-51.2,51.2c0,28.237,22.972,51.2,51.2,51.2s51.2-22.963,51.2-51.2
			C221.867,202.163,198.895,179.2,170.667,179.2z M170.667,264.533c-18.825,0-34.133-15.309-34.133-34.133
			s15.309-34.133,34.133-34.133S204.8,211.576,204.8,230.4S189.491,264.533,170.667,264.533z"/>
	</g>
</g>
<g>
	<g>
		<path d="M145.067,221.867H128c-4.71,0-8.533,3.823-8.533,8.533c0,4.71,3.823,8.533,8.533,8.533h17.067
			c4.71,0,8.533-3.823,8.533-8.533C153.6,225.69,149.777,221.867,145.067,221.867z"/>
	</g>
</g>
<g>
	<g>
		<path d="M213.333,221.867h-17.067c-4.71,0-8.533,3.823-8.533,8.533c0,4.71,3.823,8.533,8.533,8.533h17.067
			c4.71,0,8.533-3.823,8.533-8.533C221.867,225.69,218.044,221.867,213.333,221.867z"/>
	</g>
</g>
<g>
	<g>
		<path d="M170.667,247.467c-4.71,0-8.533,3.823-8.533,8.533v17.067c0,4.71,3.823,8.533,8.533,8.533s8.533-3.823,8.533-8.533V256
			C179.2,251.29,175.377,247.467,170.667,247.467z"/>
	</g>
</g>
<g>
	<g>
		<path d="M170.667,179.2c-4.71,0-8.533,3.823-8.533,8.533V204.8c0,4.71,3.823,8.533,8.533,8.533s8.533-3.823,8.533-8.533v-17.067
			C179.2,183.023,175.377,179.2,170.667,179.2z"/>
	</g>
</g>
<g>
	<g>
		<path d="M341.333,179.2c-28.237,0-51.2,22.963-51.2,51.2c0,28.237,22.963,51.2,51.2,51.2c28.237,0,51.2-22.963,51.2-51.2
			C392.533,202.163,369.57,179.2,341.333,179.2z M341.333,264.533c-18.825,0-34.133-15.309-34.133-34.133
			s15.309-34.133,34.133-34.133c18.825,0,34.133,15.309,34.133,34.133S360.158,264.533,341.333,264.533z"/>
	</g>
</g>
<g>
	<g>
		<path d="M315.733,221.867h-17.067c-4.71,0-8.533,3.823-8.533,8.533c0,4.71,3.823,8.533,8.533,8.533h17.067
			c4.71,0,8.533-3.823,8.533-8.533C324.267,225.69,320.444,221.867,315.733,221.867z"/>
	</g>
</g>
<g>
	<g>
		<path d="M384,221.867h-17.067c-4.71,0-8.533,3.823-8.533,8.533c0,4.71,3.823,8.533,8.533,8.533H384
			c4.71,0,8.533-3.823,8.533-8.533C392.533,225.69,388.71,221.867,384,221.867z"/>
	</g>
</g>
<g>
	<g>
		<path d="M341.333,247.467c-4.71,0-8.533,3.823-8.533,8.533v17.067c0,4.71,3.823,8.533,8.533,8.533s8.533-3.823,8.533-8.533V256
			C349.867,251.29,346.044,247.467,341.333,247.467z"/>
	</g>
</g>
<g>
	<g>
		<path d="M341.333,179.2c-4.71,0-8.533,3.823-8.533,8.533V204.8c0,4.71,3.823,8.533,8.533,8.533s8.533-3.823,8.533-8.533v-17.067
			C349.867,183.023,346.044,179.2,341.333,179.2z"/>
	</g>
</g>
<g>
	<g>
		<path d="M417.527,432.026l-34.133-85.333c-1.306-3.234-4.437-5.359-7.927-5.359H136.533c-3.49,0-6.63,2.125-7.919,5.367
			l-34.133,85.333c-1.058,2.628-0.734,5.615,0.853,7.953c1.587,2.338,4.233,3.746,7.066,3.746h307.2
			c2.833,0,5.478-1.408,7.066-3.755C418.253,437.632,418.577,434.654,417.527,432.026z M115.004,426.667L142.31,358.4H369.69
			l27.307,68.267H115.004z"/>
	</g>
</g>
<g>
	<g>
		<path d="M196.267,384h-34.133c-4.71,0-8.533,3.823-8.533,8.533s3.823,8.533,8.533,8.533h34.133c4.71,0,8.533-3.823,8.533-8.533
			S200.977,384,196.267,384z"/>
	</g>
</g>
<g>
	<g>
		<path d="M349.867,384h-34.133c-4.71,0-8.533,3.823-8.533,8.533s3.823,8.533,8.533,8.533h34.133c4.71,0,8.533-3.823,8.533-8.533
			S354.577,384,349.867,384z"/>
	</g>
</g>
<g>
	<g>
		<path d="M273.067,384h-34.133c-4.71,0-8.533,3.823-8.533,8.533s3.823,8.533,8.533,8.533h34.133c4.71,0,8.533-3.823,8.533-8.533
			S277.777,384,273.067,384z"/>
	</g>
</g>
<g>
</g>
<g>
</g>
<g>
</g>
<g>
</g>
<g>
</g>
<g>
</g>
<g>
</g>
<g>
</g>
<g>
</g>
<g>
</g>
<g>
</g>
<g>
</g>
<g>
</g>
<g>
</g>
<g>
</g>
</svg>
