<svg height="512pt" viewBox="0 0 512 512" width="512pt" xmlns="http://www.w3.org/2000/svg"><path d="m333.054688 277.246094-77.054688 91.90625-22.273438 26.539062-78.683593 93.753906c-2.132813 2.542969-2.601563 6.085938-1.199219 9.09375 1.402344 3.007813 4.417969 4.929688 7.734375 4.925782h22.253906c2.527344.003906 4.925781-1.117188 6.546875-3.054688l65.621094-78.265625 22.273438-26.539062 105.640624-125.953125zm0 0" fill="#4e342e"/><path d="m178.945312 277.246094 77.054688 91.90625 22.273438 26.453125 78.769531 93.867187c2.117187 2.539063 2.574219 6.074219 1.175781 9.070313-1.398438 2.996093-4.40625 4.914062-7.710938 4.921875h-22.339843c-2.527344.003906-4.925781-1.117188-6.546875-3.054688l-65.621094-78.265625-22.273438-26.453125-105.640624-126.039062zm0 0" fill="#795548"/><path d="m102.398438 8.535156h307.203124c4.710938 0 8.53125 3.820313 8.53125 8.53125v102.398438c0 4.714844-3.820312 8.535156-8.53125 8.535156h-307.203124c-4.710938 0-8.53125-3.820312-8.53125-8.535156v-102.398438c0-4.710937 3.820312-8.53125 8.53125-8.53125zm0 0" fill="#cfd8dc"/><path d="m418.132812 17.066406v102.398438c0 4.714844-3.820312 8.535156-8.53125 8.535156h-153.601562v-119.464844h153.601562c4.710938 0 8.53125 3.820313 8.53125 8.53125zm0 0" fill="#37474f"/><path d="m145.066406 247.464844v-119.464844h-34.132812v119.464844zm0 0" fill="#cfd8dc"/><path d="m401.066406 167.824219v-39.824219h-34.132812v119.464844h34.132812zm0 0" fill="#cfd8dc"/><path d="m409.601562 240.894531v16.726563c.007813 4.03125-2.804687 7.515625-6.742187 8.363281-52.449219 11.246094-106.027344 16.371094-159.660156 15.273437-45.074219-.738281-89.972657-5.855468-134.058594-15.273437-3.9375-.847656-6.75-4.332031-6.742187-8.363281v-16.726563c-.011719-1.808593.558593-3.570312 1.621093-5.03125 2.011719-2.652343 5.363281-3.914062 8.621094-3.246093 42.96875 8.910156 86.679687 13.765624 130.558594 14.507812h.425781c46.515625.941406 93.003906-2.832031 138.753906-11.261719 5.632813-.941406 11.347656-2.050781 16.980469-3.246093 2.5-.53125 5.105469.09375 7.09375 1.699218 1.988281 1.605469 3.144531 4.023438 3.148437 6.578125zm0 0" fill="#37474f"/><path d="m93.867188 162.132812h68.265624c4.714844 0 8.535157 3.820313 8.535157 8.535157v17.066406c0 4.710937-3.820313 8.53125-8.535157 8.53125h-68.265624c-4.714844 0-8.535157-3.820313-8.535157-8.53125v-17.066406c0-4.714844 3.820313-8.535157 8.535157-8.535157zm0 0" fill="#607d8b"/><path d="m349.867188 162.132812h68.265624c4.714844 0 8.535157 3.820313 8.535157 8.535157v17.066406c0 4.710937-3.820313 8.53125-8.535157 8.53125h-68.265624c-4.714844 0-8.535157-3.820313-8.535157-8.53125v-17.066406c0-4.714844 3.820313-8.535157 8.535157-8.535157zm0 0" fill="#37474f"/><g fill="#607d8b"><path d="m392.535156 17.066406v102.398438c0 4.714844-3.824218 8.535156-8.535156 8.535156h-128v-119.464844h128c4.710938 0 8.535156 3.820313 8.535156 8.53125zm0 0"/><path d="m384 240.894531v16.726563c.007812 4.03125-2.800781 7.515625-6.742188 8.363281-44.085937 9.417969-88.984374 14.535156-134.058593 15.273437-45.074219-.738281-89.972657-5.855468-134.058594-15.273437-3.9375-.847656-6.75-4.332031-6.742187-8.363281v-16.726563c-.011719-1.808593.558593-3.570312 1.621093-5.03125 45.898438 8.429688 92.527344 12.203125 139.179688 11.261719h.425781c46.515625.941406 93.003906-2.832031 138.753906-11.261719 1.066406 1.460938 1.632813 3.222657 1.621094 5.03125zm0 0"/><path d="m349.867188 162.132812h42.667968c4.710938 0 8.53125 3.820313 8.53125 8.535157v17.066406c0 4.710937-3.820312 8.53125-8.53125 8.53125h-42.667968c-4.714844 0-8.535157-3.820313-8.535157-8.53125v-17.066406c0-4.714844 3.820313-8.535157 8.535157-8.535157zm0 0"/></g><path d="m162.132812 102.398438h8.535157c4.710937 0 8.53125-3.820313 8.53125-8.53125 0-4.714844-3.820313-8.535157-8.53125-8.535157h-8.535157c-9.425781 0-17.066406-7.640625-17.066406-17.066406s7.640625-17.066406 17.066406-17.066406h8.535157c4.710937 0 8.53125-3.820313 8.53125-8.53125 0-4.714844-3.820313-8.535157-8.53125-8.535157h-8.535157c-18.851562 0-34.132812 15.28125-34.132812 34.132813s15.28125 34.132813 34.132812 34.132813zm0 0"/><path d="m192.453125 101.546875c2.023437 1.011719 4.371094 1.179687 6.515625.460937 2.148438-.714843 3.925781-2.257812 4.933594-4.285156l1.90625-3.855468h32.117187l1.902344 3.8125c1.363281 2.730468 4.078125 4.523437 7.125 4.707031 3.042969.183593 5.953125-1.269531 7.636719-3.8125 1.679687-2.546875 1.875-5.792969.515625-8.523438l-25.601563-51.199219c-1.605468-2.691406-4.503906-4.335937-7.636718-4.335937-3.132813 0-6.035157 1.644531-7.636719 4.335937l-25.601563 51.199219c-1.027344 2.03125-1.199218 4.386719-.480468 6.542969.71875 2.160156 2.265624 3.941406 4.304687 4.953125zm29.414063-39.800781 7.527343 15.054687h-15.054687zm0 0"/><path d="m332.800781 51.199219h8.53125v42.667969c0 4.710937 3.820313 8.53125 8.535157 8.53125 4.710937 0 8.53125-3.820313 8.53125-8.53125v-42.667969h8.535156c4.710937 0 8.53125-3.820313 8.53125-8.53125 0-4.714844-3.820313-8.535157-8.53125-8.535157h-34.132813c-4.714843 0-8.535156 3.820313-8.535156 8.535157 0 4.710937 3.820313 8.53125 8.535156 8.53125zm0 0"/><path d="m273.066406 102.398438h17.066406c5.695313.125 11.191407-2.085938 15.21875-6.113282 4.027344-4.027344 6.238282-9.523437 6.113282-15.21875.125-5.695312-2.085938-11.191406-6.113282-15.21875-4.027343-4.027344-9.523437-6.238281-15.21875-6.113281-1.167968.144531-2.34375-.257813-3.175781-1.089844-.832031-.835937-1.234375-2.007812-1.089843-3.179687-.144532-1.167969.257812-2.339844 1.089843-3.175782.832031-.832031 2.007813-1.234374 3.175781-1.089843h17.066407c4.714843 0 8.535156-3.820313 8.535156-8.53125 0-4.714844-3.820313-8.535157-8.535156-8.535157h-17.066407c-5.695312-.121093-11.191406 2.085938-15.21875 6.113282-4.027343 4.027344-6.238281 9.527344-6.113281 15.21875-.125 5.695312 2.085938 11.195312 6.113281 15.222656 4.027344 4.027344 9.523438 6.234375 15.21875 6.113281 1.171876-.148437 2.34375.253907 3.175782 1.089844.835937.832031 1.238281 2.003906 1.089844 3.175781.148437 1.171875-.253907 2.34375-1.089844 3.175782-.832032.835937-2.003906 1.238281-3.175782 1.089843h-17.066406c-4.710937 0-8.53125 3.820313-8.53125 8.535157 0 4.710937 3.820313 8.53125 8.53125 8.53125zm0 0"/><path d="m8.535156 512h409.597656c4.714844 0 8.535157-3.820312 8.535157-8.535156 0-4.710938-3.820313-8.53125-8.535157-8.53125h-50.703124c.0625-4-1.300782-7.890625-3.851563-10.972656l-74.160156-88.355469 98.984375-118.007813c5.402344-1.023437 10.804687-2.089844 16.214844-3.242187 7.875-1.726563 13.496093-8.6875 13.515624-16.75v-16.699219c.171876-6.109375-3.132812-11.785156-8.53125-14.644531v-21.460938h8.53125c9.425782 0 17.066407-7.640625 17.066407-17.066406v-17.066406c0-9.425781-7.640625-17.066407-17.066407-17.066407h-8.53125v-17.066406c9.425782 0 17.066407-7.644531 17.066407-17.070312v-102.398438c0-9.425781-7.640625-17.066406-17.066407-17.066406h-307.203124c-9.425782 0-17.066407 7.640625-17.066407 17.066406v102.398438c0 9.425781 7.640625 17.070312 17.066407 17.070312v17.066406h-8.53125c-9.425782 0-17.066407 7.640626-17.066407 17.066407v17.066406c0 9.425781 7.640625 17.066406 17.066407 17.066406h8.53125v21.460938c-.792969.425781-1.550782.914062-2.269532 1.457031-3.972656 3.222656-6.273437 8.070312-6.261718 13.1875v16.699219c.023437 8.066406 5.652343 15.03125 13.535156 16.75 5.390625 1.152343 10.792968 2.21875 16.210937 3.242187l98.988281 118.035156-74.121093 88.328126c-2.542969 3.085937-3.902344 6.976562-3.832031 10.972656h-136.113282c-4.714844 0-8.535156 3.820312-8.535156 8.53125 0 4.714844 3.820312 8.535156 8.535156 8.535156zm211.890625-34.132812h71.148438l14.3125 17.066406h-99.773438zm14.308594-17.066407 21.265625-25.351562 21.265625 25.351562zm115.773437 34.132813h-22.339843l-61.03125-72.765625 11.144531-13.285157zm-94.507812-86.042969-11.09375-13.257813 11.09375-13.28125 11.09375 13.253907zm22.28125-26.597656-11.09375-13.25 70.230469-83.722657c8.355469-.972656 16.699219-2.085937 25.027343-3.34375zm11.347656-66.558594h-67.242187l-23.449219-27.9375c19.007812 1.558594 38.027344 2.335937 57.0625 2.335937s38.058594-.777343 57.070312-2.328124zm-14.316406 17.066406-19.3125 23.039063-19.292969-23.039063zm125.753906-75.09375 1.773438 8.34375zm-8.53125-32.488281c-5.683594 1.144531-11.375 2.109375-17.070312 3.109375v-23.527344h17.070312zm-230.402344-20.417969c9.425782 0 17.066407-7.640625 17.066407-17.066406v-17.066406c0-9.425781-7.640625-17.066407-17.066407-17.066407h-8.53125v-17.066406h204.796876v17.066406h-8.53125c-9.425782 0-17.066407 7.640626-17.066407 17.066407v17.066406c0 9.425781 7.640625 17.066406 17.066407 17.066406h8.53125v26.375c-67.886719 10.191407-136.910157 10.191407-204.796876 0v-26.375zm256-17.066406h-68.265624v-17.066406h68.265624zm-25.597656-34.132813h-17.070312v-17.066406h17.070312zm-290.136718-136.535156h307.203124v102.398438h-307.203124zm17.066406 119.46875h17.070312v17.066406h-17.070312zm-25.597656 34.132813h68.265624v17.066406h-68.265624zm42.667968 34.132812v23.484375c-5.695312-1-11.386718-1.964844-17.070312-3.109375v-20.375zm-25.601562 36.179688c95.59375 20.015625 194.300781 20.015625 289.894531 0 .066406.003906.136719.003906.203125 0l.035156 16.726562c-95.625 20.527344-194.519531 20.503907-290.132812-.070312zm38.65625 41.027343c8.328125 1.265626 16.667968 2.378907 25.019531 3.347657l70.296875 83.71875-11.09375 13.277343zm84.15625 126.902344 11.09375 13.257813-61.007813 72.765625h-22.253906zm0 0"/><path d="m452.265625 512h51.199219c4.714844 0 8.535156-3.820312 8.535156-8.535156 0-4.710938-3.820312-8.53125-8.535156-8.53125h-51.199219c-4.710937 0-8.53125 3.820312-8.53125 8.53125 0 4.714844 3.820313 8.535156 8.53125 8.535156zm0 0"/></svg>