<?xml version="1.0" encoding="iso-8859-1"?>
<!-- Generator: Adobe Illustrator 19.0.0, SVG Export Plug-In . SVG Version: 6.00 Build 0)  -->
<svg version="1.1" id="Capa_1" xmlns="http://www.w3.org/2000/svg" xmlns:xlink="http://www.w3.org/1999/xlink" x="0px" y="0px"
	 viewBox="0 0 512 512" style="enable-background:new 0 0 512 512;" xml:space="preserve">
<polygon style="fill:#FDD93B;" points="206.321,342.178 256,301.624 305.679,342.178 448.634,283.831 448.634,7.604 63.366,7.604 
	63.366,283.831 "/>
<polygon style="fill:#FFFFFF;" points="448.634,220.101 448.634,283.831 305.679,342.178 256,301.624 206.321,342.178 
	63.366,283.831 63.366,220.101 7.604,261.069 7.604,504.396 504.396,504.396 504.396,261.069 "/>
<polygon style="fill:#F5A800;" points="256,275.263 206.321,315.818 63.366,257.47 63.366,283.831 206.321,342.178 256,301.624 
	305.679,342.178 448.634,283.831 448.634,257.47 305.679,315.818 "/>
<path style="fill:#FFFFFF;" d="M99.358,130.281H84.15v-15.208h15.208V130.281z M99.358,99.865H84.15v-70.97h15.208V99.865z"/>
<g>
	<rect x="7.604" y="484.119" style="fill:#D8D7DA;" width="496.792" height="20.277"/>
	<polygon style="fill:#D8D7DA;" points="184.945,333.453 7.604,478.22 7.604,504.396 206.321,342.178 	"/>
	<polygon style="fill:#D8D7DA;" points="327.055,333.453 305.679,342.178 504.396,504.396 504.396,478.22 	"/>
	<polygon style="fill:#D8D7DA;" points="63.366,283.831 63.366,220.101 7.604,261.069 	"/>
	<polygon style="fill:#D8D7DA;" points="504.396,261.069 448.634,220.101 448.634,283.831 	"/>
</g>
<path d="M456.238,216.253V0H55.762v216.253L0,257.221V512h512V257.221L456.238,216.253z M191.598,344.382L15.208,488.373V272.386
	L191.598,344.382z M256,311.44l227.057,185.352H28.943L256,311.44z M320.403,344.382l176.39-71.996v215.987L320.403,344.382z
	 M70.97,258.028V15.208H441.03v242.82h15.208v-22.905l32.715,24.037l-181.965,74.271L256,291.808l-50.988,41.623L23.047,259.159
	l32.715-24.037v22.905H70.97z"/>
<path d="M256,246.368V231.16c-21.745,0-41.99-8.72-57.004-24.555c-14.996-15.816-22.616-36.521-21.456-58.304
	c2.103-39.491,34.685-72.073,74.176-74.176c21.772-1.172,42.487,6.459,58.304,21.456c15.834,15.014,24.555,35.259,24.555,57.004
	v16.222c0,9.783-7.96,17.743-17.743,17.743s-17.743-7.96-17.743-17.743v-16.222c0-23.76-19.329-43.089-43.089-43.089
	c-23.76,0-43.089,19.329-43.089,43.089S232.24,195.675,256,195.675c12.114,0,23.067-5.032,30.904-13.106
	c5.223,11.315,16.67,19.189,29.928,19.189c18.169,0,32.951-14.781,32.951-32.951v-16.222c0-25.961-10.405-50.125-29.298-68.039
	c-18.875-17.896-43.596-27.003-69.576-25.607c-23.008,1.225-44.731,10.952-61.166,27.388
	c-16.437,16.436-26.164,38.159-27.388,61.166c-1.384,25.992,7.709,50.701,25.607,69.576
	C205.875,235.963,230.039,246.368,256,246.368z M256,180.467c-15.373,0-27.881-12.508-27.881-27.881s12.508-27.881,27.881-27.881
	s27.881,12.508,27.881,27.881S271.373,180.467,256,180.467z"/>
<rect x="271.208" y="231.16" width="15.208" height="15.208"/>
<rect x="301.624" y="231.16" width="15.208" height="15.208"/>
<rect x="332.04" y="231.16" width="15.208" height="15.208"/>
<g>
</g>
<g>
</g>
<g>
</g>
<g>
</g>
<g>
</g>
<g>
</g>
<g>
</g>
<g>
</g>
<g>
</g>
<g>
</g>
<g>
</g>
<g>
</g>
<g>
</g>
<g>
</g>
<g>
</g>
</svg>
