<?xml version="1.0" encoding="iso-8859-1"?>
<!-- Generator: Adobe Illustrator 19.0.0, SVG Export Plug-In . SVG Version: 6.00 Build 0)  -->
<svg version="1.1" id="Capa_1" xmlns="http://www.w3.org/2000/svg" xmlns:xlink="http://www.w3.org/1999/xlink" x="0px" y="0px"
	 viewBox="0 0 512.001 512.001" style="enable-background:new 0 0 512.001 512.001;" xml:space="preserve">
<path style="fill:#FFBEAA;" d="M443.498,228.381c-19.986-32.889-58.574-84.638-58.574-146.31c0-30.418,10.8-59.723,20.963-80.187
	L106.325,0.887c10.162,20.464,19.635,50.766,19.635,81.183c0,61.672-38.588,113.421-58.574,146.31
	c-28.017,46.1-46.618,93.096-43.21,146.938c3.427,54.26,43.34,136.682,43.34,136.682H442.75c0,0,40.53-82.423,43.958-136.682
	C490.116,321.477,471.514,274.48,443.498,228.381z"/>
<path style="fill:#FFA78F;" d="M97.278,228.381c19.986-32.889,58.574-84.638,58.574-146.31c0-30.369-9.442-60.621-19.586-81.084
	l-29.94-0.1c10.162,20.464,19.635,50.766,19.635,81.183c0,61.672-38.588,113.421-58.574,146.31
	c-28.017,46.1-46.618,93.096-43.21,146.938c3.427,54.26,43.34,136.682,43.34,136.682h29.892c0,0-39.913-82.423-43.34-136.682
	C50.66,321.477,69.261,274.48,97.278,228.381z"/>
<path style="fill:#EC5569;" d="M313.079,330.314c13.022,13.022,13.022,34.134,0,47.156l-54.519,54.529
	c-1.754,1.754-4.593,1.754-6.347,0l-54.409-54.409c-6.506-6.516-9.764-15.044-9.764-23.573c0-8.538,3.258-17.077,9.764-23.583
	c13.022-13.022,34.144-13.022,47.166,0l7.233,7.233c1.754,1.754,4.603,1.754,6.357,0l7.353-7.353
	C278.935,317.292,300.057,317.292,313.079,330.314z"/>
<path style="fill:#E63950;" d="M227.696,377.59c-6.506-6.516-9.764-15.044-9.764-23.573c0-8.538,3.258-17.077,9.764-23.583
	c2.598-2.598,5.523-4.669,8.637-6.231c-12.495-6.264-28.105-4.193-38.529,6.231c-6.506,6.506-9.764,15.044-9.764,23.583
	c0,8.529,3.258,17.057,9.764,23.573l54.409,54.409c1.754,1.754,4.593,1.754,6.347,0l11.772-11.774L227.696,377.59z"/>
<path d="M126.632,76.714c-4.077-0.087-7.535,3.202-7.614,7.329c-0.958,50.418-28.634,94.088-48.843,125.975
	c-3.088,4.87-6.002,9.47-8.617,13.774C27.825,279.298,14.168,325.957,17.276,375.08c1.469,23.243,8.813,52.556,21.831,87.126
	c9.626,25.566,18.697,44.145,19.078,44.923c1.298,2.648,3.953,4.187,6.715,4.187c1.103,0,2.224-0.246,3.282-0.764
	c3.706-1.815,5.239-6.291,3.424-9.997c-0.361-0.736-36.123-74.293-39.416-126.417c-2.903-45.88,10.093-89.855,42.138-142.585
	c2.543-4.184,5.421-8.726,8.469-13.535c21.154-33.378,50.126-79.09,51.164-133.691C134.04,80.2,130.759,76.791,126.632,76.714z"/>
<path d="M116.829,54.933c0.632,3.633,3.788,6.193,7.353,6.193c0.425,0,0.856-0.037,1.289-0.112c4.066-0.707,6.788-4.577,6.082-8.642
	c-2.806-16.136-7.991-31.459-16.314-48.221c-1.836-3.696-6.322-5.206-10.017-3.37c-3.696,1.835-5.205,6.32-3.37,10.016
	C109.517,26.232,114.275,40.257,116.829,54.933z"/>
<path d="M450.441,223.791c-2.615-4.304-5.531-8.904-8.617-13.774c-20.624-32.542-48.87-77.109-48.87-128.655
	c0-31.855,9.189-54.444,17.195-70.564c1.835-3.696,0.327-8.181-3.37-10.016c-3.697-1.836-8.181-0.328-10.017,3.37
	c-8.731,17.582-18.753,42.247-18.753,77.211c0,55.883,29.588,102.567,51.192,136.656c3.048,4.809,5.926,9.351,8.469,13.535
	c32.046,52.73,45.043,96.705,42.138,142.586c-3.293,52.124-39.054,125.68-39.416,126.416c-1.814,3.706-0.282,8.182,3.424,9.997
	c1.058,0.518,2.179,0.764,3.282,0.764c2.762,0,5.418-1.538,6.715-4.187c1.526-3.116,37.428-76.941,40.91-132.049
	C497.833,325.957,484.176,279.298,450.441,223.791z"/>
<path d="M290.054,312.367c-10.905,0-21.157,4.245-28.867,11.955l-5.247,5.248l-5.127-5.127c-7.71-7.71-17.962-11.956-28.867-11.956
	c-10.906,0-21.158,4.246-28.866,11.955c-7.709,7.708-11.954,17.96-11.954,28.867c0,10.889,4.244,21.136,11.953,28.856l54.408,54.409
	c0.332,0.332,0.681,0.633,1.04,0.918v66.351c0,4.127,3.345,7.472,7.472,7.472c4.128,0,7.472-3.346,7.472-7.472v-66.432
	c0.321-0.26,0.632-0.538,0.931-0.837l27.706-27.711c2.918-2.918,2.918-7.65-0.001-10.567c-2.92-2.919-7.65-2.917-10.567,0.001
	l-25.595,25.597L203.651,371.6c-4.887-4.895-7.579-11.392-7.579-18.292c0-6.915,2.69-13.413,7.576-18.299
	c4.886-4.887,11.385-7.578,18.298-7.578c6.912,0,13.413,2.691,18.298,7.578l7.233,7.232c2.26,2.26,5.265,3.505,8.463,3.505
	c3.197,0,6.203-1.245,8.462-3.504l7.352-7.353c4.887-4.886,11.386-7.577,18.299-7.577c6.913,0,13.413,2.691,18.299,7.577
	c4.886,4.887,7.577,11.384,7.577,18.294s-2.691,13.408-7.578,18.294l-5.261,5.262c-2.918,2.918-2.918,7.65,0.001,10.567
	c2.919,2.917,7.651,2.918,10.567-0.001l5.261-5.262c7.709-7.71,11.955-17.96,11.955-28.861c0-10.903-4.246-21.153-11.955-28.861
	C311.211,316.612,300.96,312.367,290.054,312.367z"/>
<path d="M249.095,220.109c0.189,0.448,0.419,0.887,0.687,1.295c0.279,0.408,0.588,0.787,0.937,1.136
	c0.339,0.339,0.726,0.658,1.136,0.927c0.399,0.269,0.837,0.498,1.285,0.687c0.448,0.189,0.927,0.329,1.395,0.428
	c0.487,0.1,0.976,0.139,1.465,0.139c1.963,0,3.885-0.797,5.281-2.182c0.349-0.349,0.658-0.727,0.937-1.136
	c0.269-0.408,0.498-0.847,0.686-1.295c0.179-0.448,0.329-0.917,0.418-1.395c0.101-0.488,0.149-0.976,0.149-1.465
	c0-0.488-0.05-0.976-0.149-1.455c-0.09-0.478-0.239-0.947-0.418-1.405c-0.188-0.448-0.418-0.877-0.686-1.285
	c-0.279-0.408-0.589-0.787-0.937-1.136c-0.339-0.349-0.727-0.658-1.136-0.927c-0.398-0.269-0.838-0.498-1.285-0.687
	c-0.448-0.189-0.928-0.329-1.405-0.428c-0.956-0.199-1.953-0.189-2.919,0c-0.469,0.1-0.947,0.239-1.395,0.428
	c-0.448,0.189-0.887,0.418-1.285,0.687c-0.408,0.269-0.797,0.578-1.136,0.927c-0.35,0.349-0.658,0.727-0.937,1.136
	c-0.269,0.408-0.498,0.837-0.687,1.285c-0.179,0.458-0.328,0.927-0.418,1.405c-0.1,0.478-0.148,0.966-0.148,1.455
	c0,0.488,0.05,0.976,0.148,1.465C248.767,219.193,248.916,219.661,249.095,220.109z"/>
<g>
</g>
<g>
</g>
<g>
</g>
<g>
</g>
<g>
</g>
<g>
</g>
<g>
</g>
<g>
</g>
<g>
</g>
<g>
</g>
<g>
</g>
<g>
</g>
<g>
</g>
<g>
</g>
<g>
</g>
</svg>
