<svg height="512" viewBox="0 0 64 64" width="512" xmlns="http://www.w3.org/2000/svg"><g id="Laptop-Engineer-Server-Administrator-Storage"><path d="m61 8c0 2.76-7.16 5-16 5a45.187 45.187 0 0 1 -8-.67c-.7-.12-1.37-.26-2-.42a14.211 14.211 0 0 1 -4.67-1.91 2.6 2.6 0 0 1 -1.33-2c0-2.76 7.16-5 16-5s16 2.24 16 5z" fill="#898890"/><path d="m37 12v.33c-.7-.12-1.37-.26-2-.42a14.211 14.211 0 0 1 -4.67-1.91h4.67a2.006 2.006 0 0 1 2 2z" fill="#787680"/><path d="m61 8v8c0 2.76-7.16 5-16 5a45.187 45.187 0 0 1 -8-.67c-.7-.12-1.37-.26-2-.42-3.66-.92-6-2.33-6-3.91v-8a2.6 2.6 0 0 0 1.33 2 14.211 14.211 0 0 0 4.67 1.91c.63.16 1.3.3 2 .42a45.187 45.187 0 0 0 8 .67c8.84 0 16-2.24 16-5z" fill="#acabb1"/><path d="m37 12.33v8c-.7-.12-1.37-.26-2-.42-3.66-.92-6-2.33-6-3.91v-6h1.33a14.211 14.211 0 0 0 4.67 1.91c.63.16 1.3.3 2 .42z" fill="#898890"/><path d="m61 16v8c0 2.76-7.16 5-16 5-1.38 0-2.73-.06-4.01-.16-.68-.05-1.35-.12-1.99-.2-.69-.09-1.36-.19-2-.3-.7-.13-1.37-.27-2-.43a18.964 18.964 0 0 1 -2.81-.91 6.515 6.515 0 0 1 -2.88-2 1.891 1.891 0 0 1 -.31-1v-8c0 1.58 2.34 2.99 6 3.91.63.16 1.3.3 2 .42a45.187 45.187 0 0 0 8 .67c8.84 0 16-2.24 16-5z" fill="#898890"/><path d="m40.99 28.84c-.68-.05-1.35-.12-1.99-.2a35.963 35.963 0 0 1 -4-.73 18.964 18.964 0 0 1 -2.81-.91h6.81a2 2 0 0 1 1.99 1.84z" fill="#787680"/><path d="m61 24v8c0 2.76-7.16 5-16 5-1.38 0-2.72-.06-4-.16-.69-.05-1.35-.12-2-.2a30.886 30.886 0 0 1 -4.88-.98h-.01c-3.14-.91-5.11-2.21-5.11-3.66v-8a1.891 1.891 0 0 0 .31 1 6.515 6.515 0 0 0 2.88 2 18.964 18.964 0 0 0 2.81.91 35.963 35.963 0 0 0 4 .73c.64.08 1.31.15 1.99.2 1.28.1 2.63.16 4.01.16 8.84 0 16-2.24 16-5z" fill="#acabb1"/><path d="m41 29v7.84c-.69-.05-1.35-.12-2-.2a30.886 30.886 0 0 1 -4.88-.98h-.01c-3.14-.91-5.11-2.21-5.11-3.66v-5h3.19a18.964 18.964 0 0 0 2.81.91 35.963 35.963 0 0 0 4 .73c.64.08 1.31.15 1.99.2a.808.808 0 0 1 .01.16z" fill="#898890"/><path d="m61 32v8c0 2.76-7.16 5-16 5-1.38 0-2.72-.06-4-.16-.69-.05-1.35-.12-2-.2-5.87-.75-10-2.54-10-4.64v-8c0 1.45 1.97 2.75 5.11 3.66h.01a30.886 30.886 0 0 0 4.88.98c.65.08 1.31.15 2 .2 1.28.1 2.62.16 4 .16 8.84 0 16-2.24 16-5z" fill="#898890"/><path d="m41 36.84v8c-.69-.05-1.35-.12-2-.2-5.87-.75-10-2.54-10-4.64v-8c0 1.45 1.97 2.75 5.11 3.66h.01a30.886 30.886 0 0 0 4.88.98c.65.08 1.31.15 2 .2z" fill="#787680"/><path d="m43 57h-40l4-10h32z" fill="#acabb1"/><path d="m37 20.33v8.01c-.7-.13-1.37-.27-2-.43a18.964 18.964 0 0 1 -2.81-.91 6.515 6.515 0 0 1 -2.88-2 1.891 1.891 0 0 1 -.31-1v-8c0 1.58 2.34 2.99 6 3.91.63.16 1.3.3 2 .42z" fill="#787680"/><path d="m33 8h-28a2.006 2.006 0 0 0 -2 2v6h32v-6a2.006 2.006 0 0 0 -2-2z" fill="#ff5023"/><path d="m35 16v18a2.005 2.005 0 0 1 -.88 1.66h-.01a1.942 1.942 0 0 1 -1.11.34h-28a2.006 2.006 0 0 1 -2-2v-18z" fill="#3d9ae2"/><path d="m39 27v20h-32v-20a2.006 2.006 0 0 1 2-2h28a2.006 2.006 0 0 1 2 2z" fill="#5aaae7"/><path d="m43 57v3a1 1 0 0 1 -1 1h-38a1 1 0 0 1 -1-1v-3z" fill="#898890"/><path d="m28 53 1 4h-12l1-4z" fill="#c6c5ca"/><path d="m29.47 38a2.348 2.348 0 0 0 -.25-.19l-1.4-.93-1.67-1.11a2.991 2.991 0 0 0 1.85-2.77v-3a3 3 0 0 0 -6 0v3a2.991 2.991 0 0 0 1.85 2.77l-1.67 1.11-1.4.93a2.348 2.348 0 0 0 -.25.19 3.976 3.976 0 0 0 -1.53 3.14v1.86h12v-1.86a3.976 3.976 0 0 0 -1.53-3.14z" fill="#3d9ae2"/><path d="m26 29v2a2.991 2.991 0 0 1 -1.85 2.77 2.99 2.99 0 0 1 -2.3 0 2.991 2.991 0 0 1 -1.85-2.77v-2z" fill="#ffc477"/><path d="m24.15 33.77a2.99 2.99 0 0 1 -2.3 0l-1.67 1.11 1.01 1.12 1.81 2 1.81-2 1.01-1.12z" fill="#ffc477"/><path d="m27.47 36a2.348 2.348 0 0 0 -.25-.19l-1.4-.93-1.01 1.12-1.81 2-1.81-2-1.01-1.12-1.4.93a2.348 2.348 0 0 0 -.25.19 3.976 3.976 0 0 0 -1.53 3.14v1.86h12v-1.86a3.976 3.976 0 0 0 -1.53-3.14z" fill="#00b39d"/><path d="m26 28v1h-3v-4a3 3 0 0 1 3 3z" fill="#ff9811"/><path d="m23 25v4h-3v-1a3 3 0 0 1 3-3z" fill="#ff9811"/><path d="m45 2c-7.7 0-15.46 1.72-16.78 5h-23.22a3.009 3.009 0 0 0 -3 3v24a3.009 3.009 0 0 0 3 3h1v9.81l-3.93 9.82a.937.937 0 0 0 -.07.37v3a2.006 2.006 0 0 0 2 2h38a2.006 2.006 0 0 0 2-2v-3a.937.937 0 0 0 -.07-.37l-3.93-9.82v-1.08a47.892 47.892 0 0 0 5 .27c8.45 0 17-2.06 17-6v-32c0-3.94-8.55-6-17-6zm-41 8a1 1 0 0 1 1-1h28a1 1 0 0 1 1 1v5h-30zm1 25a1 1 0 0 1 -1-1v-17h30v7h-6v2h9a1 1 0 0 1 1 1v19h-30v-19a1 1 0 0 1 1-1h9v-2h-9a3.009 3.009 0 0 0 -3 3v8zm37 25h-38v-2h38zm-23.72-4 .5-2h8.44l.5 2zm23.24 0h-11.74l-.81-3.24a1 1 0 0 0 -.97-.76h-10a1 1 0 0 0 -.97.76l-.81 3.24h-11.74l3.2-8h30.64zm18.48-16c0 1.63-5.84 4-15 4a47.892 47.892 0 0 1 -5-.27v-6a47.892 47.892 0 0 0 5 .27c5.97 0 11.98-1.03 15-3.03zm0-8c0 1.63-5.84 4-15 4a47.892 47.892 0 0 1 -5-.27v-6a47.892 47.892 0 0 0 5 .27c5.97 0 11.98-1.03 15-3.03zm0-8c0 1.63-5.84 4-15 4a47.892 47.892 0 0 1 -5-.27v-.73a3.009 3.009 0 0 0 -3-3h-1v-2.86a45.386 45.386 0 0 0 9 .86c5.97 0 11.98-1.03 15-3.03zm0-8c0 1.63-5.84 4-15 4a43.564 43.564 0 0 1 -9-.89v-5.97a45.386 45.386 0 0 0 9 .86c5.97 0 11.98-1.03 15-3.03zm-15-4a43.564 43.564 0 0 1 -9-.89v-1.11a3.009 3.009 0 0 0 -3-3h-2.37c1.74-1.45 6.97-3 14.37-3 9.16 0 15 2.37 15 4s-5.84 4-15 4z"/><path d="m56 14h2v2h-2z"/><path d="m52 15h2v2h-2z"/><path d="m48 16h2v2h-2z"/><path d="m56 22h2v2h-2z"/><path d="m52 23h2v2h-2z"/><path d="m48 24h2v2h-2z"/><path d="m56 30h2v2h-2z"/><path d="m52 31h2v2h-2z"/><path d="m48 32h2v2h-2z"/><path d="m56 38h2v2h-2z"/><path d="m52 39h2v2h-2z"/><path d="m48 40h2v2h-2z"/><path d="m39 7h12v2h-12z"/><path d="m6 11h2v2h-2z"/><path d="m10 11h2v2h-2z"/><path d="m14 11h2v2h-2z"/><path d="m27.77 34.98-1.87-1.24a3.976 3.976 0 0 0 1.1-2.74v-1h1v-2h-1a4 4 0 0 0 -3-3.86v-1.14h-2v1.14a4 4 0 0 0 -3 3.86h-1v2h1v1a3.976 3.976 0 0 0 1.1 2.74l-1.87 1.24a4.987 4.987 0 0 0 -2.23 4.16v1.86a1 1 0 0 0 1 1h12a1 1 0 0 0 1-1v-1.86a4.987 4.987 0 0 0 -2.23-4.16zm-3.77-8.7a2 2 0 0 1 1 1.72h-1zm-2 0v1.72h-1a2 2 0 0 1 1-1.72zm-1 3.72h4v1a2 2 0 0 1 -4 0zm3.3 5.07-1.3 1.44-1.3-1.44.31-.21a3.57 3.57 0 0 0 1.98 0zm3.7 4.93h-10v-.86a3.006 3.006 0 0 1 1.34-2.5l.68-.45 2.24 2.48a.995.995 0 0 0 1.48 0l2.24-2.48.68.45a3.006 3.006 0 0 1 1.34 2.5z"/></g></svg>