<svg id="Capa_1" enable-background="new 0 0 512 512" height="512" viewBox="0 0 512 512" width="512" xmlns="http://www.w3.org/2000/svg"><g><path d="m372.944 264.93h-288.758c-11.206 0-20.29-9.084-20.29-20.29v-124.488c0-41.51 33.65-75.16 75.16-75.16h233.888z" fill="#eda1ab"/><path d="m139.056 44.992c-41.51 0-75.16 33.65-75.16 75.16v124.487c0 11.206 9.084 20.29 20.29 20.29h88.654c-44.32-41.899-47.051-148.561-32.866-219.938h-.918z" fill="#e16e7e"/><path d="m427.814 264.93h-135.805c-11.206 0-20.29-9.084-20.29-20.29v-124.488c0-41.51 33.65-75.16 75.16-75.16h26.066c41.51 0 75.16 33.65 75.16 75.16v124.487c-.001 11.206-9.085 20.291-20.291 20.291z" fill="#e16e7e"/><path d="m107.453 31.17v27.642c0 13.073 10.598 23.67 23.67 23.67h43.513v87.446c0 7.111 5.765 12.875 12.875 12.875h20.168c7.111 0 12.875-5.764 12.875-12.875v-111.924c0-27.892-22.611-50.504-50.504-50.504h-38.928c-13.071 0-23.669 10.598-23.669 23.67z" fill="#4e5660"/><path d="m173.617 328.575h89.606c14.214 0 26.262-10.462 28.254-24.535l5.537-39.11h-157.188l5.537 39.11c1.993 14.073 14.04 24.535 28.254 24.535z" fill="#4e5660"/><path d="m143.624 291.752h149.592l3.798-26.823h-157.188z" fill="#383c43"/><path d="m369.248 12.017h-18.673c-8.07 0-14.611 6.542-14.611 14.611v46.04c0 8.069 6.542 14.611 14.611 14.611h18.673c8.069 0 14.611-6.542 14.611-14.611v-46.04c0-8.069-6.542-14.611-14.611-14.611z" fill="#f6ee86"/><path d="m253.426 328.575h-70.013v160.49c0 8.524 6.91 15.435 15.435 15.435h39.143c8.525 0 15.435-6.91 15.435-15.435z" fill="#e0b799"/><path d="m183.413 328.575h70.013v40.095h-70.013z" fill="#d1986f"/><g><g fill="#eda1ab"><path d="m398.734 165.915h-77.646c-4.142 0-7.5-3.357-7.5-7.5 0-4.142 3.358-7.5 7.5-7.5h77.646c4.142 0 7.5 3.358 7.5 7.5 0 4.143-3.358 7.5-7.5 7.5z"/><path d="m380.771 214.448h-41.718c-4.142 0-7.5-3.357-7.5-7.5s3.358-7.5 7.5-7.5h41.718c4.142 0 7.5 3.357 7.5 7.5s-3.358 7.5-7.5 7.5z"/></g></g><path d="m448.104 124.525c-4.142 0-7.5 3.357-7.5 7.5v112.613c0 7.053-5.738 12.791-12.79 12.791h-135.805c-7.053 0-12.79-5.738-12.79-12.791v-124.487c0-30.4 20.642-56.983 49.246-65.097v17.614c0 12.192 9.919 22.111 22.111 22.111h18.673c12.192 0 22.111-9.919 22.111-22.111v-17.608c21.201 6.043 38.673 22.426 45.763 43.603 1.05 3.139 3.974 5.121 7.111 5.121 5.113 0 8.74-5.024 7.113-9.883-9.111-27.215-32.261-47.952-59.987-54.32v-12.953c0-12.191-9.919-22.11-22.111-22.11h-18.673c-12.192 0-22.111 9.919-22.111 22.11v10.863h-104.167c-8.305-21.887-29.482-37.491-54.246-37.491h-38.929c-17.188 0-31.17 13.982-31.17 31.17v16.175c-26.608 14.325-43.557 42.384-43.557 72.806v124.487c0 15.324 12.467 27.791 27.79 27.791h49.127l4.624 32.661c2.501 17.663 17.84 30.983 35.68 30.983h2.296v124.364c0 4.143 3.358 7.5 7.5 7.5s7.5-3.357 7.5-7.5v-124.363h55.013v152.991c0 4.375-3.56 7.935-7.935 7.935h-39.143c-2.929 0-5.611-1.606-6.999-4.191-1.959-3.648-6.506-5.02-10.156-3.059-3.649 1.96-5.019 6.507-3.059 10.156 4.006 7.46 11.752 12.094 20.214 12.094h39.143c12.646 0 22.935-10.288 22.935-22.935v-152.991h2.296c17.84 0 33.18-13.32 35.68-30.983l4.624-32.661h124.288c15.324 0 27.79-12.467 27.79-27.791v-112.614c0-4.142-3.357-7.5-7.5-7.5zm-104.64-97.897c0-3.921 3.19-7.11 7.111-7.11h18.673c3.921 0 7.111 3.189 7.111 7.11v46.04c0 3.921-3.19 7.111-7.111 7.111h-18.673c-3.921 0-7.111-3.19-7.111-7.111zm-228.511 4.542c0-8.916 7.254-16.17 16.17-16.17h38.929c23.712 0 43.004 19.291 43.004 43.004v111.925c0 2.964-2.412 5.375-5.376 5.375h-20.168c-2.964 0-5.376-2.411-5.376-5.375v-87.446c0-4.143-3.358-7.5-7.5-7.5h-43.513c-8.917 0-16.17-7.254-16.17-16.171zm-30.767 226.26c-7.053 0-12.79-5.738-12.79-12.791v-124.488c0-22.302 11.13-43.054 29.102-55.57 2.714 14.44 15.41 25.402 30.627 25.402h36.013v79.945c0 11.234 9.141 20.375 20.376 20.375h20.168c11.235 0 20.376-9.141 20.376-20.375-.098-117.605.239-112.082-.269-117.438h71.652c-22.831 16.017-35.221 41.551-35.221 67.66v124.487c0 4.611 1.135 8.959 3.131 12.791h-183.165zm199.865 45.558c-1.46 10.31-10.414 18.086-20.828 18.086h-89.605c-10.414 0-19.368-7.775-20.828-18.087l-4.326-30.558h139.914z"/></g></svg>