<svg id="Capa_1" enable-background="new 0 0 512 512" height="512" viewBox="0 0 512 512" width="512" xmlns="http://www.w3.org/2000/svg"><g><g><path d="m363.182 14.493h-63.442v45.309h63.442c2.76 0 4.998-2.238 4.998-4.998v-35.313c-.001-2.76-2.238-4.998-4.998-4.998z" fill="#dd636e"/></g><g><path d="m363.182 14.493h-9.846v25.468c0 2.76-2.238 4.998-4.998 4.998h-48.598v14.843h63.442c2.76 0 4.998-2.238 4.998-4.998v-35.313c-.001-2.76-2.238-4.998-4.998-4.998z" fill="#da4a54"/></g><g><path d="m354.294 496.302-14.524-17.393c-6.202-7.427-9.6-16.797-9.6-26.473v-156.47h-55.35v156.47c0 9.677-3.398 19.046-9.6 26.473l-14.524 17.393c-2.718 3.254-.404 8.201 3.836 8.201h95.926c4.24 0 6.554-4.947 3.836-8.201z" fill="#dd636e"/></g><g><path d="m354.294 496.302-14.524-17.393c-6.202-7.427-9.6-16.797-9.6-26.473v-156.47h-21.74v156.47c0 9.677 3.398 19.046 9.6 26.473l14.524 17.393c2.718 3.254.404 8.201-3.836 8.201h21.74c4.24 0 6.554-4.947 3.836-8.201z" fill="#da4a54"/></g><g><path d="m399.828 91.988h-199.954v222.087h282.858c5.52 0 9.995-4.475 9.995-9.995v-119.192c.001-51.308-41.592-92.9-92.899-92.9z" fill="#90d8f9"/></g><g><path d="m399.828 91.988h-64.556c51.307 0 92.9 41.593 92.9 92.9v119.192c0 5.52-4.475 9.995-9.995 9.995h64.556c5.52 0 9.995-4.475 9.995-9.995v-119.192c0-51.308-41.593-92.9-92.9-92.9z" fill="#75cef9"/></g><g><path d="m289.793 314.075h-175.805c-5.52 0-9.995-4.475-9.995-9.995v-119.192c0-51.307 41.593-92.9 92.9-92.9 51.307 0 92.9 41.593 92.9 92.9z" fill="#365e7d"/></g><g><path d="m224.308 96.102c2.673 8.666 4.114 17.872 4.114 27.415v14.29c0 63.456-51.441 114.897-114.897 114.897h-9.532v51.375c0 5.52 4.475 9.995 9.995 9.995h175.804v-129.186c.001-41.765-27.559-77.089-65.484-88.786z" fill="#2b4d66"/></g><g><path d="m293.334 314.075h-230.366c-3.314 0-6-2.686-6-6v-24.218c0-3.314 2.686-6 6-6h230.365v36.218z" fill="#90d8f9"/></g><g><path d="m270.407 277.857c0 9.296-7.536 16.832-16.832 16.832h-196.607v13.388c0 3.312 2.685 5.997 5.997 5.997h226.827v-36.218h-19.385z" fill="#75cef9"/></g><g><path d="m165.576 238.226h-136.304c-5.523 0-10-4.477-10-10v-94.102c0-5.523 4.477-10 10-10h136.304c5.523 0 10 4.477 10 10v94.102c0 5.522-4.477 10-10 10z" fill="#f6e266"/></g><g><path d="m165.581 124.123h-136.314c-4.143 0-7.697 2.521-9.213 6.112l70.738 62.724c3.784 3.356 9.479 3.356 13.263 0l70.738-62.724c-1.516-3.591-5.069-6.112-9.212-6.112z" fill="#f1d333"/></g><path d="m469.786 112.878c-2.97-2.885-7.716-2.819-10.601.152-2.885 2.969-2.817 7.715.152 10.601 16.698 16.225 25.894 37.98 25.894 61.256v119.192c0 1.378-1.121 2.499-2.499 2.499h-185.443v-121.691c0-36.034-19.086-67.689-47.676-85.403h150.215c11.363 0 22.393 2.192 32.784 6.517.942.392 1.918.578 2.878.578 2.937 0 5.725-1.737 6.924-4.618 1.591-3.823-.218-8.211-4.041-9.801-12.226-5.088-25.195-7.668-38.546-7.668h-92.591v-17.193h55.945c6.889 0 12.494-5.605 12.494-12.494v-35.314c0-6.89-5.605-12.494-12.494-12.494h-55.97c-.258-3.907-3.5-6.997-7.471-6.997-4.14 0-7.497 3.356-7.497 7.497v76.995h-95.451c-.012 0-.022.002-.034.002-27.87.038-54.535 11.725-73.475 32.134h-94.016c-9.645 0-17.492 7.847-17.492 17.492v94.111c0 9.645 7.847 17.492 17.492 17.492h67.229v24.638h-33.531c-7.44 0-13.494 6.053-13.494 13.494v24.224c0 7.441 6.053 13.494 13.494 13.494h204.358v130.865c0 7.905-2.791 15.599-7.858 21.668l-14.524 17.393c-3.143 3.764-3.804 8.861-1.727 13.302 2.078 4.441 6.414 7.201 11.318 7.201h95.926c4.904 0 9.24-2.76 11.318-7.201 2.077-4.441 1.415-9.539-1.727-13.302l-14.524-17.392c-5.067-6.069-7.858-13.764-7.858-21.669v-7.844c0-4.141-3.356-7.497-7.497-7.497s-7.497 3.356-7.497 7.497v7.844c0 11.411 4.028 22.519 11.343 31.279l11.1 13.292h-85.242l11.1-13.293c7.315-8.76 11.343-19.868 11.343-31.278v-130.867h40.357v86.876c0 4.141 3.356 7.497 7.497 7.497s7.497-3.356 7.497-7.497v-86.876h145.066c9.645 0 17.492-7.847 17.492-17.492v-119.192c-.001-27.363-10.811-52.937-30.44-72.009zm-109.104-60.573h-53.446v-30.315h53.446zm-198.75 79.315-62.85 55.73c-.945.839-2.372.839-3.316.001l-62.851-55.731zm-135.164 96.61v-82.021l59.05 52.361c3.308 2.932 7.456 4.398 11.605 4.398 4.148 0 8.297-1.466 11.606-4.399l59.05-52.361v82.022c0 1.378-1.121 2.499-2.499 2.499h-136.313c-1.377 0-2.499-1.121-2.499-2.499zm37.697 78.348v-21.225h146.383c4.14 0 7.497-3.356 7.497-7.497s-3.356-7.497-7.497-7.497h-99.358v-24.638h54.091c9.645 0 17.492-7.847 17.492-17.492v-94.111c0-9.645-7.847-17.492-17.492-17.492h-19.988c14.684-11.023 32.678-17.143 51.3-17.143 47.091 0 85.403 38.312 85.403 85.403v85.473h-35.839c-4.14 0-7.497 3.356-7.497 7.497s3.356 7.497 7.497 7.497h35.839v21.225z"/></g></svg>