<svg id="Capa_1" enable-background="new 0 0 512 512" height="512" viewBox="0 0 512 512" width="512" xmlns="http://www.w3.org/2000/svg"><g><g><path d="m231.15 405.333h49.7v82.367h-49.7z" fill="#abc4d6"/><g><path d="m156.6 256c0 54.897 44.503 99.4 99.4 99.4s99.4-44.503 99.4-99.4v-18.5h-198.8z" fill="#abc4d6"/><path d="m332.4 237.5v18.5c0 51.007-38.421 93.033-87.9 98.734 3.774.435 7.61.666 11.5.666 54.897 0 99.4-44.503 99.4-99.4v-18.5z" fill="#a3b9cc"/><path d="m156.6 186.45v-79.55c0-54.897 44.503-99.4 99.4-99.4s99.4 44.503 99.4 99.4v79.551z" fill="#868eaf"/><path d="m421.667 256c0 91.349-74.318 165.667-165.667 165.667s-165.667-74.318-165.667-165.667v-13.283h33.133v13.283c0 73.079 59.454 132.533 132.533 132.533s132.534-59.454 132.534-132.533v-13.283h33.133v13.283z" fill="#bdd3dd"/><g fill="#abc4d6"><path d="m398.95 242.717v13.283c0 87.531-68.238 159.413-154.308 165.27 3.755.255 7.54.397 11.358.397 91.349 0 165.667-74.317 165.667-165.667v-13.283z"/><path d="m233.283 388.533c3.826 0 7.613-.172 11.358-.492-67.781-5.781-121.174-62.789-121.174-132.041v-13.283h-22.717v13.283c0 73.079 59.454 132.533 132.533 132.533z"/></g><path d="m421.95 247.717c4.418 0 8-3.582 8-8v-33.699c0-4.418-3.582-8-8-8h-331.9c-4.418 0-8 3.582-8 8v33.699c0 4.418 3.582 8 8 8z" fill="#a0c8ff"/><path d="m256 7.5c-3.89 0-7.726.231-11.5.666 49.479 5.701 87.9 47.727 87.9 98.734v79.551h23v-79.551c0-54.897-44.503-99.4-99.4-99.4z" fill="#7d83ad"/><path d="m363.967 256h-215.934c-4.418 0-8-3.582-8-8v-58.549c0-4.418 3.582-8 8-8h215.933c4.418 0 8 3.582 8 8v58.549c.001 4.418-3.581 8-7.999 8z" fill="#bdd3dd"/><path d="m363.967 181.451h-23c4.418 0 8 3.582 8 8v58.549c0 4.418-3.582 8-8 8h23c4.418 0 8-3.582 8-8v-58.549c0-4.418-3.582-8-8-8z" fill="#abc4d6"/><path d="m421.95 198.017h-23c4.418 0 8 3.582 8 8v33.699c0 4.418-3.582 8-8 8h23c4.418 0 8-3.582 8-8v-33.699c0-4.418-3.582-8-8-8z" fill="#91b2fa"/></g><path d="m380.533 504.5h-249.066c-4.418 0-8-3.582-8-8v-17.133c0-4.418 3.582-8 8-8h249.067c4.418 0 8 3.582 8 8v17.133c-.001 4.418-3.582 8-8.001 8z" fill="#868eaf"/><path d="m380.533 471.367h-23c4.418 0 8 3.582 8 8v17.133c0 4.418-3.582 8-8 8h23c4.418 0 8-3.582 8-8v-17.133c0-4.419-3.581-8-8-8z" fill="#7d83ad"/></g><g><path d="m247.717 99.4h-16.567c-4.142 0-7.5 3.358-7.5 7.5s3.358 7.5 7.5 7.5h16.567c4.142 0 7.5-3.358 7.5-7.5s-3.358-7.5-7.5-7.5z"/><path d="m230.367 73.767c0-4.142-3.358-7.5-7.5-7.5h-16.567c-4.142 0-7.5 3.358-7.5 7.5s3.358 7.5 7.5 7.5h16.567c4.142 0 7.5-3.358 7.5-7.5z"/><path d="m272.567 66.267h-16.567c-4.142 0-7.5 3.358-7.5 7.5s3.358 7.5 7.5 7.5h16.567c4.142 0 7.5-3.358 7.5-7.5s-3.358-7.5-7.5-7.5z"/><path d="m421.95 190.517h-42.483v-1.066c0-8.547-6.953-15.5-15.5-15.5h-1.067v-67.051c0-58.945-47.955-106.9-106.9-106.9s-106.9 47.955-106.9 106.9v67.051h-1.067c-8.547 0-15.5 6.953-15.5 15.5v1.066h-42.483c-8.547 0-15.5 6.953-15.5 15.5v33.7c0 5.941 3.364 11.106 8.284 13.706v2.577c0 84.43 60.741 154.929 140.816 170.123v37.743h-92.183c-8.547 0-15.5 6.953-15.5 15.5v25.134c0 4.142 3.358 7.5 7.5 7.5h265.066c4.142 0 7.5-3.358 7.5-7.5v-25.133c0-8.547-6.953-15.5-15.5-15.5h-92.183v-37.715c34.429-6.482 66.038-23.288 91.196-48.923 2.901-2.956 2.856-7.705-.1-10.606-2.957-2.9-7.705-2.857-10.606.1-30.026 30.596-70.1 47.445-112.84 47.445-87.213 0-158.167-70.953-158.167-158.167v-.783h18.133v.782c0 77.214 62.819 140.033 140.033 140.033s140.034-62.819 140.034-140.033v-.783h18.133v.783c0 31.239-9.135 61.47-26.417 87.424-2.296 3.448-1.362 8.103 2.086 10.399 3.447 2.296 8.104 1.362 10.4-2.086 18.927-28.425 28.931-61.531 28.931-95.738v-2.577c4.92-2.601 8.284-7.765 8.284-13.706v-33.7c0-8.546-6.953-15.499-15.5-15.499zm-40.917 288.85v17.633h-250.066v-17.633c0-.276.224-.5.5-.5h99.683 49.7 99.683c.276 0 .5.224.5.5zm-107.683-51.054v35.554h-34.7v-35.567c5.708.57 11.495.866 17.35.866 5.834.001 11.623-.287 17.35-.853zm-109.25-321.413c0-50.674 41.226-91.9 91.9-91.9s91.9 41.226 91.9 91.9v67.051h-183.8zm-16.567 82.551c0-.276.224-.5.5-.5h207.357.01s.006 0 .01 0h8.557c.276 0 .5.224.5.5v8.566 49.7.283c0 .276-.224.5-.5.5h-135.52c-4.142 0-7.5 3.358-7.5 7.5s3.358 7.5 7.5 7.5h119.145c-3.829 47.179-43.443 84.4-91.592 84.4s-87.764-37.221-91.592-84.4h34.04c4.142 0 7.5-3.358 7.5-7.5s-3.358-7.5-7.5-7.5h-50.414c-.276 0-.5-.224-.5-.5v-.283-49.7-8.566zm-57.199 50.766h-.284c-.276 0-.5-.224-.5-.5v-33.7c0-.276.224-.5.5-.5h42.483v34.7h-9.066zm290.699 15.783c0 68.943-56.09 125.033-125.033 125.033s-125.033-56.09-125.033-125.033v-.783h3.36c2.601 4.919 7.765 8.283 13.706 8.283h1.334c3.863 55.459 50.21 99.4 106.633 99.4s102.77-43.942 106.633-99.4h1.334c5.941 0 11.105-3.364 13.706-8.283h3.36zm7.5-15.783h-9.066v-34.7h42.483c.276 0 .5.224.5.5v33.7c0 .276-.224.5-.5.5h-.284z"/></g></g></svg>