<svg height="496pt" viewBox="-96 0 496 496" width="496pt" xmlns="http://www.w3.org/2000/svg"><g fill="#f0d0b4"><path d="m128 216v56c0 9.039062-5.039062 16.878906-12.398438 20.960938-9.679687-22.160157-24.800781-41.921876-44.402343-57.199219l-15.199219-11.761719v-8zm0 0"/><path d="m176 208v64c0 13.28125-10.71875 24-24 24-6.640625 0-12.640625-2.71875-16.960938-7.039062-4.320312-4.320313-7.039062-10.320313-7.039062-16.960938v-56h24c9.039062 0 17.359375-2.960938 24-8zm0 0"/><path d="m272 232v40c0 13.28125-10.71875 24-24 24s-24-10.71875-24-24v-96c0-13.28125 10.71875-24 24-24 6.640625 0 12.640625 2.71875 16.960938 7.039062 4.320312 4.320313 7.039062 10.320313 7.039062 16.960938zm0 0"/><path d="m224 176v96c0 13.28125-10.71875 24-24 24-6.640625 0-12.640625-2.71875-16.960938-7.039062-4.320312-4.320313-7.039062-10.320313-7.039062-16.960938v-64c9.679688-7.28125 16-18.960938 16-32 0-4.398438-3.601562-8-8-8h-8v-24c0-13.28125 10.71875-24 24-24 6.640625 0 12.640625 2.71875 16.960938 7.039062 4.320312 4.320313 7.039062 10.320313 7.039062 16.960938zm0 0"/><path d="m128 144v24h-48v-24c0-13.28125 10.71875-24 24-24 6.640625 0 12.640625 2.71875 16.960938 7.039062 4.320312 4.320313 7.039062 10.320313 7.039062 16.960938zm0 0"/><path d="m176 144v24h-48v-136c0-13.28125 10.71875-24 24-24 6.640625 0 12.640625 2.71875 16.960938 7.039062 4.320312 4.320313 7.039062 10.320313 7.039062 16.960938zm0 0"/><path d="m128 272c0 6.640625 2.71875 12.640625 7.039062 16.960938 4.320313 4.320312 10.320313 7.039062 16.960938 7.039062 13.28125 0 24-10.71875 24-24 0 6.640625 2.71875 12.640625 7.039062 16.960938 4.320313 4.320312 10.320313 7.039062 16.960938 7.039062 13.28125 0 24-10.71875 24-24 0 13.28125 10.71875 24 24 24s24-10.71875 24-24v67.839844c0 2.71875-.71875 5.441406-2 7.761718l-36 64.796876c-1.28125 2.320312-2 5.042968-2 7.761718v67.839844h-160v-60.800781c0-7.277344-2.480469-14.320313-7.039062-20l-49.921876-62.398438c-4.558593-5.679687-7.039062-12.722656-7.039062-20v-111.199219c0-3.601562 1.199219-7.121093 3.519531-10l23.679688-29.601562c3.039062-3.761719 7.601562-6 12.480469-6h136.320312c4.398438 0 8 3.601562 8 8 0 13.039062-6.320312 24.71875-16 32-6.640625 5.039062-14.960938 8-24 8h-96v8l15.199219 11.761719c19.601562 15.277343 34.722656 35.039062 44.402343 57.199219 7.359376-4.082032 12.398438-11.921876 12.398438-20.960938zm0 0"/></g><path d="m248 144c-5.855469 0-11.273438 1.695312-16 4.449219v-4.449219c0-17.648438-14.351562-32-32-32-5.855469 0-11.273438 1.695312-16 4.449219v-84.449219c0-17.648438-14.351562-32-32-32s-32 14.351562-32 32v84.449219c-4.726562-2.753907-10.144531-4.449219-16-4.449219-17.648438 0-32 14.351562-32 32v16h-24.3125c-7.328125 0-14.160156 3.28125-18.742188 9.007812l-23.6875 29.609376c-3.394531 4.238281-5.257812 9.558593-5.257812 14.992187v111.167969c0 9.054687 3.113281 17.925781 8.769531 24.992187l49.972657 62.46875c3.394531 4.234375 5.257812 9.5625 5.257812 14.984375v52.777344h-32v16h240v-16h-32v-59.847656c0-1.359375.34375-2.703125 1-3.886719l35.976562-64.746094c1.984376-3.558593 3.023438-7.589843 3.023438-11.671875v-163.847656c0-17.648438-14.351562-32-32-32zm-48-16c8.824219 0 16 7.175781 16 16v128c0 8.824219-7.175781 16-16 16s-16-7.175781-16-16v-60.320312c9.792969-8.792969 16-21.503907 16-35.679688 0-8.824219-7.175781-16-16-16v-16c0-8.824219 7.175781-16 16-16zm-81.976562 151.390625c-10.121094-19.101563-24.253907-36.144531-41.953126-49.902344l-7.039062-5.488281h50.96875v48c0 2.671875-.792969 5.144531-1.976562 7.390625zm17.976562-55.390625h16c5.617188 0 10.984375-1.023438 16-2.800781v50.800781c0 8.824219-7.175781 16-16 16s-16-7.175781-16-16zm0-192c0-8.824219 7.175781-16 16-16s16 7.175781 16 16v128h-32zm-48 112c0-8.824219 7.175781-16 16-16s16 7.175781 16 16v16h-32zm175 199.742188-35.976562 64.746093c-1.984376 3.550781-3.023438 7.582031-3.023438 11.664063v59.847656h-144v-52.777344c0-9.054687-3.113281-17.925781-8.769531-24.992187l-49.972657-62.46875c-3.394531-4.234375-5.257812-9.5625-5.257812-14.984375v-111.167969c0-1.808594.625-3.578125 1.753906-4.992187l23.6875-29.609376c1.527344-1.910156 3.804688-3.007812 6.246094-3.007812h136.3125c0 17.648438-14.351562 32-32 32h-104v19.910156l18.257812 14.195313c34.148438 26.574219 53.742188 66.621093 53.742188 109.894531h16c0-19.640625-3.679688-38.65625-10.535156-56.335938.917968-.832031 1.808594-1.6875 2.625-2.617187 5.863281 6.65625 14.359375 10.953125 23.910156 10.953125 9.601562 0 18.128906-4.335938 24-11.054688 5.871094 6.71875 14.398438 11.054688 24 11.054688s18.128906-4.335938 24-11.054688c5.871094 6.71875 14.398438 11.054688 24 11.054688 5.855469 0 11.273438-1.695312 16-4.449219v40.304688c0 1.351562-.34375 2.695312-1 3.886719zm1-71.742188c0 8.824219-7.175781 16-16 16s-16-7.175781-16-16v-96c0-8.824219 7.175781-16 16-16s16 7.175781 16 16zm0 0"/><path d="m0 480h16v16h-16zm0 0"/><path d="m288 480h16v16h-16zm0 0"/></svg>