<?xml version="1.0" encoding="iso-8859-1"?>
<!-- Generator: Adobe Illustrator 19.0.0, SVG Export Plug-In . SVG Version: 6.00 Build 0)  -->
<svg version="1.1" id="Capa_1" xmlns="http://www.w3.org/2000/svg" xmlns:xlink="http://www.w3.org/1999/xlink" x="0px" y="0px"
	 viewBox="0 0 512 512" style="enable-background:new 0 0 512 512;" xml:space="preserve">
<path style="fill:#9D9F9C;" d="M246.269,36.622H120.664c-5.523,0-10-4.477-10-10v-9.121c0-5.523,4.477-10,10-10h125.605
	c5.523,0,10,4.477,10,10v9.121C256.269,32.145,251.792,36.622,246.269,36.622z"/>
<path style="fill:#62A9C3;" d="M358.193,329.774c0,96.499-78.228,174.727-174.727,174.727S8.74,426.273,8.74,329.774
	s78.228-174.727,174.727-174.727S358.193,233.276,358.193,329.774z"/>
<path style="fill:#38729A;" d="M8.74,329.774c0-25.097,5.302-48.953,14.83-70.524c42.879-14.121,98.768-22.664,159.897-22.664
	s117.018,8.543,159.897,22.664c9.528,21.571,14.83,45.426,14.83,70.524s-5.302,48.953-14.83,70.524
	c-42.879,14.121-98.768,22.664-159.897,22.664S66.449,414.419,23.57,400.298C14.042,378.727,8.74,354.872,8.74,329.774z"/>
<path style="fill:#5192A9;" d="M343.363,400.298c-21.356,7.033-45.941,12.681-72.792,16.581
	c-3.899,26.851-9.547,51.436-16.581,72.792c-21.571,9.528-45.426,14.83-70.524,14.83s-48.953-5.302-70.524-14.83
	c-7.033-21.356-12.681-45.941-16.581-72.792c-26.851-3.899-51.436-9.548-72.792-16.581c-9.528-21.571-14.83-45.426-14.83-70.524
	h81.539c0-61.128,8.542-117.018,22.664-159.897c21.571-9.528,45.427-14.83,70.524-14.83s48.953,5.302,70.524,14.83
	c14.121,42.879,22.664,98.768,22.664,159.897h81.539C358.193,354.872,352.891,378.727,343.363,400.298z"/>
<path style="fill:#38729A;" d="M270.571,242.67c-27.06-3.93-56.422-6.083-87.104-6.083c-0.037,0-0.073,0-0.11,0
	c-5.977,0.001-10.837-4.81-10.837-10.787v-59.822c0-6,4.836-10.926,10.836-10.93c0.037,0,0.074,0,0.11,0
	c25.098,0,48.953,5.302,70.524,14.83C261.023,191.234,266.671,215.819,270.571,242.67z"/>
<path style="fill:#99CFD7;" d="M183.467,504.485c-0.414,0.003-0.825,0.016-1.24,0.016C85.728,504.501,7.5,426.273,7.5,329.774
	s78.228-174.727,174.727-174.727c0.414,0,0.826,0.013,1.24,0.016L183.467,504.485L183.467,504.485z"/>
<path style="fill:#85BBC8;" d="M183.467,502.815v1.67c-0.414,0.003-0.825,0.016-1.24,0.016C85.728,504.501,7.5,426.273,7.5,329.774
	s78.228-174.727,174.727-174.727c0.414,0,0.826,0.013,1.24,0.016v1.67c-85.01,11.814-150.459,84.778-150.459,173.041
	S98.456,491.001,183.467,502.815z"/>
<path style="fill:#62A9C3;" d="M182.605,236.589v186.372c-0.126,0-0.252,0.002-0.378,0.002c-61.128,0-117.018-8.542-159.897-22.664
	C12.802,378.727,7.5,354.872,7.5,329.774s5.302-48.953,14.83-70.524c42.879-14.121,98.768-22.664,159.897-22.664
	C182.353,236.587,182.478,236.589,182.605,236.589z"/>
<path style="fill:#85BBC8;" d="M276.654,329.774c0,61.128-8.543,117.018-22.664,159.897c-21.571,9.528-45.426,14.83-70.524,14.83
	s-48.953-5.302-70.524-14.83c-7.018-21.309-12.656-45.833-16.554-72.615c-27.343-3.904-52.368-9.615-74.059-16.758
	C12.802,378.727,7.5,354.872,7.5,329.774h82.779h91.086H276.654z"/>
<path style="fill:#62A9C3;" d="M33.008,329.774c0,28.368,6.767,55.154,18.765,78.84c-10.365-2.494-20.207-5.275-29.443-8.317
	c-9.528-21.57-14.83-45.425-14.83-70.523s5.302-48.953,14.83-70.524c9.235-3.042,19.078-5.822,29.443-8.317
	C39.775,274.621,33.008,301.406,33.008,329.774z"/>
<path style="fill:#5192A9;" d="M51.773,250.934c-11.998,23.687-18.765,50.472-18.765,78.84H7.5c0-25.097,5.302-48.953,14.83-70.524
	C31.565,256.209,41.408,253.428,51.773,250.934z"/>
<path style="fill:#62A9C3;" d="M270.571,416.879c-27.036,3.926-56.37,6.079-87.024,6.082v81.54
	c-25.097,0-48.953-4.699-70.524-14.227c-7.059-21.435-12.724-46.273-16.625-73.39c-0.012-0.002-0.025-0.003-0.037-0.005
	c-3.93-27.06-6.083-56.422-6.083-87.104h0.081c0-61.128,8.542-117.591,22.664-160.469c21.571-9.528,45.178-14.561,70.524-14.257
	v174.727h93.107C276.654,360.457,274.5,389.819,270.571,416.879z"/>
<path style="fill:#85BBC8;" d="M96.401,242.665c27.05-3.926,56.397-6.078,87.066-6.078c0.027,0,0.054,0.001,0.081,0.001v186.373
	c-0.027,0-0.054,0.001-0.081,0.001c-30.669,0-60.018-2.152-87.068-6.078c-3.902-27.128-6.039-56.539-6.039-87.109
	C90.36,299.198,92.497,269.79,96.401,242.665z"/>
<path style="fill:#99CFD7;" d="M183.521,329.774v93.186c-0.126,0-1.168,0.002-1.294,0.002c-30.206,0-59.128-2.089-85.838-5.903
	c-3.946-27.11-6.11-56.533-6.11-87.285L183.521,329.774L183.521,329.774z"/>
<path style="fill:#5192A9;" d="M183.547,155.048v1.674c-27.855,3.858-53.608,14.278-75.652,29.655
	c1.615-5.899,3.326-11.598,5.128-17.072C134.594,159.777,158.202,154.745,183.547,155.048z M113.023,490.274
	c21.571,9.528,45.427,14.227,70.524,14.227v-1.674c-27.859-3.858-53.615-14.281-75.662-29.662
	C109.503,479.077,111.217,484.789,113.023,490.274z"/>
<path style="fill:#FFC261;" d="M309.106,119.19l14.084,39.605c0.917,2.58,3.864,3.8,6.337,2.625l37.964-18.046
	c3.927-1.866,8.023,2.23,6.156,6.156l-18.046,37.964c-1.175,2.473,0.045,5.419,2.625,6.337l39.605,14.084
	c4.096,1.457,4.096,7.25,0,8.706l-39.605,14.084c-2.58,0.917-3.8,3.864-2.625,6.337l18.046,37.964
	c1.866,3.927-2.23,8.023-6.156,6.156l-37.964-18.046c-2.473-1.175-5.419,0.045-6.337,2.625l-14.084,39.605
	c-1.457,4.096-7.25,4.096-8.706,0l-14.084-39.605c-0.917-2.58-3.864-3.8-6.337-2.625l-37.964,18.046
	c-3.927,1.866-8.023-2.23-6.156-6.156l18.046-37.964c1.175-2.473-0.045-5.419-2.625-6.337l-39.605-14.084
	c-4.096-1.457-4.096-7.25,0-8.706l39.605-14.084c2.58-0.917,3.8-3.864,2.625-6.337l-18.046-37.964
	c-1.866-3.927,2.23-8.023,6.156-6.156l37.964,18.046c2.473,1.175,5.419-0.045,6.337-2.625L300.4,119.19
	C301.857,115.093,307.65,115.093,309.106,119.19z"/>
<path style="fill:#F3B05F;" d="M400.499,380.607l-23.611,12.913c-0.651,0.356-1.187,0.892-1.544,1.543l-12.913,23.611
	c-1.473,2.693-5.34,2.693-6.813,0l-12.913-23.611c-0.356-0.652-0.892-1.187-1.544-1.543l-23.611-12.913
	c-2.693-1.473-2.693-5.34,0-6.813l23.611-12.913c0.651-0.356,1.187-0.892,1.544-1.543l12.913-23.611
	c1.473-2.693,5.341-2.693,6.813,0l12.913,23.611c0.356,0.651,0.892,1.187,1.544,1.543l23.611,12.913
	C403.192,375.267,403.192,379.135,400.499,380.607z M502.48,275.597l-17.336-9.481c-0.651-0.356-1.187-0.892-1.543-1.544
	l-9.481-17.336c-1.473-2.693-5.341-2.693-6.813,0l-9.481,17.336c-0.356,0.651-0.892,1.187-1.544,1.544l-17.335,9.481
	c-2.693,1.473-2.693,5.34,0,6.813l17.335,9.481c0.652,0.356,1.187,0.892,1.544,1.543l9.481,17.335c1.473,2.693,5.34,2.693,6.813,0
	l9.481-17.335c0.356-0.651,0.892-1.187,1.543-1.543l17.336-9.481C505.173,280.937,505.173,277.07,502.48,275.597z M325.013,263.427
	c-24.693-25.288-40.491-61.475-41.46-101.849c-1.12,0.412-2.4,0.399-3.574-0.159l-37.964-18.046
	c-3.927-1.867-8.023,2.23-6.156,6.156l18.046,37.964c1.175,2.473-0.045,5.419-2.625,6.337l-39.605,14.084
	c-4.096,1.457-4.096,7.25,0,8.706l39.605,14.084c2.58,0.917,3.8,3.864,2.625,6.337l-18.046,37.964
	c-1.866,3.927,2.23,8.023,6.156,6.156l37.964-18.046c2.473-1.175,5.419,0.045,6.337,2.625l14.084,39.605
	c1.457,4.096,7.25,4.096,8.706,0l14.084-39.605C323.544,264.748,324.2,263.959,325.013,263.427z"/>
<path d="M508.085,272.416l-22.756-12.383l-12.442-22.637c-1.317-2.398-3.836-3.888-6.572-3.888c-2.735,0-5.255,1.49-6.572,3.887
	L447.3,260.032l-22.756,12.383c-2.413,1.313-3.915,3.841-3.915,6.588s1.502,5.274,3.915,6.588l22.756,12.383l12.443,22.637
	c1.317,2.397,3.837,3.887,6.572,3.887c2.736,0,5.255-1.49,6.572-3.888l12.442-22.637l22.756-12.383
	c2.413-1.313,3.915-3.841,3.915-6.588S510.498,273.729,508.085,272.416z M476.229,285.849c-1.26,0.686-2.297,1.718-2.987,2.976
	l-6.928,12.604l-6.929-12.604c-0.69-1.257-1.728-2.29-2.987-2.975l-12.58-6.846l12.58-6.846c1.26-0.686,2.297-1.718,2.987-2.975
	l6.929-12.604l6.928,12.604c0.69,1.257,1.728,2.29,2.987,2.976l12.58,6.846L476.229,285.849z M410.581,370.613l-29.062-15.815
	l-15.337-27.902c-0.136-8.613-0.879-17.236-2.213-25.673c-0.647-4.09-4.484-6.888-8.58-6.236c-4.091,0.647-6.883,4.488-6.236,8.58
	c0.975,6.157,1.604,12.423,1.885,18.708h-66.823c-0.054-4.735-0.159-9.465-0.314-14.134c-0.138-4.14-3.608-7.355-7.745-7.247
	c-4.14,0.138-7.385,3.605-7.247,7.746c0.15,4.504,0.252,9.067,0.306,13.636h-78.611v-78.144c4.419,0.051,8.837,0.146,13.206,0.286
	c0.081,0.002,0.163,0.004,0.244,0.004c4.03,0,7.361-3.202,7.491-7.26c0.133-4.14-3.116-7.604-7.257-7.736
	c-4.527-0.145-9.106-0.243-13.685-0.295v-66.42c16.237,0.707,32.149,3.713,47.423,8.964l7.716,16.151l-36.791,13.019
	c-4.911,1.738-8.085,6.222-8.085,11.423s3.173,9.686,8.085,11.424l36.791,13.018l-16.751,35.063
	c-2.236,4.682-1.314,10.083,2.349,13.761c3.678,3.692,9.098,4.638,13.813,2.408l35.316-16.704l13.093,36.631
	c1.747,4.889,6.235,8.048,11.436,8.048c0.001,0,0.001,0,0.002,0c5.199,0,9.689-3.159,11.438-8.048l13.092-36.632l35.317,16.705
	c4.714,2.229,10.134,1.283,13.812-2.409c3.663-3.678,4.585-9.08,2.349-13.761l-16.75-35.064l36.79-13.018
	c4.912-1.738,8.086-6.223,8.086-11.424s-3.175-9.686-8.086-11.423l-36.79-13.018l16.75-35.063
	c2.236-4.682,1.314-10.084-2.349-13.762c-3.678-3.691-9.096-4.637-13.813-2.408l-35.316,16.704l-13.092-36.633
	c-1.749-4.889-6.238-8.047-11.439-8.047c-5.2,0-9.688,3.16-11.436,8.048l-13.093,36.632l-35.316-16.704
	c-4.713-2.229-10.134-1.285-13.813,2.408c-3.663,3.678-4.585,9.08-2.349,13.761l0.303,0.633c-12.614-3.265-25.558-5.172-38.69-5.698
	V44.122h55.912c9.515,0,17.256-7.719,17.256-17.207v-9.707c-0.002-9.488-7.744-17.207-17.258-17.207h-76.04
	c-4.143,0-7.5,3.358-7.5,7.5s3.357,7.5,7.5,7.5h76.04c1.244,0,2.256,0.99,2.256,2.207v9.707c0,1.217-1.012,2.207-2.256,2.207H119.69
	c-1.244,0-2.256-0.99-2.256-2.207v-9.707c0-1.217,1.012-2.207,2.256-2.207h23.143c4.143,0,7.5-3.358,7.5-7.5s-3.357-7.5-7.5-7.5
	H119.69c-9.515,0-17.256,7.719-17.256,17.207v9.707c0,9.488,7.741,17.207,17.256,17.207h55.912v103.577
	c-23.27,0.938-45.437,6.218-65.698,15.047c-0.477,0.156-0.937,0.358-1.372,0.604c-41.102,18.313-74.23,51.276-92.639,92.178
	c-0.251,0.438-0.457,0.901-0.615,1.381C5.453,279.235,0,303.882,0,329.774s5.453,50.539,15.278,72.865
	c0.158,0.48,0.364,0.943,0.615,1.382c18.408,40.901,51.535,73.864,92.637,92.176c0.438,0.247,0.897,0.45,1.376,0.606
	c22.43,9.774,47.186,15.197,73.196,15.197c31.813,0,63.148-8.247,90.622-23.849c26.642-15.13,49.238-36.87,65.346-62.87
	c2.181-3.521,1.095-8.144-2.426-10.325c-3.52-2.181-8.143-1.096-10.326,2.426c-15.235,24.592-35.982,44.296-60.153,57.95
	c4.48-16.148,8.181-33.569,11.041-51.859c11.576-1.79,22.812-3.915,33.604-6.362c4.039-0.917,6.571-4.934,5.655-8.974
	c-0.917-4.039-4.93-6.57-8.974-5.655c-9.058,2.055-18.439,3.875-28.084,5.453c2.89-22.689,4.525-46.477,4.806-70.661h62.009
	l-9.633,17.523l-29.062,15.815c-2.413,1.313-3.915,3.841-3.915,6.588s1.502,5.274,3.915,6.587l29.062,15.816l15.893,28.912
	c1.317,2.397,3.836,3.887,6.572,3.887s5.255-1.49,6.572-3.887l15.893-28.912l29.062-15.816c2.413-1.313,3.915-3.84,3.915-6.587
	S412.994,371.926,410.581,370.613z M276.892,168.199c3.096,1.465,6.688,1.555,9.856,0.242c3.161-1.309,5.633-3.905,6.782-7.122
	l11.468-32.085l11.467,32.085c1.149,3.216,3.621,5.813,6.781,7.122c3.167,1.313,6.761,1.225,9.857-0.241l30.881-14.606
	l-14.649,30.667c-1.478,3.092-1.573,6.681-0.263,9.846c1.313,3.172,3.925,5.648,7.165,6.794l32.125,11.367l-32.125,11.367
	c-3.241,1.147-5.853,3.624-7.166,6.796c-1.31,3.166-1.214,6.754,0.263,9.844l14.65,30.668l-30.882-14.607
	c-3.098-1.465-6.689-1.553-9.857-0.24c-3.159,1.31-5.631,3.905-6.78,7.122l-11.467,32.085l-11.468-32.085
	c-1.149-3.217-3.621-5.813-6.781-7.122c-1.489-0.617-3.073-0.924-4.655-0.924c-1.781,0-3.561,0.39-5.201,1.166l-30.882,14.606
	l14.651-30.669c1.477-3.091,1.571-6.68,0.261-9.844c-1.313-3.171-3.925-5.648-7.165-6.794l-32.125-11.367l32.124-11.367
	c3.24-1.146,5.853-3.622,7.166-6.793c1.311-3.165,1.216-6.754-0.261-9.847l-14.651-30.668L276.892,168.199z M99.973,184.462
	c-4.452,16.084-8.129,33.427-10.977,51.632c-18.31,2.834-35.762,6.498-51.938,10.932C52.019,221,73.804,199.335,99.973,184.462z
	 M27.981,265.334c17.872-5.65,37.7-10.251,58.814-13.708c-2.888,22.684-4.523,46.471-4.804,70.648H15.167
	C16.063,302.179,20.542,282.99,27.981,265.334z M37.059,412.522c16.17,4.432,33.607,8.094,51.91,10.927
	c2.865,18.311,6.548,35.598,10.996,51.632C73.802,460.209,52.017,438.545,37.059,412.522z M175.603,496.837
	c-20.23-0.888-39.539-5.349-57.311-12.764c-5.66-17.717-10.283-37.329-13.779-58.442c22.821,2.879,46.763,4.51,71.09,4.788V496.837z
	 M175.603,415.418c-54.146-0.632-106.154-8.094-147.621-21.203c-7.439-17.656-11.918-36.845-12.814-56.94h66.824
	c0.202,17.613,1.114,35.091,2.719,52.058c0.39,4.124,4.043,7.146,8.173,6.76c4.124-0.39,7.15-4.049,6.761-8.173
	c-1.562-16.501-2.45-33.503-2.651-50.645h55.598c4.143,0,7.5-3.358,7.5-7.5s-3.357-7.5-7.5-7.5H96.993
	c0.297-25.056,2.078-49.647,5.225-72.939c23.433-3.135,48.177-4.91,73.385-5.204V415.418z M175.603,229.13
	c-24.323,0.278-48.252,1.907-71.07,4.786c3.472-20.977,8.091-40.683,13.76-58.44c17.771-7.415,37.08-11.875,57.311-12.763v66.417
	H175.603z M247.859,484.243c-17.91,7.401-37.227,11.729-57.257,12.596V430.42c24.272-0.277,48.216-1.893,71.068-4.77
	C258.188,446.687,253.552,466.445,247.859,484.243z M263.986,410.225c-23.484,3.139-48.235,4.901-73.384,5.193v-78.144h78.611
	C268.916,362.333,267.134,386.93,263.986,410.225z M372.42,387.479c-1.26,0.686-2.297,1.718-2.987,2.975l-10.378,18.88
	l-10.378-18.88c-0.69-1.257-1.728-2.289-2.987-2.975l-18.886-10.278l18.886-10.277c1.26-0.686,2.297-1.718,2.987-2.975l10.378-18.88
	l10.378,18.88c0.69,1.257,1.728,2.29,2.987,2.975l18.886,10.277L372.42,387.479z"/>
<g>
</g>
<g>
</g>
<g>
</g>
<g>
</g>
<g>
</g>
<g>
</g>
<g>
</g>
<g>
</g>
<g>
</g>
<g>
</g>
<g>
</g>
<g>
</g>
<g>
</g>
<g>
</g>
<g>
</g>
</svg>
