<?xml version="1.0" encoding="iso-8859-1"?>
<!-- Generator: Adobe Illustrator 19.0.0, SVG Export Plug-In . SVG Version: 6.00 Build 0)  -->
<svg version="1.1" id="Capa_1" xmlns="http://www.w3.org/2000/svg" xmlns:xlink="http://www.w3.org/1999/xlink" x="0px" y="0px"
	 viewBox="0 0 512 512" style="enable-background:new 0 0 512 512;" xml:space="preserve">
<path style="fill:#FF94D2;" d="M37.341,196.995v-88.718H7.34v88.718c0,8.094,6.562,14.656,14.656,14.656h30.001
	C43.902,211.651,37.341,205.09,37.341,196.995z"/>
<rect x="7.34" y="108.277" style="fill:#F77CC9;" width="29.999" height="36.421"/>
<circle style="fill:#F7CF69;" cx="35.66" cy="210.345" r="24.867"/>
<circle style="fill:#FF94D2;" cx="85.158" cy="215.245" r="24.867"/>
<circle style="fill:#F7CF69;" cx="130.607" cy="235.464" r="24.867"/>
<circle style="fill:#FF94D2;" cx="166.946" cy="269.303" r="24.867"/>
<circle style="fill:#F7CF69;" cx="190.855" cy="312.902" r="24.867"/>
<ellipse style="fill:#FF94D2;" cx="211.035" cy="359.111" rx="26.637" ry="25.299"/>
<circle style="fill:#F7CF69;" cx="476.338" cy="210.345" r="24.867"/>
<circle style="fill:#FF94D2;" cx="426.849" cy="215.245" r="24.867"/>
<circle style="fill:#F7CF69;" cx="381.39" cy="235.464" r="24.867"/>
<circle style="fill:#FF94D2;" cx="345.051" cy="269.303" r="24.867"/>
<circle style="fill:#F7CF69;" cx="321.142" cy="312.902" r="24.867"/>
<ellipse style="fill:#FF94D2;" cx="300.962" cy="359.111" rx="26.637" ry="25.299"/>
<path id="SVGCleanerId_0" style="fill:#EC5569;" d="M427.45,124.883L427.45,124.883c5.672-5.671,14.867-5.671,20.537,0l3.204,3.204
	c0.764,0.764,2.002,0.764,2.766,0l3.152-3.152c5.671-5.671,14.867-5.671,20.537,0l0,0c5.671,5.671,5.671,14.867,0,20.537
	l-23.691,23.691c-0.764,0.764-2.002,0.764-2.766,0L427.45,145.42C421.779,139.749,421.779,130.555,427.45,124.883z"/>
<path style="fill:#FFC7E7;" d="M512,103.917H0v91.337c0,8.333,6.755,15.088,15.088,15.088h31.277
	c59.871,0,114.075,35.41,138.129,90.237l38.42,87.57c5.314,12.112,17.288,19.935,30.514,19.935h5.143
	c13.226,0,25.2-7.823,30.514-19.935l38.42-87.57c24.054-54.827,78.258-90.237,138.13-90.237h31.277
	c8.333,0,15.088-6.755,15.088-15.088V103.917z"/>
<g>
	<path style="fill:#EC5569;" d="M328.01,299.445l-5.089,5.089c-0.764,0.764-2.002,0.764-2.766,0l-23.739-23.743
		c-5.671-5.671-5.671-14.867,0-20.537l0,0c5.671-5.671,14.867-5.671,20.537,0l3.204,3.204c0.764,0.764,2.002,0.764,2.766,0
		l3.152-3.152c5.671-5.671,14.867-5.671,20.537,0l0,0c1.318,1.318,2.33,2.826,3.035,4.436"/>
	<path style="fill:#EC5569;" d="M162.334,264.717c0.706-1.62,1.722-3.138,3.047-4.464l0,0c5.671-5.671,14.867-5.671,20.537,0
		l3.204,3.204c0.764,0.764,2.002,0.764,2.766,0l3.152-3.152c5.671-5.671,14.867-5.671,20.537,0l0,0
		c5.671,5.671,5.671,14.867,0,20.537l-23.691,23.691c-0.764,0.764-2.002,0.764-2.766,0l-5.161-5.162"/>
	<path style="fill:#EC5569;" d="M230.898,331.173L230.898,331.173c5.672-5.671,14.867-5.671,20.537,0l3.204,3.204
		c0.764,0.764,2.002,0.764,2.766,0l3.152-3.152c5.671-5.671,14.867-5.671,20.537,0l0,0c5.671,5.671,5.671,14.867,0,20.537
		l-23.691,23.691c-0.764,0.764-2.002,0.764-2.766,0l-23.739-23.743C225.227,346.038,225.227,336.843,230.898,331.173z"/>
	<path style="fill:#EC5569;" d="M381.55,235.96l-19.618-19.621c-5.671-5.671-5.671-14.867,0-20.537l0,0
		c5.671-5.671,14.867-5.671,20.537,0l3.204,3.204c0.764,0.764,2.002,0.764,2.766,0l3.152-3.152c5.671-5.671,14.867-5.671,20.537,0
		l0,0c5.671,5.671,5.671,14.867,0,20.537l-6.317,6.317"/>
	<path style="fill:#EC5569;" d="M230.898,195.802L230.898,195.802c5.672-5.671,14.867-5.671,20.537,0l3.204,3.204
		c0.764,0.764,2.002,0.764,2.766,0l3.152-3.152c5.671-5.671,14.867-5.671,20.537,0l0,0c5.671,5.671,5.671,14.867,0,20.537
		l-23.691,23.691c-0.764,0.764-2.002,0.764-2.766,0l-23.739-23.743C225.227,210.669,225.227,201.473,230.898,195.802z"/>
	<path style="fill:#EC5569;" d="M106.277,222.748l-6.408-6.409c-5.671-5.671-5.671-14.867,0-20.537l0,0
		c5.671-5.671,14.867-5.671,20.537,0l3.204,3.204c0.764,0.764,2.002,0.764,2.766,0l3.152-3.152c5.671-5.671,14.867-5.671,20.537,0
		l0,0c5.671,5.671,5.671,14.867,0,20.537l-19.585,19.586"/>
	<path style="fill:#EC5569;" d="M296.415,124.883L296.415,124.883c5.672-5.671,14.867-5.671,20.537,0l3.204,3.204
		c0.764,0.764,2.002,0.764,2.766,0l3.152-3.152c5.671-5.671,14.867-5.671,20.537,0l0,0c5.671,5.671,5.671,14.867,0,20.537
		l-23.691,23.691c-0.764,0.764-2.002,0.764-2.766,0l-23.739-23.743C290.745,139.749,290.745,130.555,296.415,124.883z"/>
	<path style="fill:#EC5569;" d="M165.381,124.883L165.381,124.883c5.672-5.671,14.867-5.671,20.537,0l3.204,3.204
		c0.764,0.764,2.002,0.764,2.766,0l3.152-3.152c5.671-5.671,14.867-5.671,20.537,0l0,0c5.671,5.671,5.671,14.867,0,20.537
		l-23.691,23.691c-0.764,0.764-2.002,0.764-2.766,0l-23.739-23.743C159.71,139.749,159.71,130.555,165.381,124.883z"/>
</g>
<g>
	<path id="SVGCleanerId_0_1_" style="fill:#EC5569;" d="M427.45,124.883L427.45,124.883c5.672-5.671,14.867-5.671,20.537,0
		l3.204,3.204c0.764,0.764,2.002,0.764,2.766,0l3.152-3.152c5.671-5.671,14.867-5.671,20.537,0l0,0
		c5.671,5.671,5.671,14.867,0,20.537l-23.691,23.691c-0.764,0.764-2.002,0.764-2.766,0L427.45,145.42
		C421.779,139.749,421.779,130.555,427.45,124.883z"/>
</g>
<path style="fill:#EC5569;" d="M34.352,124.883L34.352,124.883c5.672-5.671,14.867-5.671,20.537,0l3.204,3.204
	c0.764,0.764,2.002,0.764,2.766,0l3.152-3.152c5.671-5.671,14.867-5.671,20.537,0l0,0c5.671,5.671,5.671,14.867,0,20.537
	l-23.691,23.691c-0.764,0.764-2.002,0.764-2.766,0L34.352,145.42C28.681,139.749,28.681,130.555,34.352,124.883z"/>
<g>
	<rect y="103.917" style="fill:#FF94D2;" width="511.997" height="37.496"/>
	<path style="fill:#FF94D2;" d="M253.802,388.148l-38.42-87.57c-24.054-54.827-78.258-90.237-138.129-90.237H46.366
		c59.871,0,114.075,35.41,138.129,90.237l38.42,87.57c5.314,12.112,17.288,19.935,30.514,19.935h5.143
		c4.511,0,8.867-0.929,12.872-2.609C263.705,402.229,257.302,396.13,253.802,388.148z"/>
</g>
<g>
	<path style="fill:#E63950;" d="M243.222,364.036l-13.705-31.237c-4.227,5.686-3.778,13.753,1.381,18.912L243.222,364.036z"/>
	<path style="fill:#E63950;" d="M191.887,304.534l16.987-16.987c-4.858-8.689-10.497-16.803-16.838-24.237l-0.147,0.147
		c-0.764,0.764-2.002,0.764-2.766,0l-3.204-3.203c-5.671-5.672-14.867-5.672-20.537,0l0,0c-1.325,1.325-2.341,2.843-3.047,4.464
		l0.085,0.136c8.547,10.296,15.801,21.822,21.461,34.393l0.078,0.126l5.161,5.162C189.884,305.298,191.123,305.298,191.887,304.534z
		"/>
	<path style="fill:#E63950;" d="M96.721,211.625c0.709,1.714,1.755,3.322,3.149,4.715l6.408,6.409l0.174,0.095
		c8.338,3.623,16.317,7.989,23.846,13.032l0.184,0.101l11.18-11.18C127.612,218.157,112.471,213.672,96.721,211.625z"/>
</g>
<g>
</g>
<g>
</g>
<g>
</g>
<g>
</g>
<g>
</g>
<g>
</g>
<g>
</g>
<g>
</g>
<g>
</g>
<g>
</g>
<g>
</g>
<g>
</g>
<g>
</g>
<g>
</g>
<g>
</g>
</svg>
