<?xml version="1.0" encoding="iso-8859-1"?>
<!-- Generator: Adobe Illustrator 19.0.0, SVG Export Plug-In . SVG Version: 6.00 Build 0)  -->
<svg version="1.1" id="Capa_1" xmlns="http://www.w3.org/2000/svg" xmlns:xlink="http://www.w3.org/1999/xlink" x="0px" y="0px"
	 viewBox="0 0 511.996 511.996" style="enable-background:new 0 0 511.996 511.996;" xml:space="preserve">
<path style="fill:#FFCD6B;" d="M419.434,492.735v12.475H91.629v-12.475c0-60.169,38.061-110.2,88.222-120.496
	c9.899,70.841,141.463,70.841,151.362,0c29.411,6.035,54.659,25.724,70.514,53.114l10.444,23.009
	C416.858,462.116,419.434,477.088,419.434,492.735z"/>
<path style="fill:#FFB64C;" d="M182.236,382.346c-1.076-3.194-1.891-6.557-2.387-10.106c-50.16,10.295-88.222,60.328-88.222,120.496
	v12.476h29.73v-12.477C121.358,444.107,146.221,402.106,182.236,382.346z"/>
<path style="fill:#3F7196;" d="M118.091,412.232c-29.446-12.504-48.618-38.725-48.618-71.092c0-37.92,26.411-68.599,62.668-74.487
	c-5.914-3.239-11.394-7.948-15.012-14.214c-8.202-14.206-6.215-31.498,3.691-43.418c-14.538-5.37-24.906-19.352-24.906-35.756
	s10.366-30.386,24.906-35.756c0-70.457,60.018-128.52,130.475-128.52h9.214c70.457,0,127.195,58.063,127.195,128.52
	c14.538,5.37,24.906,19.352,24.906,35.756s-9.458,30.556-23.997,35.926c19.423,67.549-12.315,120.51-90.076,145.779l-7.213-21.649
	l-71.343,0.132l-12.606,36.842c-38.588-1.904-69.307,15.808-89.097,41.939"/>
<path style="fill:#005F80;" d="M99.203,341.14c0-33.208,22.475-57.001,52.411-66.357c4.996-1.561,6.82-7.739,3.307-11.619
	c-3.273-3.615-6.259-7.602-8.062-10.726c-6.907-11.963-6.129-29.401,0.204-41.728c1.763-3.432,0.383-7.691-3.037-9.476
	c-10.839-5.654-18.382-14.395-18.382-27.97c0-14.821,9.433-24.025,21.977-29.624c2.492-1.112,4.105-3.563,4.204-6.291
	c2.368-65.135,54.528-122.762,118.931-127.944c-3.38-0.273-6.796-0.417-10.246-0.417h-9.214
	c-70.457,0-130.475,58.063-130.475,128.52c-14.538,5.37-24.906,19.351-24.906,35.756c0,16.404,10.366,30.386,24.906,35.755
	c-9.906,11.92-11.893,29.212-3.691,43.418c3.618,6.267,9.098,10.976,15.012,14.215c-36.257,5.889-62.668,36.567-62.668,74.487
	c0,32.367,19.173,58.588,48.618,71.092h0.186c3.064-4.046,6.392-7.889,9.969-11.49C110.17,386.568,99.203,365.615,99.203,341.14z"/>
<polygon style="fill:#B5D3E3;" points="393.858,320.233 331.507,199.562 282.851,224.703 345.203,345.374 357.215,308.97 
	393.505,321.25 "/>
<path style="fill:#FFCEBF;" d="M338.497,165.062c0.072,4.498-0.121,9.048-0.594,13.624l-10.101,97.773
	c-3.962,38.353-36.315,66.74-72.272,66.74l0,0c-35.957,0-68.31-28.386-72.272-66.74l-10.101-97.773
	c-0.472-4.57-0.665-9.115-0.595-13.608"/>
<g>
	<path style="fill:#EC5569;" d="M499.471,346.812c5.638,9.75,2.289,22.217-7.461,27.855l-40.826,23.574
		c-1.308,0.753-2.992,0.307-3.755-1.011l-23.515-40.736c-1.853-3.21-2.735-6.718-2.735-10.176c0-7.045,3.656-13.902,10.196-17.678
		c9.75-5.638,22.227-2.289,27.855,7.461l3.131,5.42c0.753,1.318,2.438,1.764,3.746,1.001l5.509-3.181
		C481.376,333.713,493.842,337.052,499.471,346.812z"/>
	<path style="fill:#EC5569;" d="M85.97,14.2c13.506,3.617,21.523,17.5,17.906,31.006l-15.151,56.542
		c-0.486,1.813-2.348,2.893-4.172,2.408L28.131,89.035C16.824,86.003,9.362,75.786,9.362,64.609c0-2.17,0.277-4.38,0.872-6.58
		c3.617-13.506,17.5-21.523,31.006-17.896l7.501,2.012c1.823,0.486,3.696-0.595,4.182-2.418l2.041-7.63
		C58.582,18.591,72.464,10.584,85.97,14.2z"/>
</g>
<g style="opacity:0.1;">
	<path d="M56.255,80.617c-11.306-3.032-18.769-13.248-18.769-24.426c0-2.17,0.277-4.38,0.872-6.579
		c0.909-3.394,2.467-6.441,4.504-9.044l-1.622-0.435c-13.506-3.626-27.389,4.39-31.006,17.897c-0.595,2.2-0.872,4.41-0.872,6.58
		c0,11.177,7.461,21.394,18.768,24.426l56.423,15.121c1.823,0.486,3.686-0.594,4.172-2.408l3.107-11.596L56.255,80.617z"/>
</g>
<path style="fill:#FFCD6B;" d="M465.126,28.579c0,13.635,20.453,34.078,34.088,34.078c-13.635,0-34.088,20.453-34.088,34.088
	c0-13.635-20.443-34.088-34.078-34.088C444.683,62.657,465.126,42.214,465.126,28.579z"/>
<path style="fill:#FFBEAA;" d="M312.068,370.297c6.54,0,12.931,0.664,19.145,1.942c-9.899,70.841-141.463,70.841-151.362,0
	c6.213-1.278,12.614-1.942,19.145-1.942h8.383l12.604-36.842l0.01-0.01c10.682,6.233,22.881,9.75,35.534,9.75
	c12.733,0,25.011-3.557,35.742-9.859l12.416,36.961L312.068,370.297L312.068,370.297z"/>
<polygon style="fill:#B5D3E3;" points="330.708,248.327 180.352,248.327 179.557,199.574 331.502,199.574 "/>
<path style="fill:#000E1F;" d="M269.394,281.738c-3.257-2.861-8.248-2.498-11.314,0.568l-0.8,0.8c-0.967,0.967-2.535,0.967-3.502,0
	l-0.8-0.8c-3.066-3.066-8.056-3.429-11.314-0.568c-3.569,3.135-3.701,8.577-0.396,11.883l12.514,12.515
	c0.967,0.966,2.534,0.966,3.501-0.001l12.505-12.515C273.096,290.316,272.964,284.873,269.394,281.738z"/>
<path d="M253.991,305.425c0.967,0.966,2.534,0.966,3.501-0.001l12.505-12.515c3.306-3.306,3.174-8.747-0.396-11.883
	c-3.257-2.861-8.248-2.498-11.314,0.568l-0.8,0.8c-0.967,0.967-2.535,0.967-3.502,0l-0.8-0.8c-3.066-3.066-8.056-3.429-11.313-0.568
	c-3.569,3.135-3.701,8.577-0.396,11.883L253.991,305.425z"/>
<path d="M409.959,440.551c-3.92,1.336-6.016,5.598-4.68,9.518c4.554,13.363,6.863,27.479,6.863,41.954v4.975h-48.563v-38.4
	c0-4.142-3.358-7.5-7.5-7.5s-7.5,3.358-7.5,7.5v38.4h-185.66v-38.407c0-4.142-3.358-7.5-7.5-7.5c-4.142,0-7.5,3.358-7.5,7.5v38.407
	H99.336v-4.975c0-28.657,9.143-55.133,24.479-75.448c0.341-0.371,0.656-0.769,0.921-1.213
	c12.878-16.585,29.955-28.884,49.589-34.656c4.157,15.134,13.75,27.818,28.133,36.993c14.616,9.324,33.539,14.459,53.281,14.459
	s38.663-5.135,53.281-14.459c14.39-9.18,23.987-21.874,28.138-37.005c23.648,7.018,44.606,24.075,58.286,47.705
	c1.39,2.402,3.909,3.744,6.498,3.744c1.275,0,2.568-0.326,3.75-1.01c3.585-2.075,4.809-6.664,2.733-10.248
	c-15.978-27.604-40.856-47.39-68.972-55.129c0.038-0.953,0.062-1.912,0.062-2.878c0-4.142-3.358-7.5-7.5-7.5
	c-4.124,0-7.468,3.329-7.497,7.445c-4.056-0.486-8.148-0.737-12.241-0.737h-2.991l-1.061-3.159
	c10.77-3.876,20.753-8.361,29.841-13.39l5.309,9.986c1.313,2.47,3.874,3.979,6.62,3.979c0.315,0,0.632-0.02,0.95-0.06
	c3.093-0.394,5.619-2.66,6.346-5.692l7.68-32.044l38.543,14.64c2.927,1.112,6.236,0.288,8.301-2.066s2.45-5.743,0.966-8.5
	l-19.493-36.219c10.754-23.159,12.66-49.255,5.665-77.72c13.94-7.837,22.631-22.899,22.631-40.067
	c0-17.243-9.855-32.994-24.993-40.687C394.01,58.364,334.619,0,261.984,0h-9.214c-36.169,0-70.585,14.198-96.907,39.98
	c-25.27,24.751-39.706,56.941-40.977,91.106c-15.139,7.692-24.997,23.445-24.997,40.689c0,15.863,8.34,30.463,21.461,38.688
	c-7.25,13.684-7.173,30.498,0.758,44.235c1.436,2.487,3.154,4.84,5.125,7.031c-13.396,4.894-25.449,13.191-34.872,24.168
	c-13.014,15.159-20.182,34.525-20.182,54.53c0,17.21,5.182,33.746,14.985,47.819c7.745,11.119,17.919,20.089,29.756,26.314
	c-14.263,21.765-22.586,48.655-22.586,77.46v12.475c0,4.142,3.358,7.5,7.5,7.5h264.234c0.003,0,0.006,0,0.01,0
	c0.003,0,0.006,0,0.01,0h63.554c4.142,0,7.5-3.358,7.5-7.5V492.02c0-16.125-2.579-31.868-7.665-46.792
	C418.141,441.31,413.881,439.215,409.959,440.551z M312.276,377.086c3.371,0,6.737,0.216,10.078,0.602
	c-6.471,20.635-28.389,39.47-66.615,39.47c-38.216,0-60.133-18.827-66.613-39.471c3.339-0.385,6.705-0.601,10.075-0.601h8.383
	c3.207,0,6.058-2.038,7.096-5.072l9.816-28.692c9.915,4.371,20.56,6.663,31.236,6.663c10.741,0,21.443-2.314,31.403-6.727
	l9.646,28.717c1.026,3.054,3.888,5.112,7.109,5.112L312.276,377.086L312.276,377.086z M187.323,240.115l-3.489-33.753h143.802
	l-3.486,33.753H187.323z M330.649,177.201l-1.462,14.16h-10.851c-0.551-1.109-1.381-2.098-2.476-2.848
	c-14.41-9.863-29.621-9.947-43.987-0.24c-1.182,0.799-2.056,1.879-2.61,3.087h-86.979l-1.463-14.15
	c-0.195-1.916-0.333-3.838-0.428-5.754c7.701-1.026,14.933-3.976,21.141-8.631c7.829,5.872,17.29,9.043,27.268,9.043
	c9.977,0,19.439-3.171,27.268-9.043c7.829,5.872,17.291,9.043,27.268,9.043c9.977,0,19.438-3.171,27.268-9.043
	c6.029,4.522,13.027,7.435,20.483,8.538C330.991,173.324,330.849,175.275,330.649,177.201z M242.512,255.115
	c0.323,3.844,3.54,6.865,7.468,6.865c3.928,0,7.145-3.021,7.468-6.865h65.153l-2.051,19.861
	c-2.192,21.241-14.464,40.361-32.834,51.158c-0.014,0.008-0.026,0.016-0.04,0.024c-9.833,5.774-20.879,8.826-31.943,8.826
	c-10.987,0-21.968-3.018-31.764-8.734c-4.017-2.336-7.827-5.13-11.319-8.301c-12.301-11.183-20.016-26.445-21.723-42.973
	l-2.053-19.859L242.512,255.115L242.512,255.115z M303.446,344.702l-2.998-8.926c8.336-5.781,15.471-13.027,21.107-21.296
	l9.469,17.813C322.663,336.936,313.435,341.091,303.446,344.702z M362.327,304.657c-2.015-0.765-4.261-0.627-6.168,0.381
	c-1.906,1.008-3.286,2.786-3.789,4.883l-5.05,21.071l-17.271-32.487c2.784-6.98,4.638-14.37,5.424-21.987l5.435-52.629
	l49.135,91.297L362.327,304.657z M77.181,340.428c0-16.421,5.882-32.317,16.562-44.758c10.57-12.312,25.158-20.518,41.076-23.103
	c3.162-0.513,5.648-2.978,6.19-6.134s-0.981-6.309-3.79-7.847c-3.699-2.026-8.805-5.645-12.119-11.386
	c-6.379-11.049-5.188-25.065,2.963-34.874c1.556-1.872,2.106-4.383,1.477-6.735c-0.63-2.352-2.362-4.251-4.646-5.094
	c-11.964-4.419-20.004-15.961-20.004-28.72c0-12.758,8.039-24.301,20.004-28.72c2.945-1.088,4.901-3.896,4.901-7.035
	c0-31.927,12.985-62.229,36.564-85.323C189.861,27.678,220.548,15,252.77,15h9.214c66,0,119.695,54.29,119.695,121.02
	c0,3.14,1.956,5.948,4.901,7.035c11.964,4.419,20.004,15.961,20.004,28.72c0,13.265-7.495,24.606-19.095,28.891
	c-3.684,1.361-5.695,5.333-4.609,9.108c6.533,22.723,6.874,43.645,1.058,62.414l-40.288-74.857l1.919-18.583
	c0.496-4.763,0.709-9.647,0.634-14.517l0,0c0-0.008,0.001-0.016,0.001-0.024c-0.079-4.141-3.481-7.431-7.642-7.355l-0.692,0.017
	c-8.309,0-16.086-3.28-21.9-9.237c-1.411-1.446-3.346-2.262-5.367-2.262s-3.956,0.815-5.367,2.261
	c-5.814,5.957-13.591,9.237-21.9,9.237c-8.309,0-16.086-3.28-21.9-9.237c-1.411-1.446-3.346-2.262-5.367-2.262
	c-2.021,0-3.956,0.815-5.367,2.262c-5.813,5.956-13.591,9.237-21.9,9.237c-8.308,0-16.086-3.28-21.9-9.237
	c-1.411-1.446-3.346-2.262-5.367-2.262c-2.021,0-3.956,0.815-5.367,2.261c-5.814,5.957-13.591,9.237-21.9,9.237
	c-0.382,0-0.844-0.017-1.222-0.031c-4.164-0.138-7.617,3.083-7.768,7.222c-0.002,0.064,0.003,0.126,0.003,0.19h-0.012
	c-0.074,4.773,0.139,9.646,0.633,14.492l10.107,97.773c2.087,20.206,11.517,38.862,26.558,52.535
	c2.726,2.475,5.624,4.738,8.632,6.812l-8.971,26.222h-3.022c-4.093,0-8.186,0.252-12.241,0.737c-0.03-4.117-3.374-7.446-7.497-7.446
	c-4.142,0-7.5,3.358-7.5,7.5c0,0.964,0.024,1.921,0.062,2.872c-21.951,6-41.2,18.974-56.027,36.599
	C92.246,390.916,77.181,367.17,77.181,340.428z"/>
<path d="M506.172,342.347c-3.723-6.453-9.734-11.068-16.928-12.997c-7.192-1.928-14.709-0.94-21.17,2.784l-1.391,0.803l-0.75-1.298
	c-3.724-6.452-9.739-11.067-16.935-12.996c-7.2-1.93-14.718-0.939-21.165,2.789c-8.603,4.966-13.947,14.229-13.947,24.174
	c0,4.872,1.293,9.687,3.739,13.926l23.52,40.746c1.898,3.278,5.35,5.113,8.895,5.113c1.735,0,3.494-0.44,5.102-1.366l40.829-23.576
	c6.449-3.729,11.063-9.743,12.991-16.936C510.892,356.314,509.901,348.798,506.172,342.347z M494.473,359.628
	c-0.892,3.326-3.027,6.109-6.008,7.832l-36.709,21.197l-21.141-36.625c-1.132-1.961-1.73-4.184-1.73-6.427
	c0-4.602,2.47-8.887,6.451-11.185c1.984-1.147,4.187-1.733,6.42-1.733c1.119,0,2.246,0.147,3.356,0.445
	c3.327,0.892,6.106,3.025,7.829,6.009l3.113,5.389c1.363,2.386,3.577,4.092,6.232,4.804c2.657,0.712,5.429,0.34,7.775-1.028
	l5.506-3.179c2.986-1.722,6.462-2.179,9.788-1.288c3.324,0.891,6.102,3.025,7.822,6.009l0.004,0.008
	C494.907,352.833,495.364,356.303,494.473,359.628z"/>
<path d="M85.636,111.061c4.818,0,9.239-3.219,10.541-8.083l15.151-56.544c4.681-17.481-5.731-35.51-23.211-40.19
	C70.636,1.562,52.607,11.97,47.927,29.447l-0.985,3.683l-3.548-0.951c-8.47-2.274-17.314-1.112-24.906,3.271
	C10.895,39.831,5.465,46.908,3.202,55.362c-0.751,2.779-1.131,5.65-1.131,8.535c0,14.805,10.002,27.829,24.327,31.671l56.435,15.124
	C83.767,110.941,84.709,111.061,85.636,111.061z M30.281,81.079c-7.778-2.086-13.21-9.151-13.21-17.183
	c0-1.564,0.206-3.12,0.616-4.639c1.231-4.597,4.179-8.438,8.299-10.817c2.742-1.583,5.785-2.392,8.87-2.392
	c1.55,0,3.111,0.204,4.649,0.617l7.514,2.015c2.813,0.749,5.753,0.36,8.274-1.096c2.528-1.46,4.333-3.818,5.082-6.63l2.041-7.628
	c1.23-4.595,4.177-8.435,8.298-10.813c4.121-2.378,8.922-3.009,13.522-1.778c9.489,2.541,15.142,12.33,12.601,21.82L82.747,95.14
	L30.281,81.079z"/>
<path d="M431.256,69.445c9.438,0,26.578,17.146,26.578,26.587c0,4.142,3.358,7.5,7.5,7.5s7.5-3.358,7.5-7.5
	c0-9.442,17.145-26.587,26.588-26.587c4.142,0,7.5-3.358,7.5-7.5s-3.358-7.5-7.5-7.5c-9.442,0-26.588-17.139-26.588-26.578
	c0-4.142-3.358-7.5-7.5-7.5s-7.5,3.358-7.5,7.5c0,9.438-17.138,26.578-26.578,26.578c-4.142,0-7.5,3.358-7.5,7.5
	S427.112,69.445,431.256,69.445z M465.334,47.588c3.868,5.447,8.913,10.49,14.36,14.357c-5.448,3.868-10.492,8.912-14.36,14.36
	c-3.868-5.448-8.91-10.492-14.357-14.36C456.423,58.079,461.465,53.036,465.334,47.588z"/>
<g>
</g>
<g>
</g>
<g>
</g>
<g>
</g>
<g>
</g>
<g>
</g>
<g>
</g>
<g>
</g>
<g>
</g>
<g>
</g>
<g>
</g>
<g>
</g>
<g>
</g>
<g>
</g>
<g>
</g>
</svg>
