<svg height="512pt" viewBox="-23 0 512 512.00147" width="512pt" xmlns="http://www.w3.org/2000/svg"><path d="m66.019531 142.570312v-69.601562l-52.179687 24.773438c-8.453125 4.011718-8.453125 16.039062 0 20.054687zm0 0" fill="#898890"/><path d="m336.175781 414.96875-90.003906 3.199219 4.574219 37.101562c2.144531 17.382813 23.507812 24.476563 35.621094 11.828125zm0 0" fill="#acabb1"/><path d="m83.023438 81.371094c0 14.578125-11.820313 26.398437-26.398438 26.398437s-26.394531-11.820312-26.394531-26.398437 11.816406-26.394532 26.394531-26.394532 26.398438 11.816407 26.398438 26.394532zm0 0" fill="#ffe2d9"/><path d="m208.605469 63.023438c-15.652344-58.875-72.152344-55.488282-72.152344-55.488282-34.808594 0-64.953125 24.054688-72.773437 57.976563-20.953126 90.910156-44.859376 264.5 52.992187 340.910156 9.875 7.710937 17.226563 18.1875 20.898437 30.164063l5.726563 18.683593c2.144531 17.378907 23.511719 24.472657 35.621094 11.828125l11.191406-11.683594c6.605469-6.902343 16.050781-10.382812 25.542969-9.3125 122.859375 13.882813 223.660156-92.410156 223.660156-92.410156s-171.914062-69.492187-230.707031-290.667968zm0 0" fill="#d8d7da"/><path d="m439.3125 353.691406s-66.152344-26.742187-130.414062-99.835937l-122.078126 77.195312s27.699219 54.082031 68.226563 69.691407c15.382813 5.925781 31.816406 20.863281 46.285156 37.105468 80.761719-23.820312 137.980469-84.15625 137.980469-84.15625zm0 0" fill="#c6c5ca"/><path d="m199.070312 254.929688c0-.328126 32.03125-26.140626 68.792969-55.65625-23.742187-37.148438-44.878906-82.15625-59.257812-136.25-15.652344-58.871094-72.152344-55.488282-72.152344-55.488282-34.808594 0-64.953125 24.054688-72.773437 57.976563-10.746094 46.625-22.269532 114.984375-17.746094 180.839843 28 25.257813 80.59375 52.445313 153.136718 8.578126zm0 0" fill="#bfbddb"/><path d="m311.347656 378.121094s20.0625 46.859375 104.863282 88.195312c19.277343 9.398438 40.347656-9.121094 33.503906-29.449218-11.816406-35.089844-25.773438-75.765626-25.773438-75.765626zm0 0" fill="#bfbddb"/><path d="m448.21875 432.4375c-11.464844-33.992188-24.277344-71.335938-24.277344-71.335938l-112.59375 17.019532s8.183594 19.117187 36.195313 43.699218c24.636719 7.007813 58.882812 13.109376 100.675781 10.617188zm0 0" fill="#a5a5c6"/><path d="m285.902344 147.285156c-30.167969-13.074218-64.734375-9.21875-91.785156 9.472656-27.46875 18.980469-56.058594 54.164063-39.933594 115.039063 19.390625 73.199219 66.761718 81.445313 94.503906 79.4375 13.039062-.941406 25.933594 3.628906 35.488281 12.550781 20.980469 19.585938 67.023438 48.644532 150.867188 40.542969 17.433593-1.683594 28.28125-19.746094 21.539062-35.910156-24.625-59.050781-86.921875-184.824219-170.679687-221.132813zm0 0" fill="#eaeaea"/><path d="m103.957031 59.242188c-4.144531 0-7.5 3.359374-7.5 7.5v12.453124c0 4.140626 3.355469 7.5 7.5 7.5s7.5-3.359374 7.5-7.5v-12.453124c0-4.140626-3.359375-7.5-7.5-7.5zm0 0"/><path d="m461.320312 395.640625c5.519532-9.21875 6.316407-20.195313 2.183594-30.109375-8.695312-20.851562-27.160156-62.0625-53.148437-103.816406-28.773438-46.226563-58.953125-80.886719-89.703125-103.011719-3.359375-2.421875-8.046875-1.65625-10.464844 1.707031-2.421875 3.359375-1.65625 8.046875 1.703125 10.464844 23.28125 16.753906 83.304687 69.820312 137.765625 200.429688 2.285156 5.476562 1.84375 11.535156-1.203125 16.628906-3.058594 5.101562-8.207031 8.359375-14.132813 8.929687-35.105468 3.394531-100.628906 2.894531-145.027343-38.5625-11.070313-10.335937-26.070313-15.640625-41.144531-14.546875-11.863282.855469-29.457032-.253906-45.902344-10.417968-19.042969-11.769532-32.773438-33.121094-40.8125-63.460938-6.804688-25.691406-5.730469-48.632812 3.191406-68.199219 6.820312-14.949219 18.179688-27.984375 33.753906-38.75 25.289063-17.46875 56.890625-20.746093 84.539063-8.757812 3.800781 1.644531 8.21875-.101563 9.867187-3.898438 1.644532-3.800781-.097656-8.21875-3.898437-9.863281-15.464844-6.703125-31.964844-9.335938-48.207031-8.054688-9.90625-22.632812-18.265626-46.574218-24.824219-71.253906-8.878907-33.402344-30.121094-48.265625-46.378907-54.847656-16.429687-6.652344-31.015624-6.3085938-33.207031-6.2148438-18.457031.0429688-36.5625 6.3984378-50.996093 17.9023438-10.0625 8.019531-18.078126 18.335938-23.4375 29.945312-29.984376-.625-40.375 22.917969-38.894532 37.234376l-12.316406 5.847656c-6.554688 3.113281-10.625 9.550781-10.625 16.804687 0 7.25 4.070312 13.691407 10.625 16.800781l32.023438 15.207032c-10.730469 83.25-8.886719 185.96875 46.160156 250.300781 1.480468 1.734375 6.652344 4.167969 10.574218.824219 3.148438-2.6875 3.515626-7.425782.820313-10.574219-24.359375-28.46875-39.496094-67.78125-45.195313-117.160156 17.523438 12.285156 40.6875 22.550781 69.183594 22.550781 8.058594 0 16.558594-.839844 25.464844-2.667969 9.371094 29.304688 24.382812 50.488281 44.703125 63.046875 19.859375 12.273438 40.800781 13.636719 54.871094 12.617188 10.925781-.785156 21.800781 3.054687 29.828125 10.550781 6.859375 6.40625 17.136718 14.523437 31.171875 22.003906 4.566406 7 11.691406 16.359375 22.417969 26.992188-39.796876 17.746093-78.832032 24.605469-116.152344 20.390625-11.707032-1.324219-23.59375 3.003906-31.804688 11.574218l-11.1875 11.683594c-3.636718 3.796875-8.675781 4.699219-13.769531 3.417969-7.582031-1.914063-9.136719-11.835937-9.265625-12.257813l-5.726562-18.679687c-4.105469-13.390625-12.214844-25.105469-23.453126-33.878906-3.265624-2.550781-7.980468-1.96875-10.527343 1.292969-2.550781 3.265624-1.96875 7.980468 1.296875 10.527343 8.800781 6.875 15.140625 16.019531 18.339844 26.453125l5.550781 18.101563c1.171875 7.9375 5.515625 14.769531 11.90625 19.136719l-4.175781 10.988281c-20.734376 1.15625-33.992188 10.835937-34.855469 11.488281-3.300781 2.472656-3.964844 7.136719-1.507813 10.453125 2.457032 3.3125 7.144532 4.007813 10.472656 1.570313 1.085938-.796876 27.027344-19.265626 62.976563.542968 1.148437.632813 2.390625.933594 3.613281.933594 2.644532 0 5.210938-1.402344 6.578125-3.882812 1.996094-3.625.675781-8.1875-2.949219-10.1875-10.21875-5.628907-19.828124-8.707032-28.59375-10.09375l2.617188-6.882813c11.695312 1.710937 16.847656-2.96875 22.304688-8.667969l11.191406-11.683594c4.992187-5.210937 12.195312-7.847656 19.285156-7.042968 9.355469 1.054687 18.800781 1.46875 28.320312 1.238281 0 0 .289063 15.675781 12.175782 21.230469l-4.175782 10.984375c-20.734374 1.15625-33.992187 10.839843-34.859374 11.488281-3.296876 2.472656-3.960938 7.136719-1.507813 10.453125 2.457031 3.3125 7.148437 4.007813 10.476563 1.570313 1.085937-.796876 27.023437-19.265626 62.976562.546874 1.148438.628907 2.390625.929688 3.613281.929688 2.644531 0 5.207031-1.402344 6.574219-3.878906 2-3.628906.679688-8.191406-2.949219-10.191406-10.214843-5.628907-19.824219-8.703126-28.589843-10.09375l2.617187-6.882813c7.570313 1.765625 16.847656-2.972656 22.3125-8.675781l32.949219-34.488282c6.605468-2.550781 13.226562-5.394531 19.863281-8.515624 16.222656 13.914062 38.363281 29.183593 68.320313 43.785156 4.523437 2.207031 17.785156 9.757812 34.78125-4.683594 9.914062-8.421875 13.265624-21.578125 9.113281-33.898438-2.910157-8.644531-5.945313-17.617187-8.875-26.246093 5.453125-2.8125 10.085937-7.105469 13.371093-12.589844zm-404.695312-333.167969c.03125 0-5.183594 23.683594-7.507812 36.230469-6.691407-2.910156-11.386719-9.582031-11.386719-17.332031 0-10.417969 8.476562-18.898438 18.894531-18.898438zm-39.566406 48.546875c-1.859375-.882812-2.058594-2.570312-2.058594-3.253906s.199219-2.371094 2.058594-3.25l10.859375-5.15625c4.246093 6.757813 10.808593 11.917969 18.570312 14.355469-.570312 3.449218-1.125 6.949218-1.660156 10.488281zm36.164062 131.753907c-.355468-5.796876-.59375-11.714844-.710937-17.757813-1.148438-59.203125 9.414062-118.503906 18.476562-157.820313 7.078125-30.710937 34-52.160156 65.464844-52.160156.152344 0 .300781-.003906.449219-.015625.125-.007812 12.597656-.675781 26.945312 5.132813 19.035156 7.710937 31.65625 22.78125 37.507813 44.796875 6.410156 24.101562 14.480469 47.535156 24.007812 69.796875-12.457031 2.933594-24.5 8.230468-35.507812 15.839844-17.839844 12.324218-30.917969 27.417968-38.875 44.867187-9.78125 21.441406-11.5625 46.011719-5.324219 73.089844-41.539062 8.125-72.707031-8.753907-92.433594-25.769531zm227.730469 219.136718c-3.636719 3.792969-8.785156 5.070313-13.769531 3.414063-4.988282-1.65625-8.351563-5.757813-8.992188-10.972657l-.058594-.449218c12.109376-1.132813 24.332032-3.289063 36.636719-6.457032zm156.851563-4.804687c-4.03125 3.542969-10.957032 6.050781-18.308594 2.46875-40.015625-19.503907-65.144532-40.273438-80.285156-56.175781 20.570312 6.53125 43.261718 9.820312 67.785156 9.820312 8.574218 0 17.378906-.421875 26.386718-1.222656 3.035157 8.9375 6.199219 18.28125 9.222657 27.265625 2.609375 7.75-.769531 14.296875-4.800781 17.84375zm0 0"/></svg>