<svg id="Capa_1" enable-background="new 0 0 512 512" height="512" viewBox="0 0 512 512" width="512" xmlns="http://www.w3.org/2000/svg"><g><g><g><path d="m231.155 496.158c0 4.575-3.708 8.283-8.283 8.283h-33.133c-4.575 0-8.283-3.709-8.283-8.283v-112.49h49.7v112.49z" fill="#d2a677"/><path d="m208.155 383.668v112.49c0 4.575-3.709 8.283-8.284 8.283h23c4.575 0 8.284-3.708 8.284-8.283v-112.49z" fill="#b38a68"/><path d="m350.922 471.308h-289.235l9.483-33.133h270.27z" fill="#a87858"/></g><path d="m357.084 336.65 44.998 157.229c1.514 5.292-2.459 10.563-7.964 10.563h-32.468c-3.697 0-6.947-2.45-7.964-6.004l-36.221-126.524v-47.77h39.56z" fill="#d2a677"/><path d="m55.521 336.65-44.998 157.229c-1.515 5.292 2.459 10.563 7.964 10.563h32.468c3.697 0 6.947-2.45 7.964-6.004l36.221-126.525v-47.77h-39.56z" fill="#d2a677"/><path d="m402.082 493.879-44.997-157.23-.059-12.506h-23l.059 12.506 44.997 157.23c1.515 5.292-2.458 10.562-7.963 10.562h23c5.504.001 9.478-5.27 7.963-10.562z" fill="#b38a68"/><path d="m76.465 324.143v32.644l-40.546 141.65c-1.017 3.554-4.267 6.004-7.964 6.004h23c3.697 0 6.947-2.45 7.964-6.004l36.221-126.524v-47.77z" fill="#b38a68"/><circle cx="206.305" cy="206.242" fill="#e27f84" r="198.8"/><path d="m206.305 7.442c-3.861 0-7.693.122-11.5.339 104.441 5.958 187.3 92.528 187.3 198.461s-82.859 192.502-187.3 198.461c3.807.217 7.639.339 11.5.339 109.794 0 198.8-89.006 198.8-198.8s-89.006-198.8-198.8-198.8z" fill="#c9646d"/><circle cx="206.305" cy="206.242" fill="#edf6ff" r="132.533"/><path d="m206.305 73.708c-3.875 0-7.709.176-11.5.502 67.81 5.83 121.034 62.71 121.034 132.031s-53.223 126.201-121.034 132.031c3.791.326 7.625.502 11.5.502 73.196 0 132.534-59.337 132.534-132.534-.001-73.195-59.338-132.532-132.534-132.532z" fill="#d8e2f3"/><circle cx="206.305" cy="206.242" fill="#e27f84" r="66.267"/><path d="m206.305 139.975c-3.924 0-7.763.361-11.5 1.015 31.113 5.447 54.767 32.578 54.767 65.252s-23.654 59.805-54.767 65.252c3.737.654 7.576 1.015 11.5 1.015 36.598 0 66.267-29.669 66.267-66.267 0-36.599-29.669-66.267-66.267-66.267z" fill="#c9646d"/><g><path d="m371.972 222.808 30.674 46.011c1.536 2.304 4.122 3.689 6.892 3.689h86.67c6.616 0 10.562-7.373 6.892-12.878l-24.548-36.822v-33.133l24.548-36.822c3.67-5.505-.276-12.878-6.892-12.878h-86.67c-2.77 0-5.356 1.384-6.892 3.689l-30.674 46.011z" fill="#edf6ff"/><path d="m478.552 222.808v-33.133l24.548-36.822c3.669-5.505-.276-12.878-6.893-12.878h-23c6.616 0 10.562 7.373 6.893 12.878l-24.548 36.822v33.133l24.548 36.822c3.669 5.505-.276 12.878-6.893 12.878h23c6.616 0 10.562-7.373 6.893-12.878z" fill="#d8e2f3"/><path d="m479.938 222.808h-265.633c-4.418 0-8-3.582-8-8v-17.133c0-4.418 3.582-8 8-8h265.633c4.418 0 8 3.582 8 8v17.133c0 4.418-3.581 8-8 8z" fill="#d2a677"/><path d="m479.938 189.675h-23c4.418 0 8 3.582 8 8v17.133c0 4.418-3.582 8-8 8h23c4.418 0 8-3.582 8-8v-17.133c0-4.418-3.582-8-8-8z" fill="#b38a68"/></g></g><path d="m490.048 226.591c3.294-2.845 5.391-7.04 5.391-11.724v-17.133c0-4.684-2.096-8.879-5.391-11.724l19.292-28.938c3.235-4.853 3.535-11.061.783-16.203s-8.084-8.336-13.915-8.336h-41.429c-.008 0-.015 0-.023 0h-45.217c-3.434 0-6.704 1.113-9.381 3.094-13.421-36.659-37.401-69.392-68.593-93.26-36.222-27.717-79.536-42.367-125.26-42.367-48.719 0-96.006 17.301-133.151 48.717-3.163 2.675-3.558 7.407-.883 10.57 2.674 3.162 7.406 3.559 10.57.883 34.439-29.128 78.287-45.17 123.464-45.17 83.809 0 158.545 55.451 182.961 135.271l-21.308 31.962h-23.682c-11.521-66.564-69.697-115.967-137.972-115.967-77.214 0-140.033 62.819-140.033 140.033 0 77.215 62.819 140.034 140.033 140.034 68.274 0 126.451-49.403 137.972-115.967h23.682l21.308 31.963c-24.417 79.82-99.153 135.271-182.961 135.271-105.483 0-191.3-85.817-191.3-191.3 0-46.338 16.78-91.044 47.249-125.881 2.727-3.118 2.41-7.856-.708-10.583-3.117-2.726-7.856-2.411-10.583.708-32.861 37.572-50.958 85.784-50.958 135.756 0 49.908 17.817 95.731 47.421 131.45l-28.168 98.425c-1.14 3.982 1.165 8.134 5.147 9.274.69.197 1.384.292 2.067.292 3.262 0 6.264-2.146 7.206-5.439l12.614-44.076h34.098l-28.677 100.206c-.096.335-.406.568-.753.568h-32.469c-.097 0-.391 0-.626-.311-.235-.312-.154-.595-.127-.688l7.373-25.763c1.14-3.982-1.164-8.134-5.147-9.274-3.979-1.138-8.134 1.164-9.274 5.147l-7.373 25.763c-1.375 4.807-.438 9.853 2.571 13.845 3.011 3.991 7.604 6.281 12.603 6.281h32.469c7.007 0 13.247-4.705 15.174-11.441l6.208-21.692h101.613v17.35c0 8.703 7.08 15.783 15.783 15.783h33.133c8.703 0 15.783-7.08 15.783-15.783v-17.35h101.612l6.21 21.693c1.928 6.736 8.168 11.44 15.174 11.44h32.468c5 0 9.593-2.29 12.603-6.282s3.947-9.038 2.572-13.844l-44.097-154.082c14.991-18.136 26.888-38.765 34.962-60.819 2.677 1.981 5.947 3.094 9.381 3.094h45.257c.005 0 .011.001.016.001s.009-.001.014-.001h41.383c5.831 0 11.163-3.194 13.915-8.336s2.452-11.35-.783-16.203zm-68.33-11.224c-.005 0-.01 0-.015 0h-49.731-158.167v-18.133h158.167 49.68c.005 0 .009.001.014.001s.011-.001.016-.001h56.871 1.387c.275 0 .5.224.5.5v17.133c0 .276-.225.5-.5.5h-1.387zm-215.413-41.417c-4.142 0-7.5 3.358-7.5 7.5v8.283 9.066h-17.35c-4.142 0-7.5 3.358-7.5 7.5s3.358 7.5 7.5 7.5h17.35v9.067 8.283c0 4.142 3.358 7.5 7.5 7.5s7.5-3.358 7.5-7.5v-.783h46.14c-9.326 20.837-30.172 34.7-53.64 34.7-32.404 0-58.767-26.363-58.767-58.767s26.363-58.767 58.767-58.767c23.469 0 44.315 13.863 53.641 34.7h-46.141v-.783c0-4.141-3.358-7.499-7.5-7.499zm290.594-26.003c.221.414.045.678-.039.805l-22.321 33.482h-38.853l23.133-34.7h37.39c.151-.001.468-.001.69.413zm-93.282 7.838c.017-.025.033-.049.049-.074l5.219-7.829c.145-.218.39-.349.652-.349h31.253l-23.133 34.7h-31.673zm-197.312 175.549c-68.943 0-125.033-56.09-125.033-125.034 0-68.943 56.09-125.033 125.033-125.033 60.083 0 111.404 42.841 122.719 100.967h-52.973c-10.159-29.538-38.043-49.7-69.746-49.7-40.675 0-73.767 33.092-73.767 73.767s33.092 73.767 73.767 73.767c31.702 0 59.586-20.163 69.745-49.7h52.974c-11.315 58.125-62.637 100.966-122.719 100.966zm108.736 59.416c.002.006.004.013.005.019l11.441 39.965h-87.832v-20.639c26.295-4.109 51.344-13.244 74.173-27.077zm-91.386 21.137v18.847h-34.7v-18.87c5.722.479 11.506.736 17.35.736 5.826 0 11.612-.241 17.35-.713zm-173.069-30.661 8.691-30.368c8.428 8.571 17.59 16.417 27.396 23.42l-1.988 6.948zm46.915 9.731c0-.001 0-.001 0 0l2.3-8.035c22.318 13.508 47.389 22.902 74.154 27.136v20.677h-87.838zm126.154 105.26c0 .432-.352.783-.783.783h-33.133c-.432 0-.783-.352-.783-.783v-17.35h34.7v17.35zm-147.02-32.35 5.189-18.133h248.956l5.191 18.133zm318.109 32.821c-.235.312-.529.312-.626.312h-32.468c-.348 0-.657-.234-.754-.568l-28.742-100.398h34.106l28.61 99.968c.029.092.109.375-.126.686zm-32.776-115.655h-34.107l-1.908-6.664c1.887-1.347 3.76-2.72 5.61-4.136 7.724-5.91 15.004-12.365 21.794-19.287zm46.918-116.315-5.225-7.837c-.013-.019-.026-.039-.039-.058l-17.637-26.456h31.673l23.133 34.7h-31.253c-.263 0-.506-.13-.652-.349zm88.013-.065c-.222.414-.538.414-.691.414h-37.39l-23.133-34.7h38.853l22.321 33.482c.084.127.26.39.04.804z"/></g></svg>